<?xml version="1.0" encoding="utf-8"?>
<!-- Generated by IcoMoon.io -->
<!DOCTYPE svg PUBLIC "-//W3C//DTD SVG 1.1//EN" "http://www.w3.org/Graphics/SVG/1.1/DTD/svg11.dtd">
<svg version="1.1" xmlns="http://www.w3.org/2000/svg" xmlns:xlink="http://www.w3.org/1999/xlink" width="32" height="32" viewBox="0 0 32 32">
<path fill="#005ebc" d="M25.867 21.467v-9.867h-15.333v9.867h15.333zM25.867 6.133c1.2 0 2.133 0.933 2.133 2.133v13.067c0 1.2-0.933 2.133-2.133 2.133h-15.333c-1.2 0-2.133-0.933-2.133-2.133v-12.933c0-1.2 0.933-2.133 2.133-2.133h1.067v-2.267h2.133v2.133h8.667v-2.133h2.133v2.133h1.333zM22 14.933l-4.8 4.8-2.933-2.933 1.2-1.2 1.733 1.733 3.733-3.733 1.067 1.333zM6.133 25.867h15.333v2.133h-15.333c-1.2 0-2.133-0.933-2.133-2.133v-13.2h2.133v13.2z"></path>
</svg>
