<?xml version="1.0" encoding="utf-8"?>
<!-- Generated by IcoMoon.io -->
<!DOCTYPE svg PUBLIC "-//W3C//DTD SVG 1.1//EN" "http://www.w3.org/Graphics/SVG/1.1/DTD/svg11.dtd">
<svg version="1.1" xmlns="http://www.w3.org/2000/svg" xmlns:xlink="http://www.w3.org/1999/xlink" width="32" height="32" viewBox="0 0 32 32">
<path fill="#005ebc" d="M22.4 12.667l-1.333 1.333-2.8-2.8 1.333-1.333c0.267-0.267 0.8-0.267 1.067 0l1.733 1.733c0.267 0.4 0.267 0.8 0 1.067zM9.6 19.333l6.533-6.267 2.933 3.067-6.133 6.533h-3.467l0.133-3.333z"></path>
<path fill="#005ebc" d="M16 26.667c-5.867 0-10.667-4.8-10.667-10.667s4.8-10.667 10.667-10.667 10.667 4.8 10.667 10.667-4.8 10.667-10.667 10.667zM16 2.667c-7.333 0-13.333 6-13.333 13.333s6 13.333 13.333 13.333 13.333-6 13.333-13.333-6-13.333-13.333-13.333z"></path>
</svg>
