<?xml version="1.0" encoding="utf-8"?>
<!-- Generated by IcoMoon.io -->
<!DOCTYPE svg PUBLIC "-//W3C//DTD SVG 1.1//EN" "http://www.w3.org/Graphics/SVG/1.1/DTD/svg11.dtd">
<svg version="1.1" xmlns="http://www.w3.org/2000/svg" xmlns:xlink="http://www.w3.org/1999/xlink" width="32" height="32" viewBox="0 0 32 32">
<path fill="#005ebc" d="M8.933 10l-1.867-1.867c-1.2 1.6-1.867 3.867-2.133 5.2h2.667c0.267-1.333 0.667-2.4 1.333-3.333zM14.667 6.667v-2.667c-1.333 0.267-3.867 0.933-5.467 2.133l1.867 1.867c1.067-0.667 2.133-1.2 3.467-1.333zM4.933 15.867c0.267 1.867 0.933 3.6 2.133 5.2l1.867-1.867c-0.667-1.067-1.2-2.133-1.333-3.333zM11.2 23.2l6.133 6v-4.133c5.333-0.667 9.333-5.2 9.333-10.533s-4-9.867-9.333-10.533v2.667c4 0.667 6.667 3.867 6.667 7.867s-2.667 7.2-6.667 7.867v-5.2l-6.133 6z"></path>
</svg>
