<?xml version="1.0" encoding="utf-8"?>
<!-- Generated by IcoMoon.io -->
<!DOCTYPE svg PUBLIC "-//W3C//DTD SVG 1.1//EN" "http://www.w3.org/Graphics/SVG/1.1/DTD/svg11.dtd">
<svg version="1.1" xmlns="http://www.w3.org/2000/svg" xmlns:xlink="http://www.w3.org/1999/xlink" width="32" height="32" viewBox="0 0 32 32">
<path fill="#808080" d="M16 2.667h-1.067v0.4l-1.6-0.4h0.133l-0.133 0.133v0.4h0.133v0.133h-0.133l0.533 0.133v-0.667c-0.533 0-1.2-0.133-1.2-0.133v0 0 0 0h-0.667v0.267l0.533-0.267c0 0-0.533 0.133-0.533 0.133v0.133c0 0.133-0.267 0.133-0.667 0.267l1.067 2.533c1.067-0.267 2.267-0.4 3.6-0.4v-2.667zM8.133 4.933c-0.667 0.533-1.333 1.067-1.867 1.6v0 0 0 0 0.267h0.267c-0.133-0.133 0.133-0.267 0.133-0.267v0l-0.4 0.133h0.4c0-0.133 0 0 0 0v0 0h-0.133c-0.133 0 0.133 0 0.133 0v0h-0.533v-0.267c-0.267 0.267-0.8 0.4-0.8 0.4v0h0.267l0.267-0.267c0 0.133-0.533 0.267-0.533 0.267v0 0-0.133c0 0.133 0.533 0 0.533 0v0l-0.533 0.133c0 0 0 0 0 0.133v0 0 0 0 0 0l0.267-0.267h-0.133l-0.133 0.267h0.4v-0.267h-0.133l-0.267 0.4v-0.133c0-0.133 0.4-0.267 0.4-0.267v0l-0.4 0.267v0.133h-0.133c0.133 0 0.267-0.4 0.267-0.4h0.133l-0.267 0.267v0.133h0.133v0.133c-0.133 0.533 0 0.8 0 0.8v0l-0.133-0.267c0 0 0 0.267 0 0.267v0-0.4c0 0 0-0.133 0 0v0 0 0 0 0 0 0 0 0 0 0 0 0 0 0 0 0 0 0 0 0 0 0 0 0 0 0 0 0 0 0 0 0 0 0 0 0 0 0 0 0 0 0 0 0 0 0 0 0 0 0 0 0 0 0 0 0 0 0 0 0 0 0 0 0 0 0 0l1.867 1.733c0.667-0.8 1.467-1.6 2.4-2.133l-1.467-2.267zM3.2 11.2c-0.4 1.067-0.667 2.267-0.8 3.6h0.267v0.133l2.533 0.133c0-0.933 0.133-2 0.533-2.933l-2.533-0.933zM5.2 18.4l-2.8 0.667c0.133 0.533 0.267 1.2 0.267 1.733v0.267l0.533 0.267h-0.4l-0.133-0.4 0.267 0.4h-0.133l-0.133-0.4 0.267 0.4h-0.133l-0.133-0.4 0.267 0.267h-0.133l-0.133-0.267 0.267 0.133h-0.133l-0.133-0.133 0.4 0.133h0.4c0.133 0.4 0.4 0.933 0.667 1.333v0 0 0 0 0 0 0 0 0 0 0 0l2.267-1.333c-0.533-0.667-0.933-1.6-1.2-2.667v0zM8.4 23.867l-1.867 2 0.133 0.133h-0.267v0.267h0.267c0.533 0.4 1.2 0.933 1.733 1.2v0 0 0 0 0 0 0 0 0.533h0.267l0.267-0.533v0.4l-0.4 0.133 0.4-0.267v0.133l-0.4 0.133v-0.133l0.267-0.133v-0.133c0.533 0.267 0.933 0.4 1.2 0.4l1.067-2.4c-0.933-0.4-1.867-1.067-2.667-1.733v0zM17.333 26.667c-0.533 0-1.2 0-1.733 0s-1.067 0-1.467-0.133l-0.4 2.667 0.133 0.133h0.667c0 0 0.267 0 0.4 0v0 0 0 0 0 0 0 0 0 0 0 0 0 0 0 0 0 0 0 0 0 0 0 0 0 0 0 0 0 0 0 0 0 0 0 0 0 0 0 0 0 0 0 0 0 0 0 0 0 0 0 0 0 0 0 0 0 0 0 0 0 0 0 0 0 0 0 0 0 0 0 0 0 0 0 0 0 0 0 0 0 0 0 0 0 0 0 0 0 0 0 0 0 0 0 0 0 0 0 0 0 0 0 0 0 0 0 0 0 0 0 0 0 0 0 0 0 0 0 0 0 0 0 0 0 0 0 0 0 0 0 0 0 0 0 0 0 0 0 0 0 0 0 0 0 0 0 0 0 0 0 0 0 0 0 0 0 0 0 0 0 0 0 0 0 0 0 0 0 0 0 0 0 0 0 0 0 0 0 0 0 0 0 0 0 0 0 0 0 0 0 0 0 0 0 0 0 0 0 0 0 0 0 0 0 0 0 0 0 0 0 0 0 0 0 0 0 0 0 0 0 0 0 0 0 0 0 0 0 0 0 0 0 0 0 0 0 0 0 0 0 0 0 0 0 0 0 0 0 0 0 0 0 0 0 0 0 0 0 0 0 0 0 0 0 0 0 0 0 0 0 0 0 0 0 0 0 0 0 0 0 0 0 0 0 0 0 0 0 0 0 0 0 0 0 0 0 0 0 0 0 0 0 0 0 0 0 0 0 0 0 0 0 0 0 0 0 0 0 0 0 0 0 0 0 0 0 0 0 0 0 0 0 0 0 0 0 0 0 0 0 0 0 0 0 0 0 0 0 0 0 0 0 0 0 0 0 0 0 0 0 0 0 0 0 0 0 0 0 0 0 0 0 0 0 0 0 0 0 0 0 0 0 0 0 0 0 0 0 0 0 0 0 0 0 0 0 0 0 0 0 0 0 0 0 0 0 0 0 0 0 0 0 0 0 0 0 0 0 0 0 0 0 0 0 0 0 0 0 0 0 0 0 0 0 0 0 0 0 0 0 0 0 0 0 0 0 0 0 0 0 0 0 0 0 0 0 0 0 0 0 0 0l2.4-2.667zM22.933 23.733c-0.8 0.8-1.6 1.333-2.667 1.867l1.2 2.4c0.267-0.133 0.667-0.4 0.933-0.533v0 0 0 0 0 0 0 0 0 0 0 0 0 0 0 0 0 0 0 0 0 0 0 0 0 0 0 0 0 0 0 0 0 0 0 0 0 0 0 0 0 0 0 0 0 0 0 0 0 0 0 0 0 0 0c0.533-0.4 1.2-0.8 1.733-1.333l-1.2-2.4zM26 18.267c-0.267 1.067-0.667 2-1.067 2.933l2.267 1.333c0-0.133 0.133-0.133 0.133-0.267v0c0 0 0-0.133 0.133-0.133v0 0 0 0 0 0 0 0 0 0 0 0 0 0 0 0 0 0 0 0 0 0 0 0 0 0 0 0 0c0 0 0 0 0-0.133v0 0 0 0 0 0 0 0 0 0 0 0 0 0 0c0.4-0.8 0.667-1.733 0.8-2.533l-2.267-1.2zM27.733 10.933l-2.4 1.067c0.4 0.933 0.667 2 0.8 3.067l2.933-0.267c0-0.267 0.267-0.4 0.267-0.667v0.267l-0.267 0.267h0.267v-0.533l-0.267-0.533h0.133l0.133 0.533-0.267-0.533h0.133l0.133 0.533-0.267-0.533 0.267 0.4-0.4-0.4h-0.133l0.533 0.133v0.133h-1.067v0.133l0.667 0.133h-0.267l-0.267-0.4 0.267 0.533h-0.133l-0.133-0.533 0.267-0.533h-0.133l-0.133 0.533 0.267-0.533h-0.133l-0.133 0.533 0.267-0.533h0.133l-0.4 0.133v0.133c-0.4-1.6-0.533-2-0.667-2.533v0zM22.933 4.933l-1.467 2.267c0.933 0.533 1.733 1.333 2.4 2.133l2-1.733c-0.4-0.533-0.933-0.933-1.333-1.467v0 0 0 0 0 0 0 0 0 0 0 0 0 0 0 0 0 0 0 0-0.533h-0.133l-0.267 0.667v-0.133c0 0 0.133 0.133 0.133 0l0.267-0.533-0.4 0.267v-0.133l0.267-0.133-0.267 0.267v-0.4l0.267-0.133v0l0.133 0.133v-0.133c-0.933-0.133-1.333-0.267-1.6-0.4v0zM16 2.667v2.667c0 0 1.867 0.133 2.8 0.4l0.667-2.533c-1.067-0.267-2.133-0.533-3.2-0.533v0h-0.267c0 0 0.133 0 0 0 0.133 0 0.133 0 0 0 0.133 0 0.133 0 0 0 0.133 0 0.133 0 0 0 0.133 0 0.133 0 0 0 0.133 0 0.133 0 0 0 0.133 0 0.133 0 0 0 0.133 0 0.133 0 0 0 0.133 0 0 0 0 0v0 0 0 0 0 0 0 0 0 0 0 0 0 0 0 0 0 0 0 0c-0.133 0-0.133 0 0 0-0.133 0-0.133 0 0 0-0.133 0-0.133 0 0 0-0.133 0-0.133 0 0 0-0.133 0-0.133 0 0 0-0.133 0-0.133 0 0 0-0.133 0-0.133 0 0 0-0.133 0-0.133 0 0 0-0.133 0-0.133 0 0 0-0.133 0-0.133 0 0 0-0.133 0-0.133 0 0 0-0.133 0-0.133 0-0.133 0v0 0 0 0 0 0 0 0 0 0 0 0 0 0 0 0 0 0 0 0 0 0 0 0 0 0 0 0 0 0 0 0 0 0 0 0 0 0 0 0 0 0 0 0 0c-0.267 0 0.133 0 0.133 0v0z"></path>
</svg>
