<?xml version="1.0" encoding="utf-8"?>
<!-- Generated by IcoMoon.io -->
<!DOCTYPE svg PUBLIC "-//W3C//DTD SVG 1.1//EN" "http://www.w3.org/Graphics/SVG/1.1/DTD/svg11.dtd">
<svg version="1.1" xmlns="http://www.w3.org/2000/svg" xmlns:xlink="http://www.w3.org/1999/xlink" width="32" height="32" viewBox="0 0 32 32">
<path fill="#005ebc" d="M16 2.667h-0.933v0.133l0.133-0.133h0.133c-0.667 0-1.333 0.267-1.867 0.533l0.933 2.533c-0.8-0.267 0.267-0.4 1.6-0.4v-2.667zM8.267 4.933c-0.133 0.133-0.267 0.267-0.267 0.267v0h-0.133c0 0.133 0.133 0 0.133 0.133v0c0 0-0.267 0-0.4 0v0 0 0 0c-0.133 0 0.4 0 0.4 0v0 0 0 0 0c0 0.133-0.267 0-0.267 0h-0.267l0.267 0.133h0.267c-1.333 0.667-1.867 1.333-2.533 2.267l2 1.6c0.667-0.8 1.467-1.6 2.267-2.133l-1.467-2.267zM3.2 11.2v0 0 0 0 0 0 0 0c0 0.133-0.133 0.133 0 0-0.133 0.133-0.133 0.133 0 0 0 0.133 0 0.133 0 0.133v0 0 0 0 0 0 0h-0.533l0.267 0.667c-0.133 0-0.267-0.533-0.267-0.533v0l0.267 0.533c-0.133 0-0.267-0.533-0.267-0.533v0l0.267 0.533c-0.133 0-0.267-0.533-0.267-0.533v0l0.133 0.533h-0.133c0.133 0 0-0.533 0-0.533v0l0.133 0.533h-0.133c0.133 0 0-0.4 0-0.4v0l0.133 0.4h-0.133c0.133 0 0-0.4 0-0.4v0 0 0 0 0 0 0l0.133 0.4h-0.133c0.133 0 0-0.4 0-0.4v0 0 0 0 0 0 0 0 0 0 0c0 0.133 0.133 0.4 0.133 0.4h-0.133c0.133 0 0-0.267 0-0.267v0 0 0l0.133 0.267h-0.133c0.133 0 0-0.267 0-0.267v0 0 0l0.133 0.267h-0.133c0.133 0 0-0.267 0-0.267v0 0 0 0 0 0 0 0 0c0 0.133 0.133 0.267 0.133 0.267v0 0-0.133c-0.133 0 0 0.133 0 0.133v0-0.133h0.267c-0.4 0.267-0.267 0.133-0.267 0.133v0 0.133c-0.133 0 0-0.133 0-0.133v0 0.133c-0.133 0.133 0-0.133 0-0.133v0 0.267c-0.133 0 0-0.267 0-0.267v0 0.267c-0.133 0-0.133-0.267-0.133-0.267v0 0.267c0 0.133 0-0.267 0-0.267v0 0c0 0 0 0.4 0 0.533v0 0 0 0 0 0 0 0 0 0 0 0c0 0.133 0-0.533 0-0.533v0 1.2c0 0 0-0.533 0-0.4v0 0 0 0.8h-0.267c0 0 0 0.267-0.133 0.533l2.667 0.133c0.133 0 0.4-1.067 0.667-2.133l-2.4-0.933zM5.2 18.4l-2.667 0.667c0.133 0.133 0.133 0.4 0.133 0.533v0.133l0.133 0.267v-0.4l0.133 0.267h-0.133v-0.267l0.133 0.267c0.267 1.333 0.8 1.867 1.2 2.8l2.267-1.333c-0.533-0.8-0.933-1.867-1.2-2.933v0zM8.4 23.867l-1.867 2.267c0.133 0 0.4 0.533 0.533 0.533h-0.267l-0.133-0.4v0.267l0.4 0.267v-0.133 0.267l-0.533-0.133v-0.133l0.267 0.267h0.267c0.8 0 1.733 1.067 2.667 1.6l1.2-2.533c-0.8-0.8-1.733-1.467-2.533-2.133v0zM17.333 26.667c-0.533 0-1.2 0-1.733 0s-1.067 0-1.467-0.133l-0.4 2.667c0.267 0 0.933 0.133 0.933 0.133v0 0 0 0 0 0 0 0 0 0 0 0 0 0 0 0 0 0 0 0 0 0 0 0 0 0 0 0 0 0 0 0 0 0 0 0 0 0 0 0 0 0 0 0 0 0 0 0 0 0 0 0 0 0 0 0 0 0 0 0 0 0 0 0 0 0 0 0 0 0 0 0 0 0 0 0 0 0 0 0 0 0 0 0 0 0 0 0 0 0 0 0 0 0 0 0 0 0 0 0 0 0 0 0 0 0 0 0 0 0 0 0 0 0 0 0 0 0 0 0 0 0 0 0 0 0 0 0 0 0 0 0 0 0 0 0 0 0 0 0 0 0 0 0 0 0 0 0 0 0 0 0 0 0 0 0 0 0 0 0 0 0 0 0 0 0 0 0 0 0 0 0 0 0 0 0 0 0 0 0 0 0 0 0 0 0 0 0 0 0 0 0 0 0 0 0 0 0 0 0 0 0 0 0 0 0 0 0 0 0 0 0 0 0 0 0 0 0 0 0 0 0 0h1.333c0.533 0 1.333 0 1.333-0.133v0 0 0h0.267l-0.267-2.533zM22.933 23.733c-0.8 0.8-1.6 1.333-2.667 1.867l1.2 2.4c0.133-0.133 0.4 0 0.533-0.133v0 0.133h0.267l0.267-0.4v0.133l-0.4 0.267v0.267l0.267-0.267v-0.133c0 0 0 0 0-0.133v0l-0.133 0.533 0.133-0.267v-0.267c0.267-0.133 0.667-0.4 0.933-0.667v0 0 0 0 0 0 0 0 0 0 0 0 0 0 0 0 0 0 0 0 0 0h0.267v0.133l-0.133 0.133h0.133l0.133-0.133v0.133l-0.533 0.267v-0.533l0.667-0.133-0.667 0.267v0.133l0.4-0.4h0.267l0.667 0.133v0.133h-0.533l-1.067-3.467zM26 18.133c-0.267 1.067-0.667 2.133-1.067 3.067l2.533 1.333c0.133-0.133 0.533-0.4 0.533-0.533v0l-0.267-0.667h0.133l0.267 0.533v-0.267l-0.4-0.267h0.267l0.267 0.533c0 0-0.267 0-0.133 0h0.4l-0.133-0.267h-0.133c0.4 0 0.4-1.6 0.533-2.533l-0.8-0.133h0.267l0.267-0.267h-0.267l-0.267 0.267v-0.133h0.267l-2.267-0.667zM28 11.2l-2.533 0.933c0.4 0.933 0.933 2 0.933 3.067l2.933-0.267v-0.133h-0.4c-0.133-1.333-0.267-1.333-0.667-2.667v0 0 0 0h-0.133c-0.133-0.133-0.133-0.4-0.133-0.4v0 0 0l0.133 0.267v-0.267h-0.133l0.133 0.4v-0.4l0.133 0.4v-0.4l0.133 0.4h-0.267c0-1.467-0.133-0.8-0.133-0.933v0zM22.933 4.933l-1.467 2.267c0.933 0.533 1.733 1.333 2.4 2.133l2-1.733v-0.533h-0.133l-0.133 0.533v-0.267c0 0 0.4-0.267 0.267-0.267v0 0.267l-0.267 0.267h0.133l0.133-0.267v-0.267l-0.267 0.267v0.133h0.133l0.267-0.533v0.133-0.267c0 0 0 0.133 0 0v0 0 0 0 0-0.133c-1.467-0.667-2.267-1.2-3.067-1.733v0zM16 2.667v2.667c0 0 1.867 0.133 2.8 0.4l0.667-2.533c-0.267-0.133-0.533-0.267-0.8-0.4v0c0 0 0-0.133-0.133-0.133v0 0 0 0 0h0.133v0.133l-0.267-0.133c-2.267 0-2.267 0-2.4 0 0.133 0 0.133 0 0 0 0.133 0 0.133 0 0 0 0.133 0 0.133 0 0 0 0.133 0 0.133 0 0 0 0.133 0 0.133 0 0 0 0.133 0 0.133 0 0 0 0.133 0 0.133 0 0 0v0c0.133 0 0.133 0 0 0 0.133 0 0.133 0 0 0 0.133 0 0.133 0 0 0 0.133 0 0.133 0 0 0v0 0 0 0 0 0 0 0 0 0 0 0 0 0 0 0 0 0 0 0 0 0 0 0 0c-0.133 0-0.133 0 0 0-0.133 0-0.133 0 0 0-0.133 0-0.133 0 0 0-0.133 0-0.133 0 0 0-0.133 0-0.133 0 0 0-0.133 0-0.133 0 0 0-0.133 0-0.133 0 0 0-0.133 0-0.133 0 0 0-0.133 0-0.133 0 0 0-0.133 0-0.133 0 0 0-0.133 0-0.133 0 0 0-0.133 0-0.133 0-0.133 0v0 0 0 0 0 0 0 0 0 0 0 0 0 0 0 0 0 0 0 0 0 0 0 0 0 0 0 0 0 0 0 0 0 0 0 0 0 0 0 0 0 0 0 0 0 0 0c-0.267 0 0.133 0 0.133 0v0z"></path>
</svg>
