<?xml version="1.0" encoding="utf-8"?>
<!-- Generator: Adobe Illustrator 20.0.0, SVG Export Plug-In . SVG Version: 6.00 Build 0)  -->
<svg version="1.1" id="Layer_1" xmlns="http://www.w3.org/2000/svg" xmlns:xlink="http://www.w3.org/1999/xlink" x="0px" y="0px"
	 width="24px" height="24px" viewBox="0 0 24 24" style="enable-background:new 0 0 24 24;" xml:space="preserve">
<style type="text/css">
	.st0{fill:#808080;}
	.st1{fill:none;}
	.st2{display:none;fill:none;}
</style>
<symbol  id="New_Symbol_14" viewBox="-12 -12 24 24">
	<g>
		<path class="st0" d="M-2,8h-6c-1.1,0-2-0.9-2-2V-6c0-1.1,0.9-2,2-2H8c1.1,0,2,0.9,2,2V4c0,1.1-0.9,2-2,2H0L-2,8z"/>
		<path class="st1" d="M-12,12h24v-24h-24V12z"/>
	</g>
	<rect x="-12" y="-12" class="st2" width="24" height="24"/>
</symbol>
<use xlink:href="#New_Symbol_14"  width="24" height="24" id="XMLID_324_" x="-12" y="-12" transform="matrix(1 0 0 -1 980 169)" style="overflow:visible;"/>
<g>
	<rect class="st1" width="24" height="24"/>
	<path class="st0" d="M16.9,8.9l-1,1l-2.1-2.1l1-1c0.2-0.2,0.6-0.2,0.8,0l1.3,1.3C17.1,8.3,17.1,8.6,16.9,8.9 M7.3,13.7l4.9-4.6
		l2.2,2.1L9.8,16H7.2L7.3,13.7"/>
	<g>
		<path class="st0" d="M12,20c-4.4,0-8-3.6-8-8s3.6-8,8-8s8,3.6,8,8S16.4,20,12,20 M12,2C6.5,2,2,6.5,2,12s4.5,10,10,10
			s10-4.5,10-10S17.5,2,12,2"/>
	</g>
</g>
</svg>
