<?xml version="1.0" encoding="utf-8"?>
<!-- Generator: Adobe Illustrator 20.0.0, SVG Export Plug-In . SVG Version: 6.00 Build 0)  -->
<svg version="1.1" id="Layer_1" xmlns="http://www.w3.org/2000/svg" xmlns:xlink="http://www.w3.org/1999/xlink" x="0px" y="0px"
	 width="30px" height="30px" viewBox="0 0 30 30" style="enable-background:new 0 0 30 30;" xml:space="preserve">
<style type="text/css">
	.st0{fill:#808080;}
	.st1{fill:none;}
	.st2{display:none;fill:none;}
	.st3{fill:#3C3D41;}
	.st4{fill:#FFFFFF;}
</style>
<symbol  id="New_Symbol_14" viewBox="-12 -12 24 24">
	<g>
		<path class="st0" d="M-2,8h-6c-1.1,0-2-0.9-2-2l0-12c0-1.1,0.9-2,2-2H8c1.1,0,2,0.9,2,2V4c0,1.1-0.9,2-2,2H0L-2,8z"/>
		<path class="st1" d="M-12,12h24v-24h-24V12z"/>
	</g>
	<rect x="-12" y="-12" class="st2" width="24" height="24"/>
</symbol>
<use xlink:href="#New_Symbol_14"  width="24" height="24" id="XMLID_324_" x="-12" y="-12" transform="matrix(1 0 0 -1 980 169)" style="overflow:visible;"/>
<g>
	<circle class="st3" cx="15" cy="15" r="15"/>
	<g>
		<path class="st4" d="M8,9v1h14V9 M21,13H9.3C8.9,13,8,13.5,8,13.9v2C8,16.3,8.9,17,9.3,17h12.1c0.4,0,0.6-0.7,0.6-1.1v-2
			C22,13.5,21.4,13,21,13 M8,21h14v-1H8V21z"/>
	</g>
</g>
</svg>
