<?xml version="1.0" encoding="utf-8"?>
<!-- Generator: Adobe Illustrator 20.0.0, SVG Export Plug-In . SVG Version: 6.00 Build 0)  -->
<svg version="1.1" id="Layer_1" xmlns="http://www.w3.org/2000/svg" xmlns:xlink="http://www.w3.org/1999/xlink" x="0px" y="0px"
	 width="24px" height="24px" viewBox="0 0 24 24" style="enable-background:new 0 0 24 24;" xml:space="preserve">
<style type="text/css">
	.st0{fill:#808080;}
	.st1{fill:none;}
	.st2{display:none;fill:none;}
	.st3{fill:#005EBC;}
</style>
<symbol  id="New_Symbol_14" viewBox="-12 -12 24 24">
	<g>
		<path class="st0" d="M-2,8h-6c-1.1,0-2-0.9-2-2l0-12c0-1.1,0.9-2,2-2H8c1.1,0,2,0.9,2,2V4c0,1.1-0.9,2-2,2H0L-2,8z"/>
		<path class="st1" d="M-12,12h24v-24h-24V12z"/>
	</g>
	<rect x="-12" y="-12" class="st2" width="24" height="24"/>
</symbol>
<use xlink:href="#New_Symbol_14"  width="24" height="24" id="XMLID_324_" x="-12" y="-12" transform="matrix(1 0 0 -1 980 169)" style="overflow:visible;"/>
<g>
	<path class="st1" d="M0,0h24v24H0V0z"/>
	<path class="st3" d="M19.4,16.1V8.7H7.9v7.4H19.4 M19.4,4.6c0.9,0,1.6,0.7,1.6,1.6v9.8c0,0.9-0.7,1.6-1.6,1.6H7.9
		c-0.9,0-1.6-0.7-1.6-1.6V6.3c0-0.9,0.7-1.6,1.6-1.6h0.8V3h1.6v1.6h6.5V3h1.6v1.6H19.4 M16.5,11.2l-3.6,3.6l-2.2-2.2l0.9-0.9
		l1.3,1.3l2.8-2.8L16.5,11.2 M4.6,19.4h11.5V21H4.6C3.7,21,3,20.3,3,19.4V9.5h1.6V19.4z"/>
</g>
</svg>
