<?xml version="1.0" encoding="utf-8"?>
<!-- Generator: Adobe Illustrator 20.0.0, SVG Export Plug-In . SVG Version: 6.00 Build 0)  -->
<svg version="1.1" id="Layer_1" xmlns="http://www.w3.org/2000/svg" xmlns:xlink="http://www.w3.org/1999/xlink" x="0px" y="0px"
	 width="24px" height="24px" viewBox="0 0 24 24" style="enable-background:new 0 0 24 24;" xml:space="preserve">
<style type="text/css">
	.st0{fill:#808080;}
	.st1{fill:none;}
	.st2{display:none;fill:none;}
	.st3{display:none;}
	.st4{display:inline;}
	.st5{fill:#333333;}
</style>
<symbol  id="New_Symbol_14" viewBox="-12 -12 24 24">
	<g>
		<path class="st0" d="M-2,8h-6c-1.1,0-2-0.9-2-2l0-12c0-1.1,0.9-2,2-2H8c1.1,0,2,0.9,2,2V4c0,1.1-0.9,2-2,2H0L-2,8z"/>
		<path class="st1" d="M-12,12h24v-24h-24V12z"/>
	</g>
	<rect x="-12" y="-12" class="st2" width="24" height="24"/>
</symbol>
<use xlink:href="#New_Symbol_14"  width="24" height="24" id="XMLID_324_" x="-12" y="-12" transform="matrix(1 0 0 -1 980 169)" style="overflow:visible;"/>
<g>
	<rect class="st1" width="24" height="24"/>
	<g class="st3">
		<g class="st4">
			<path class="st5" d="M16.7,3.4c-1.4-0.9-2.9-1.4-5-1.4c-5.5,0-10,4.5-10,10c0,5.5,4.5,10,10,10s10-4.5,10-10
				C21.7,8.3,19.7,5.1,16.7,3.4z M2.9,12C2.9,7,7,3,12,3v8.7l-6.6,6.5C3.9,16.6,2.9,14.4,2.9,12z"/>
		</g>
	</g>
	<path class="st0" d="M6.7,7.5L5.3,6.1C4.4,7.3,3.9,9,3.7,10h2C5.9,9,6.2,8.2,6.7,7.5 M11,5V3c-1,0.2-2.9,0.7-4.1,1.6l1.4,1.4
		c0.8-0.5,1.6-0.9,2.6-1 M3.7,11.9c0.2,1.4,0.7,2.7,1.6,3.9l1.4-1.4c-0.5-0.8-0.9-1.6-1-2.5 M8.4,17.4l4.6,4.5v-3.1
		c4-0.5,7-3.9,7-7.9S17,3.5,13,3v2c3,0.5,5,2.9,5,5.9s-2,5.4-5,5.9v-3.9L8.4,17.4z"/>
</g>
</svg>
