<?xml version="1.0" encoding="utf-8"?>
<!-- Generator: Adobe Illustrator 20.0.0, SVG Export Plug-In . SVG Version: 6.00 Build 0)  -->
<svg version="1.1" id="Layer_1" xmlns="http://www.w3.org/2000/svg" xmlns:xlink="http://www.w3.org/1999/xlink" x="0px" y="0px"
	 width="24px" height="24px" viewBox="0 0 24 24" style="enable-background:new 0 0 24 24;" xml:space="preserve">
<style type="text/css">
	.st0{fill:#808080;}
	.st1{fill:none;}
	.st2{display:none;fill:none;}
	.st3{fill:#005EBC;}
</style>
<symbol  id="New_Symbol_14" viewBox="-12 -12 24 24">
	<g>
		<path class="st0" d="M-2,8h-6c-1.1,0-2-0.9-2-2l0-12c0-1.1,0.9-2,2-2H8c1.1,0,2,0.9,2,2V4c0,1.1-0.9,2-2,2H0L-2,8z"/>
		<path class="st1" d="M-12,12h24v-24h-24V12z"/>
	</g>
	<rect x="-12" y="-12" class="st2" width="24" height="24"/>
</symbol>
<use xlink:href="#New_Symbol_14"  width="24" height="24" id="XMLID_324_" x="-12" y="-12" transform="matrix(1 0 0 -1 980 169)" style="overflow:visible;"/>
<g id="XMLID_311_">
	<path class="st1" d="M0,0h24v24H0V0z"/>
	<path class="st3" d="M20,6h-8l-2-2H4C2.9,4,2,4.9,2,6l0,12c0,1.1,0.9,2,2,2h16c1.1,0,2-0.9,2-2V8C22,6.9,21.1,6,20,6z M19,14h-3v3
		h-2v-3h-3v-2h3V9h2v3h3V14z"/>
</g>
</svg>
