<?xml version="1.0" encoding="utf-8"?>
<!-- Generator: Adobe Illustrator 20.0.0, SVG Export Plug-In . SVG Version: 6.00 Build 0)  -->
<svg version="1.1" id="Layer_1" xmlns="http://www.w3.org/2000/svg" xmlns:xlink="http://www.w3.org/1999/xlink" x="0px" y="0px"
	 width="24px" height="24px" viewBox="0 0 24 24" style="enable-background:new 0 0 24 24;" xml:space="preserve">
<style type="text/css">
	.st0{fill:#808080;}
	.st1{fill:none;}
	.st2{display:none;fill:none;}
	.st3{fill:#005EBC;}
</style>
<symbol  id="New_Symbol_14" viewBox="-12 -12 24 24">
	<g>
		<path class="st0" d="M-2,8h-6c-1.1,0-2-0.9-2-2l0-12c0-1.1,0.9-2,2-2H8c1.1,0,2,0.9,2,2V4c0,1.1-0.9,2-2,2H0L-2,8z"/>
		<path class="st1" d="M-12,12h24v-24h-24V12z"/>
	</g>
	<rect x="-12" y="-12" class="st2" width="24" height="24"/>
</symbol>
<use xlink:href="#New_Symbol_14"  width="24" height="24" id="XMLID_324_" x="-12" y="-12" transform="matrix(1 0 0 -1 980 169)" style="overflow:visible;"/>
<g>
	<path class="st1" d="M0,0h24v24H0V0z"/>
	<path class="st3" d="M21,10.7h-8v-8C17.4,2.7,21,6.3,21,10.7 M19,12.7c0,2.8-1.4,5.2-3.6,6.7l-3.9-6.7H19 M11,20.7
		c-2.8,0-5.2-1.4-6.7-3.6l6.5-3.8l3.7,6.5C13.5,20.4,12.3,20.7,11,20.7 M3,12.7c0-4.4,3.6-8,8-8v7.4l-7.2,4.1C3.3,15.2,3,14,3,12.7z
		"/>
</g>
</svg>
