<?xml version="1.0" encoding="utf-8"?>
<!-- Generator: Adobe Illustrator 20.0.0, SVG Export Plug-In . SVG Version: 6.00 Build 0)  -->
<svg version="1.1" id="Layer_1" xmlns="http://www.w3.org/2000/svg" xmlns:xlink="http://www.w3.org/1999/xlink" x="0px" y="0px"
	 width="24px" height="24px" viewBox="0 0 24 24" style="enable-background:new 0 0 24 24;" xml:space="preserve">
<style type="text/css">
	.st0{fill:none;}
	.st1{fill:#FE2145;}
</style>
<g>
	<path class="st0" d="M0,0h24v24H0V0z"/>
	<path class="st1" d="M11,9.4h2v-2h-2 M12.3,20.4c-4.4,0-8-3.6-8-8s3.6-8,8-8s8,3.6,8,8S16.7,20.4,12.3,20.4 M12.3,2.4
		c-5.5,0-10,4.5-10,10s4.5,10,10,10s10-4.5,10-10S17.9,2.4,12.3,2.4 M11,17h2v-6h-2V17z"/>
</g>
</svg>
