<?xml version="1.0" standalone="no"?>
<!DOCTYPE svg PUBLIC "-//W3C//DTD SVG 1.1//EN" "http://www.w3.org/Graphics/SVG/1.1/DTD/svg11.dtd" >
<svg>
<metadata>
Created by FontForge 20090622 at Thu Oct 13 08:30:32 2016
 By deploy user
Copyright (C) 1996, 2009 Hoefler &#38; Frere-Jones. http://www.typography.com
</metadata>
<defs>
<font id="Whitney-Book" horiz-adv-x="523" >
  <font-face 
    font-family="Whitney Book"
    font-weight="325"
    font-stretch="normal"
    units-per-em="1000"
    panose-1="0 0 0 0 0 0 0 0 0 0"
    ascent="750"
    descent="-250"
    x-height="473"
    cap-height="690"
    bbox="-94 -268 980 1012"
    underline-thickness="50"
    underline-position="-50"
    unicode-range="U+0020-U+FB04"
  />
<missing-glyph horiz-adv-x="500" 
d="M0 -200v1000h500v-1000h-500zM71 750l179 -390l179 390h-358zM50 -76l172 376l-172 376v-752zM450 676l-172 -376l172 -376v752zM250 240l-179 -390h358z" />
    <glyph glyph-name="f_f" unicode="ff" horiz-adv-x="597" 
d="M281 651q-18 4 -40 4q-72 0 -72 -73v-109h97l9 -56h-106v-417h-65v417h-72v56h72v114q0 64 35 95.5t98 31.5q14 0 34 -2zM579 651q-18 4 -40 4q-72 0 -72 -73v-109h97l9 -56h-106v-417h-65v417h-72v56h72v114q0 64 35 95.5t98 31.5q14 0 34 -2z" />
    <glyph glyph-name="fi" unicode="fi" horiz-adv-x="532" 
d="M462 634q0 -20 -14 -34t-33 -14t-33.5 14t-14.5 34t14.5 34t33.5 14t33 -14t14 -34zM447 0h-65v473h65v-473zM281 651q-18 4 -40 4q-72 0 -72 -73v-109h97l9 -56h-106v-417h-65v417h-72v56h72v114q0 64 35 95.5t98 31.5q14 0 34 -2z" />
    <glyph glyph-name="fl" unicode="fl" horiz-adv-x="532" 
d="M447 0h-65v706l65 12v-718zM281 651q-18 4 -40 4q-72 0 -72 -73v-109h97l9 -56h-106v-417h-65v417h-72v56h72v114q0 64 35 95.5t98 31.5q14 0 34 -2z" />
    <glyph glyph-name="f_f_i" unicode="ffi" horiz-adv-x="830" 
d="M760 634q0 -20 -14 -34t-33 -14t-33.5 14t-14.5 34t14.5 34t33.5 14t33 -14t14 -34zM745 0h-65v473h65v-473zM281 651q-18 4 -40 4q-72 0 -72 -73v-109h97l9 -56h-106v-417h-65v417h-72v56h72v114q0 64 35 95.5t98 31.5q14 0 34 -2zM579 651q-18 4 -40 4q-72 0 -72 -73
v-109h97l9 -56h-106v-417h-65v417h-72v56h72v114q0 64 35 95.5t98 31.5q14 0 34 -2z" />
    <glyph glyph-name="f_f_l" unicode="ffl" horiz-adv-x="830" 
d="M745 0h-65v706l65 12v-718zM281 651q-18 4 -40 4q-72 0 -72 -73v-109h97l9 -56h-106v-417h-65v417h-72v56h72v114q0 64 35 95.5t98 31.5q14 0 34 -2zM579 651q-18 4 -40 4q-72 0 -72 -73v-109h97l9 -56h-106v-417h-65v417h-72v56h72v114q0 64 35 95.5t98 31.5q14 0 34 -2
z" />
    <glyph glyph-name=".notdef" horiz-adv-x="500" 
d="M0 -200v1000h500v-1000h-500zM71 750l179 -390l179 390h-358zM50 -76l172 376l-172 376v-752zM450 676l-172 -376l172 -376v752zM250 240l-179 -390h358z" />
    <glyph glyph-name=".null" horiz-adv-x="0" 
 />
    <glyph glyph-name="nonmarkingreturn" horiz-adv-x="333" 
 />
    <glyph glyph-name="space" unicode=" " horiz-adv-x="226" 
 />
    <glyph glyph-name="exclam" unicode="!" horiz-adv-x="268" 
d="M174 690l-20 -490l-40 -9l-20 499h80zM173 0h-78v98h78v-98z" />
    <glyph glyph-name="quotedbl" unicode="&#x22;" horiz-adv-x="387" 
d="M317 676l-21 -195l-37 8l-22 187h80zM149 676l-21 -195l-38 8l-20 187h79z" />
    <glyph glyph-name="numbersign" unicode="#" horiz-adv-x="648" 
d="M522 672l-28 -176h110v-56h-119l-32 -204h121l9 -56h-139l-28 -182h-53l28 182h-185l-30 -187l-51 11l28 176h-109v56h118l32 204h-121l-9 56h139l29 182h53l-30 -182h186l30 187zM247 440l-32 -204h185l33 204h-186z" />
    <glyph glyph-name="dollar" unicode="$" horiz-adv-x="536" 
d="M358 743l-12 -69q51 -9 103 -30l-10 -62q-48 24 -103 36l-38 -245q95 -34 136.5 -77t41.5 -112q0 -86 -58.5 -137t-160.5 -51h-18l-18 -119l-48 11l18 112q-68 10 -137 41l9 62q71 -37 138 -47l42 273q-92 32 -133.5 71t-41.5 108q0 80 56 126t149 46q16 0 24 -1l12 76z
M415 179q0 47 -26.5 77.5t-99.5 57.5l-41 -263h15q73 0 112.5 35t39.5 93zM129 513q0 -47 27.5 -73t95.5 -51l37 236q-8 1 -23 1q-66 0 -101.5 -31t-35.5 -82z" />
    <glyph glyph-name="percent" unicode="%" horiz-adv-x="880" 
d="M366 494q0 -87 -43.5 -138.5t-110.5 -51.5t-111 51.5t-44 138.5q0 86 44 138t111 52t110.5 -52t43.5 -138zM249 -7l-51 13l217 338l214 339l52 -13l-217 -338zM823 182q0 -86 -44 -138t-111 -52t-110.5 52t-43.5 138t43.5 138t110.5 52t111 -52t44 -138zM307 494
q0 61 -25.5 101t-70.5 40t-70 -39.5t-25 -101.5t26 -102t71 -40t69.5 39.5t24.5 102.5zM763 182q0 62 -25 102t-70 40q-46 0 -70.5 -39.5t-24.5 -102.5q0 -61 25.5 -101t70.5 -40t69.5 39.5t24.5 101.5z" />
    <glyph glyph-name="ampersand" unicode="&#x26;" horiz-adv-x="683" 
d="M671 11l-71 -17l-110 110q-89 -115 -227 -115q-101 0 -160 51t-59 135q0 134 165 210q-38 40 -55.5 75t-17.5 81q0 69 49 114.5t131 45.5q87 0 163 -43l-13 -69q-82 52 -152 52q-51 0 -80 -27t-29 -70q0 -36 16.5 -66t56.5 -71l202 -204q39 78 57 199l63 -13
q-24 -138 -75 -231zM264 48q112 0 183 99l-198 197q-135 -57 -135 -163q0 -58 42 -95.5t108 -37.5z" />
    <glyph glyph-name="quotesingle" unicode="'" horiz-adv-x="219" 
d="M149 676l-21 -195l-38 8l-20 187h79z" />
    <glyph glyph-name="parenleft" unicode="(" horiz-adv-x="392" 
d="M349 -82l-66 -14q-104 92 -158.5 189.5t-54.5 217.5q0 254 253 416l11 -62q-99 -70 -146.5 -156t-47.5 -200q0 -205 209 -391z" />
    <glyph glyph-name="parenright" unicode=")" horiz-adv-x="392" 
d="M42 709l66 14q104 -92 158.5 -189.5t54.5 -217.5q0 -255 -253 -416l-11 62q100 70 147.5 155.5t47.5 200.5q0 206 -210 391z" />
    <glyph glyph-name="asterisk" unicode="*" horiz-adv-x="406" 
d="M357 576l-116 -51l64 -112l-17 -12l-85 97l-85 -97l-18 12l64 112l-115 51l6 20l124 -26l12 126h23l12 -126l124 26z" />
    <glyph glyph-name="plus" unicode="+" horiz-adv-x="570" 
d="M512 311h-198v-202h-58v202h-199v54h199v202h58v-202h198v-54z" />
    <glyph glyph-name="comma" unicode="," horiz-adv-x="219" 
d="M164 98l-96 -231l-35 9l51 222h80z" />
    <glyph glyph-name="hyphen" unicode="-" horiz-adv-x="364" 
d="M303 250h-242v66h242v-66z" />
    <glyph glyph-name="period" unicode="." horiz-adv-x="219" 
d="M148 0h-77v98h77v-98z" />
    <glyph glyph-name="slash" unicode="/" horiz-adv-x="517" 
d="M496 684l-472 -808l-59 12l472 809z" />
    <glyph glyph-name="zero" unicode="0" horiz-adv-x="616" 
d="M556 339q0 -161 -67 -256.5t-181 -95.5q-115 0 -181.5 94.5t-66.5 255.5t67 256.5t181 95.5q115 0 181.5 -94.5t66.5 -255.5zM488 338q0 135 -47 213.5t-133 78.5t-133 -78.5t-47 -213.5t47 -213.5t133 -78.5t133 78.5t47 213.5z" />
    <glyph glyph-name="one" unicode="1" horiz-adv-x="355" 
d="M249 0h-66v607l-145 -58l-9 54l166 76h54v-679z" />
    <glyph glyph-name="two" unicode="2" horiz-adv-x="535" 
d="M476 0h-426v49l249 265q54 58 75.5 99t21.5 88q0 61 -35.5 94.5t-98.5 33.5q-91 0 -184 -81l-10 66q89 75 198 75q93 0 146 -50t53 -134q0 -61 -26.5 -111t-90.5 -117l-208 -218h327z" />
    <glyph glyph-name="three" unicode="3" 
d="M464 183q0 -86 -64 -141t-166 -55q-107 0 -189 53l11 66q86 -59 182 -59q72 0 114.5 36.5t42.5 98.5q0 68 -48.5 106t-147.5 38h-30l-9 60h46q86 0 131 34.5t45 94.5q0 51 -35 82.5t-101 31.5q-96 0 -181 -65l-9 63q87 62 193 62q98 0 150 -48.5t52 -122.5
q0 -118 -129 -160q142 -41 142 -175z" />
    <glyph glyph-name="four" unicode="4" horiz-adv-x="593" 
d="M560 160h-111v-160h-62v160h-346v47l327 472h81v-464h111v-55zM387 215v391l-273 -391h273z" />
    <glyph glyph-name="five" unicode="5" horiz-adv-x="534" 
d="M480 208q0 -101 -69 -160.5t-172 -59.5q-109 0 -188 49l10 64q88 -55 180 -55q73 0 122.5 42t49.5 117q0 68 -41.5 107t-117.5 39q-67 0 -128 -26l-45 11l24 340h340l10 -59h-294l-16 -227q58 20 115 20q101 0 160.5 -55t59.5 -147z" />
    <glyph glyph-name="six" unicode="6" horiz-adv-x="568" 
d="M422 629q-258 -71 -291 -283q88 61 183 61q94 0 150 -54.5t56 -147.5q0 -97 -62.5 -157.5t-158.5 -60.5q-105 0 -171.5 77.5t-66.5 209.5q0 318 352 416zM303 349q-90 0 -176 -68v-4q0 -103 48 -167.5t125 -64.5q69 0 110.5 43t41.5 114q0 67 -38 107t-111 40z" />
    <glyph glyph-name="seven" unicode="7" horiz-adv-x="532" 
d="M478 626l-280 -633l-64 15l269 608h-348l-9 60h432v-50z" />
    <glyph glyph-name="eight" unicode="8" horiz-adv-x="571" 
d="M57 170q0 115 144 187q-118 53 -118 163q0 72 58.5 120.5t148.5 48.5q91 0 146.5 -47.5t55.5 -119.5q0 -101 -121 -168q70 -30 106.5 -73.5t36.5 -108.5q0 -79 -64.5 -132t-163.5 -53q-104 0 -166.5 52.5t-62.5 130.5zM123 174q0 -58 46 -94.5t119 -36.5q68 0 114 37
t46 93t-40 90t-147 70q-64 -26 -101 -67.5t-37 -91.5zM149 521q0 -50 35.5 -81.5t127.5 -62.5q114 56 114 142q0 50 -38 82.5t-100 32.5q-64 0 -101.5 -33.5t-37.5 -79.5z" />
    <glyph glyph-name="nine" unicode="9" horiz-adv-x="568" 
d="M136 47q260 58 299 272q-86 -59 -180 -59t-150 56t-56 152t61.5 158.5t159.5 62.5q106 0 171.5 -77t65.5 -210q0 -165 -96 -270t-265 -146zM266 319q94 0 176 66v14q0 104 -48 168t-125 64q-70 0 -111.5 -44t-41.5 -116q0 -70 38.5 -111t111.5 -41z" />
    <glyph glyph-name="colon" unicode=":" horiz-adv-x="227" 
d="M153 375h-78v98h78v-98zM153 0h-78v98h78v-98z" />
    <glyph glyph-name="semicolon" unicode=";" horiz-adv-x="227" 
d="M158 375h-78v98h78v-98zM160 98l-96 -231l-36 9l52 222h80z" />
    <glyph glyph-name="less" unicode="&#x3c;" horiz-adv-x="570" 
d="M496 89l-438 223v52l438 223v-64l-370 -184l370 -185v-65z" />
    <glyph glyph-name="equal" unicode="=" horiz-adv-x="604" 
d="M527 418h-450v60h450v-60zM527 198h-450v60h450v-60z" />
    <glyph glyph-name="greater" unicode="&#x3e;" horiz-adv-x="570" 
d="M512 312l-438 -223v64l370 184l-370 185v65l438 -223v-52z" />
    <glyph glyph-name="question" unicode="?" horiz-adv-x="498" 
d="M442 533q0 -72 -43.5 -117.5t-139.5 -94.5l-9 -121l-44 -10l-12 166l28 12q84 41 117 76.5t33 85.5q0 52 -35.5 81.5t-94.5 29.5q-95 0 -186 -73l-9 67q90 68 198 68q87 0 142 -46t55 -124zM267 0h-78v98h78v-98z" />
    <glyph glyph-name="at" unicode="@" horiz-adv-x="841" 
d="M605 47q-52 0 -83 26t-35 72q-44 -52 -77 -75t-69 -23q-43 0 -73 34.5t-30 94.5q0 116 67.5 192.5t156.5 76.5q58 0 123 -28l-36 -211q-5 -35 -5 -53q0 -32 17 -50.5t52 -18.5q57 0 96 60.5t39 166.5q0 135 -76.5 209.5t-208.5 74.5q-156 0 -263.5 -115.5t-107.5 -295.5
q0 -145 78 -220t212 -75q122 0 216 48l5 -29q-96 -48 -225 -48q-151 0 -236.5 84.5t-85.5 238.5q0 189 118 315.5t292 126.5q148 0 232 -84.5t84 -228.5q0 -120 -50.5 -192.5t-126.5 -72.5zM356 99q26 0 56 24t77 81l32 178q-32 13 -65 13q-62 0 -110 -59.5t-48 -152.5
q0 -84 58 -84z" />
    <glyph glyph-name="A" unicode="A" horiz-adv-x="691" 
d="M39 0l272 694h71l270 -686l-68 -15l-88 230h-301l-85 -223h-71zM345 614l-126 -330h253z" />
    <glyph glyph-name="B" unicode="B" horiz-adv-x="547" 
d="M496 199q0 -97 -65.5 -148t-179.5 -51h-159v690h160q104 0 158.5 -46.5t54.5 -125.5q0 -108 -105 -151q136 -38 136 -168zM397 515q0 55 -37 85t-110 30h-90v-240h88q71 0 110 34.5t39 90.5zM428 195q0 69 -46 103.5t-129 34.5h-93v-273h97q79 0 125 35.5t46 99.5z" />
    <glyph glyph-name="C" unicode="C" horiz-adv-x="638" 
d="M584 56q-92 -69 -210 -69q-140 0 -226.5 98.5t-86.5 258.5q0 159 88 259t230 100q109 0 194 -59l-11 -70q-90 67 -184 67q-113 0 -179.5 -81t-66.5 -214q0 -134 66.5 -215t178.5 -81q103 0 197 72z" />
    <glyph glyph-name="D" unicode="D" horiz-adv-x="701" 
d="M639 346q0 -159 -98 -252.5t-264 -93.5h-185v690h188q170 0 264.5 -93.5t94.5 -250.5zM568 345q0 137 -77.5 210t-209.5 73h-120v-566h120q134 0 210.5 72t76.5 211z" />
    <glyph glyph-name="E" unicode="E" horiz-adv-x="507" 
d="M462 0h-370v690h360v-63h-291v-235h230l10 -62h-240v-267h301v-63z" />
    <glyph glyph-name="F" unicode="F" horiz-adv-x="477" 
d="M438 627h-277v-246h222l10 -62h-232v-319h-69v690h346v-63z" />
    <glyph glyph-name="G" unicode="G" horiz-adv-x="694" 
d="M612 57q-107 -70 -227 -70q-151 0 -237.5 98t-86.5 259q0 160 87 259.5t231 99.5q118 0 204 -60l-12 -71q-86 69 -193 69q-114 0 -180 -80.5t-66 -215.5t67 -215.5t187 -80.5q86 0 158 44v206h-166l-10 63h244v-305z" />
    <glyph glyph-name="H" unicode="H" horiz-adv-x="705" 
d="M613 0h-69v330h-383v-330h-69v690h69v-298h383v298h69v-690z" />
    <glyph glyph-name="I" unicode="I" horiz-adv-x="268" 
d="M168 0h-69v690h69v-690z" />
    <glyph glyph-name="J" unicode="J" horiz-adv-x="364" 
d="M276 168q0 -86 -48 -130t-130 -44q-27 0 -61 6l-10 64q35 -10 72 -10q108 0 108 115v521h69v-522z" />
    <glyph glyph-name="K" unicode="K" horiz-adv-x="606" 
d="M589 9l-78 -16l-350 363v-356h-69v690h69v-314l320 314h89l-332 -322z" />
    <glyph glyph-name="L" unicode="L" horiz-adv-x="466" 
d="M437 0h-345v690h69v-626h266z" />
    <glyph glyph-name="M" unicode="M" horiz-adv-x="907" 
d="M831 0h-67l-45 592l-239 -596h-55l-239 596l-45 -592h-64l55 690h85l237 -602l238 602h84z" />
    <glyph glyph-name="N" unicode="N" horiz-adv-x="705" 
d="M613 0h-53l-403 581v-581h-65v690h65l391 -563v563h65v-690z" />
    <glyph glyph-name="O" unicode="O" horiz-adv-x="745" 
d="M684 346q0 -159 -87 -259t-226 -100q-138 0 -224 99.5t-86 257.5q0 159 87 259t225 100q139 0 225 -99t86 -258zM613 344q0 133 -66 215t-175 82q-108 0 -174 -81.5t-66 -213.5q0 -133 66 -215t175 -82q108 0 174 81.5t66 213.5z" />
    <glyph glyph-name="P" unicode="P" horiz-adv-x="531" 
d="M489 496q0 -99 -66.5 -152t-175.5 -53h-86v-291h-69v690h170q107 0 167 -51t60 -143zM419 494q0 135 -161 135h-97v-277h89q80 0 124.5 35.5t44.5 106.5z" />
    <glyph glyph-name="Q" unicode="Q" horiz-adv-x="747" 
d="M684 346q0 -136 -64.5 -228.5t-173.5 -116.5l217 -81l-13 -65l-363 141q-226 88 -226 348q0 159 87 259t225 100q139 0 225 -99t86 -258zM613 344q0 134 -66 215.5t-175 81.5t-174.5 -81t-65.5 -215t66.5 -216.5t174.5 -82.5q109 0 174.5 82t65.5 216z" />
    <glyph glyph-name="R" unicode="R" horiz-adv-x="567" 
d="M544 8l-72 -15l-220 308h-91v-301h-69v690h175q103 0 162.5 -50.5t59.5 -139.5q0 -77 -44.5 -125.5t-116.5 -64.5zM419 496q0 63 -40 98t-116 35h-102v-269h90q78 0 123 35.5t45 100.5z" />
    <glyph glyph-name="S" unicode="S" horiz-adv-x="512" 
d="M458 182q0 -87 -60.5 -138.5t-153.5 -51.5q-101 0 -183 43l10 70q81 -52 176 -52q62 0 102 33.5t40 90.5q0 51 -30 82t-109 66q-102 45 -141 86.5t-39 112.5q0 77 56 125.5t142 48.5q90 0 152 -36l-10 -69q-66 44 -145 44q-59 0 -92.5 -31t-33.5 -78q0 -46 29 -74.5
t110 -64.5q99 -43 139.5 -88t40.5 -119z" />
    <glyph glyph-name="T" unicode="T" horiz-adv-x="579" 
d="M550 627h-226v-627h-69v627h-222v63h508z" />
    <glyph glyph-name="U" unicode="U" horiz-adv-x="681" 
d="M600 263q0 -126 -70 -200t-191 -74q-120 0 -189 73.5t-69 195.5v432h69v-423q0 -99 48.5 -157.5t141.5 -58.5q92 0 141.5 56.5t49.5 155.5v427h69v-427z" />
    <glyph glyph-name="V" unicode="V" horiz-adv-x="680" 
d="M641 690l-271 -694h-63l-268 686l69 15l232 -612l228 605h73z" />
    <glyph glyph-name="W" unicode="W" horiz-adv-x="1026" 
d="M980 690l-208 -692h-60l-200 597l-199 -597h-58l-207 684l68 15l172 -591l190 584h71l192 -584l169 584h70z" />
    <glyph glyph-name="X" unicode="X" horiz-adv-x="635" 
d="M596 9l-69 -15l-211 317l-204 -311h-76l242 359l-218 322l69 14l188 -285l183 280h76l-220 -328z" />
    <glyph glyph-name="Y" unicode="Y" horiz-adv-x="628" 
d="M595 690l-248 -404v-286h-69v286l-244 397l71 14l209 -349l203 342h78z" />
    <glyph glyph-name="Z" unicode="Z" horiz-adv-x="598" 
d="M550 0h-498v50l408 580h-379l-9 60h471v-50l-407 -580h405z" />
    <glyph glyph-name="bracketleft" unicode="[" horiz-adv-x="407" 
d="M352 -105h-255v795h250v-52h-187v-691h184z" />
    <glyph glyph-name="backslash" unicode="\" horiz-adv-x="517" 
d="M552 -112l-59 -13l-472 809l59 12z" />
    <glyph glyph-name="bracketright" unicode="]" horiz-adv-x="407" 
d="M54 690h255v-795h-250v52h187v691h-184z" />
    <glyph glyph-name="asciicircum" unicode="^" horiz-adv-x="456" 
d="M361 550h-42l-92 83l-92 -83h-42l103 145h62z" />
    <glyph glyph-name="underscore" unicode="_" horiz-adv-x="466" 
d="M465 -105h-464v54h464v-54z" />
    <glyph glyph-name="grave" unicode="`" horiz-adv-x="456" 
d="M311 550h-45l-136 134l86 19z" />
    <glyph glyph-name="a" unicode="a" horiz-adv-x="489" 
d="M416 0h-50l-11 63q-78 -73 -167 -73q-63 0 -102 34t-39 95q0 83 71.5 125.5t232.5 58.5v31q0 91 -98 91q-76 0 -163 -42l-9 59q94 41 176 41q159 0 159 -146v-337zM351 117v134q-90 -9 -144 -27.5t-74 -42.5t-20 -58q0 -37 23 -57t62 -20q77 0 153 71z" />
    <glyph glyph-name="b" unicode="b" horiz-adv-x="528" 
d="M479 250q0 -125 -63.5 -190.5t-166.5 -65.5q-81 0 -172 31v681l66 12v-307q66 72 146 72q82 0 136 -60t54 -173zM412 247q0 84 -36 130.5t-94 46.5q-69 0 -139 -82v-272q47 -19 109 -19q74 0 117 49t43 147z" />
    <glyph glyph-name="c" unicode="c" horiz-adv-x="465" 
d="M422 43q-69 -53 -160 -53q-93 0 -153.5 66t-60.5 180q0 116 61.5 181.5t156.5 65.5q86 0 152 -48l-11 -66q-68 57 -143 57q-66 0 -107.5 -50t-41.5 -139q0 -88 42.5 -138.5t110.5 -50.5q79 0 145 56z" />
    <glyph glyph-name="d" unicode="d" horiz-adv-x="531" 
d="M454 0h-50l-12 69q-66 -79 -152 -79q-83 0 -137 59.5t-54 173.5q0 124 62 190.5t154 66.5q70 0 123 -24v250l66 12v-718zM388 134v261q-55 28 -121 28q-67 0 -109 -50.5t-42 -146.5q0 -84 36 -130.5t94 -46.5q72 0 142 85z" />
    <glyph glyph-name="e" unicode="e" horiz-adv-x="491" 
d="M442 57q-79 -67 -181 -67q-96 0 -154.5 64t-58.5 183q0 112 57 179t146 67q92 0 142 -67t50 -170v-14h-329q2 -88 41 -136.5t110 -48.5q85 0 167 70zM250 430q-53 0 -88.5 -38t-45.5 -108h259q-5 66 -37 106t-88 40z" />
    <glyph glyph-name="f" unicode="f" horiz-adv-x="298" 
d="M281 651q-18 4 -40 4q-72 0 -72 -73v-109h97l9 -56h-106v-417h-65v417h-72v56h72v114q0 64 35 95.5t98 31.5q14 0 34 -2z" />
    <glyph glyph-name="g" unicode="g" horiz-adv-x="502" 
d="M464 -38q0 -66 -64.5 -104t-160.5 -38t-156 32t-60 91q0 70 108 125q-35 22 -35 50q0 34 47 63q-40 20 -63.5 56.5t-23.5 84.5q0 72 51.5 116.5t123.5 44.5q71 0 120 -40l118 38l11 -65l-95 -10q25 -37 25 -84q0 -73 -52 -117t-125 -44q-23 0 -42 4q-30 -17 -30 -34
q0 -14 20 -22t86 -20l35 -7q83 -15 122.5 -42.5t39.5 -77.5zM241 35q-9 2 -21 4t-20.5 4l-16.5 4q-95 -44 -95 -100q0 -36 42 -56.5t113 -20.5t114.5 24t43.5 60q0 28 -25.5 44.5t-88.5 28.5zM345 322q0 48 -32 80t-82 32t-80 -32t-30 -82q0 -47 30.5 -78.5t81.5 -31.5
t81.5 31.5t30.5 80.5z" />
    <glyph glyph-name="h" unicode="h" 
d="M450 0h-66v326q0 98 -88 98q-69 0 -153 -82v-342h-66v706l66 12v-312q88 77 166 77q69 0 105 -37.5t36 -106.5v-339z" />
    <glyph glyph-name="i" unicode="i" horiz-adv-x="234" 
d="M164 634q0 -20 -14 -34t-33 -14t-33.5 14t-14.5 34t14.5 34t33.5 14t33 -14t14 -34zM149 0h-65v473h65v-473z" />
    <glyph glyph-name="j" unicode="j" horiz-adv-x="234" 
d="M164 634q0 -20 -14 -34t-33 -14t-33.5 14t-14.5 34t14.5 34t33.5 14t33 -14t14 -34zM149 -73q0 -54 -29 -80.5t-78 -26.5q-26 0 -38 3l-10 59q16 -4 39 -4q51 0 51 56v539h65v-546z" />
    <glyph glyph-name="k" unicode="k" horiz-adv-x="466" 
d="M450 6l-72 -13l-235 258v-251h-66v706l66 12v-448l206 203h85l-221 -211z" />
    <glyph glyph-name="l" unicode="l" horiz-adv-x="234" 
d="M149 0h-65v706l65 12v-718z" />
    <glyph glyph-name="m" unicode="m" horiz-adv-x="819" 
d="M746 0h-66v326q0 98 -86 98q-67 0 -150 -81v-343h-65v326q0 98 -86 98q-68 0 -150 -80v-344h-66v473h51l11 -68q88 78 167 78q103 0 130 -82q91 82 172 82q69 0 103.5 -37.5t34.5 -106.5v-339z" />
    <glyph glyph-name="n" unicode="n" 
d="M450 0h-66v326q0 98 -88 98q-69 0 -153 -82v-342h-66v473h51l11 -70q90 80 170 80q69 0 105 -38t36 -107v-338z" />
    <glyph glyph-name="o" unicode="o" 
d="M475 236q0 -114 -60.5 -180t-154.5 -66q-93 0 -152.5 66t-59.5 180q0 115 60 181t152 66q95 0 155 -66t60 -181zM407 236q0 87 -40 139t-107 52q-66 0 -105.5 -51t-39.5 -140q0 -86 40 -138t105 -52q67 0 107 51t40 139z" />
    <glyph glyph-name="p" unicode="p" horiz-adv-x="531" 
d="M482 250q0 -123 -62 -189.5t-154 -66.5q-67 0 -123 23v-189l-66 -11v656h51l11 -68q69 78 153 78q82 0 136 -60t54 -173zM415 247q0 84 -36 130.5t-94 46.5q-72 0 -142 -85v-261q58 -28 121 -28q67 0 109 51t42 146z" />
    <glyph glyph-name="q" unicode="q" horiz-adv-x="528" 
d="M451 -172l-66 -11v245q-66 -72 -146 -72q-82 0 -136 59.5t-54 173.5q0 125 63.5 191t166.5 66q75 0 172 -31v-621zM385 132v271q-55 20 -109 20q-73 0 -116.5 -49.5t-43.5 -147.5q0 -84 36 -130.5t94 -46.5q70 0 139 83z" />
    <glyph glyph-name="r" unicode="r" horiz-adv-x="344" 
d="M320 421q-56 -4 -104 -39t-73 -85v-297h-66v473h49l15 -97q69 104 168 107z" />
    <glyph glyph-name="s" unicode="s" horiz-adv-x="438" 
d="M391 128q0 -64 -47 -100.5t-129 -36.5q-93 0 -170 43l11 64q80 -51 165 -51q50 0 78.5 20t28.5 56q0 35 -25.5 54.5t-96.5 38.5q-81 21 -115.5 51.5t-34.5 87.5q0 56 44 92t117 36q76 0 147 -32l-11 -63q-69 37 -138 37q-47 0 -71.5 -18.5t-24.5 -48.5q0 -29 23 -46.5
t83 -33.5q88 -24 127 -56.5t39 -93.5z" />
    <glyph glyph-name="t" unicode="t" horiz-adv-x="330" 
d="M289 0q-28 -8 -66 -8q-123 0 -123 116v309h-73v56h73v164l65 11v-175h109l9 -56h-118v-298q0 -36 16 -52.5t54 -16.5q17 0 44 5z" />
    <glyph glyph-name="u" unicode="u" 
d="M446 0h-51l-11 70q-90 -80 -170 -80q-70 0 -105.5 38t-35.5 107v338h66v-326q0 -97 88 -97q70 0 153 81v342h66v-473z" />
    <glyph glyph-name="v" unicode="v" horiz-adv-x="469" 
d="M440 473l-175 -477h-63l-172 471l67 12l138 -402l136 396h69z" />
    <glyph glyph-name="w" unicode="w" horiz-adv-x="728" 
d="M696 473l-157 -477h-58l-118 388l-117 -388h-57l-157 473l64 12l122 -397l118 391h57l119 -391l117 389h67z" />
    <glyph glyph-name="x" unicode="x" horiz-adv-x="470" 
d="M435 5l-66 -12l-135 204l-128 -197h-71l164 243l-154 225l65 13l125 -190l120 182h71l-156 -228z" />
    <glyph glyph-name="y" unicode="y" horiz-adv-x="480" 
d="M450 473l-201 -535q-24 -66 -57 -92t-85 -26q-8 0 -29 3l-10 59q22 -4 38 -4q31 0 50.5 16t33.5 54l20 49l-179 470l65 12l146 -402l139 396h69z" />
    <glyph glyph-name="z" unicode="z" horiz-adv-x="449" 
d="M407 0h-366v51l282 367h-258l-9 55h343v-51l-282 -367h281z" />
    <glyph glyph-name="braceleft" unicode="{" horiz-adv-x="469" 
d="M415 -105h-97q-143 0 -143 130q0 23 6 68.5t6 70.5q0 103 -106 103h-29l-8 51h38q105 0 105 102q0 24 -6 69.5t-6 68.5q0 132 143 132h91v-52h-89q-82 0 -82 -79q0 -20 6.5 -68t6.5 -70q0 -58 -26 -87.5t-75 -40.5v-2q49 -11 75 -40t26 -88q0 -22 -6.5 -70.5t-6.5 -68.5
q0 -77 81 -77h87z" />
    <glyph glyph-name="bar" unicode="|" horiz-adv-x="267" 
d="M163 -179l-59 -10v902l59 10v-902z" />
    <glyph glyph-name="braceright" unicode="}" horiz-adv-x="469" 
d="M54 690h97q143 0 143 -130q0 -23 -6 -68.5t-6 -70.5q0 -103 105 -103h30l8 -51h-38q-105 0 -105 -103q0 -24 6 -69.5t6 -68.5q0 -131 -143 -131h-92v52h90q82 0 82 78q0 20 -6.5 68t-6.5 70q0 106 101 128v2q-49 12 -75 41.5t-26 87.5q0 22 6.5 70.5t6.5 68.5
q0 77 -81 77h-87z" />
    <glyph glyph-name="asciitilde" unicode="~" horiz-adv-x="408" 
d="M352 328q-15 -102 -76 -102q-29 0 -75 25q-48 26 -64 26q-25 0 -36 -53l-45 9q15 103 76 103q28 0 75 -26q50 -25 65 -25q23 0 36 53z" />
    <glyph glyph-name="uni00A0" unicode="&#xa0;" horiz-adv-x="176" 
 />
    <glyph glyph-name="exclamdown" unicode="&#xa1;" horiz-adv-x="268" 
d="M173 592h-78v98h78v-98zM174 0h-80l20 490l40 9z" />
    <glyph glyph-name="cent" unicode="&#xa2;" horiz-adv-x="489" 
d="M432 147q-70 -51 -161 -51h-16l-16 -106l-48 11l16 104q-68 19 -109.5 79.5t-41.5 151.5q0 111 62.5 177t159.5 66h3l17 106l49 -11l-16 -100q53 -10 97 -40l-10 -61q-50 38 -97 47l-58 -370h15q78 0 146 53zM119 337q0 -67 26 -112.5t72 -63.5l56 364q-72 -2 -113 -52
t-41 -136z" />
    <glyph glyph-name="sterling" unicode="&#xa3;" horiz-adv-x="544" 
d="M61 362h98l47 151q29 91 77.5 133.5t128.5 42.5q37 0 79 -10l-10 -60q-34 9 -75 9q-54 0 -86 -31t-54 -102l-42 -133h184l9 -59h-211l-76 -244h355l9 -59h-433v47l79 256h-79v59z" />
    <glyph glyph-name="yen" unicode="&#xa5;" horiz-adv-x="614" 
d="M108 243v51h158l-222 373l64 16l200 -350l194 343h72l-228 -382h154l9 -51h-172v-92h167v-52h-167v-99h-61v99h-163l-9 52h172v92h-168z" />
    <glyph glyph-name="section" unicode="&#xa7;" horiz-adv-x="553" 
d="M496 354q0 -48 -33 -93l-55 11q27 38 27 73q0 29 -22 46t-79 31l-75 20q-77 19 -110.5 45t-33.5 76q0 53 45 87t115 34q81 0 154 -29l-10 -61q-70 36 -147 36q-44 0 -69 -18t-25 -46q0 -25 20 -40t72 -29l94 -24q68 -18 100 -45.5t32 -73.5zM57 322q0 48 33 93l55 -11
q-27 -38 -27 -73q0 -29 22 -46t78 -31l76 -20q77 -19 110.5 -45t33.5 -76q0 -53 -45 -87t-115 -34q-81 0 -154 29l10 61q70 -36 147 -36q44 0 69 18t25 46q0 25 -20 40t-72 29l-94 24q-68 18 -100 45.5t-32 73.5z" />
    <glyph glyph-name="dieresis" unicode="&#xa8;" horiz-adv-x="456" 
d="M356 559h-83v89h83v-89zM183 559h-82v89h82v-89z" />
    <glyph glyph-name="copyright" unicode="&#xa9;" horiz-adv-x="806" 
d="M747 345q0 -158 -95 -258t-249 -100q-155 0 -250 99.5t-95 258.5q0 158 95 258t249 100q155 0 250 -99.5t95 -258.5zM713 345q0 149 -86.5 239t-224.5 90q-139 0 -224 -90t-85 -239t86 -239t225 -90t224 90t85 239zM537 187q-59 -42 -126 -42q-80 0 -130 56.5t-50 146.5
t50.5 147t130.5 57q62 0 118 -36l-9 -54q-53 41 -109 41q-58 0 -93 -43t-35 -112t35 -112t93 -43q57 0 117 45z" />
    <glyph glyph-name="ordfeminine" unicode="&#xaa;" horiz-adv-x="393" 
d="M313 359h-40l-6 38q-51 -44 -106 -44q-43 0 -69 23.5t-26 63.5q0 54 47.5 84t149.5 39v17q0 56 -63 56q-46 0 -105 -27l-7 46q62 25 116 25q109 0 109 -98v-223zM321 230h-252v47h245zM263 438v85q-82 -8 -114.5 -28t-32.5 -52q0 -22 14 -34.5t39 -12.5q46 0 94 42z" />
    <glyph glyph-name="guillemotleft" unicode="&#xab;" horiz-adv-x="514" 
d="M259 473l-144 -236l140 -230l-49 -12l-167 242l164 236h56zM460 473l-144 -236l140 -230l-49 -12l-167 242l164 236h56z" />
    <glyph glyph-name="registered" unicode="&#xae;" horiz-adv-x="566" 
d="M510 467q0 -102 -63.5 -167t-163.5 -65q-101 0 -163.5 65t-62.5 168q0 102 63 167t164 65q100 0 163 -65t63 -168zM484 467q0 94 -56.5 152t-144.5 58t-144 -57.5t-56 -151.5t56 -152t144 -58t144.5 57.5t56.5 151.5zM390 353l-39 -9l-77 110h-28v-107h-36v258h69
q41 0 65 -20t24 -55q0 -55 -54 -71zM331 528q0 43 -53 43h-33v-87h32q54 0 54 44z" />
    <glyph glyph-name="macron" unicode="&#xaf;" horiz-adv-x="456" 
d="M358 577h-260v56h260v-56z" />
    <glyph glyph-name="degree" unicode="&#xb0;" horiz-adv-x="428" 
d="M372 523q0 -69 -45 -113.5t-113 -44.5q-69 0 -114 44.5t-45 113.5q0 68 45.5 113t113.5 45t113 -45t45 -113zM319 523q0 47 -30 79t-76 32q-45 0 -75 -32t-30 -79t30 -79t76 -32t75.5 31.5t29.5 79.5z" />
    <glyph glyph-name="plusminus" unicode="&#xb1;" horiz-adv-x="540" 
d="M456 379h-157v-161h-58v161h-157v53h157v160h58v-160h157v-53zM488 113h-436v55h436v-55z" />
    <glyph glyph-name="two.sup" unicode="&#xb2;" horiz-adv-x="360" 
d="M318 411h-273v44l146 128q58 51 58 91q0 28 -20.5 45.5t-54.5 17.5q-51 0 -113 -40l-7 48q61 40 125 40q60 0 94 -30t34 -75q0 -33 -18 -60.5t-58 -61.5l-115 -98h193z" />
    <glyph glyph-name="three.sup" unicode="&#xb3;" horiz-adv-x="360" 
d="M307 509q0 -48 -39.5 -77.5t-102.5 -29.5q-68 0 -121 30l8 47q58 -30 113 -30q38 0 61.5 17.5t23.5 46.5q0 66 -112 66h-25l-7 45h36q101 0 101 61q0 25 -19.5 39t-54.5 14q-58 0 -111 -33l-7 46q60 34 120 34q61 0 95 -25.5t34 -67.5q0 -66 -84 -90q91 -23 91 -93z" />
    <glyph glyph-name="acute" unicode="&#xb4;" horiz-adv-x="456" 
d="M326 684l-136 -134h-46l97 153z" />
    <glyph glyph-name="paragraph" unicode="&#xb6;" horiz-adv-x="527" 
d="M430 0h-60v626h-82v-143l-30 -183q-101 4 -158 52t-57 139q0 88 58 136.5t159 48.5h170v-676z" />
    <glyph glyph-name="periodcentered" unicode="&#xb7;" horiz-adv-x="214" 
d="M146 234h-78v98h78v-98z" />
    <glyph glyph-name="cedilla" unicode="&#xb8;" horiz-adv-x="456" 
d="M296 -82l-122 -114h-46l84 134z" />
    <glyph glyph-name="one.sup" unicode="&#xb9;" horiz-adv-x="360" 
d="M320 411h-252v46h99v273l-98 -37l-7 44l120 48h39v-328h91z" />
    <glyph glyph-name="ordmasculine" unicode="&#xba;" horiz-adv-x="395" 
d="M339 517q0 -74 -38.5 -119t-103.5 -45q-64 0 -103 45.5t-39 118.5q0 72 39 117.5t103 45.5q65 0 103.5 -45t38.5 -118zM333 230h-268v47h260zM286 517q0 51 -22.5 84.5t-66.5 33.5q-43 0 -66 -33.5t-23 -84.5q0 -52 23 -85.5t66 -33.5q44 0 66.5 33.5t22.5 85.5z" />
    <glyph glyph-name="guillemotright" unicode="&#xbb;" horiz-adv-x="514" 
d="M474 236l-163 -236h-56l143 236l-139 231l49 11zM274 236l-164 -236h-56l144 236l-140 231l49 11z" />
    <glyph glyph-name="onequarter" unicode="&#xbc;" horiz-adv-x="810" 
d="M320 311h-252v46h99v273l-98 -37l-7 44l120 48h39v-328h91zM764 80h-58v-83h-49v83h-186v38l165 250h70v-247h58v-41zM657 121v121l1 80h-5l-37 -61l-60 -91l-31 -46l1 -4l49 1h82zM248 -8l-47 13l209 342l202 340l47 -13l-210 -342z" />
    <glyph glyph-name="onehalf" unicode="&#xbd;" horiz-adv-x="810" 
d="M320 311h-252v46h99v273l-98 -37l-7 44l120 48h39v-328h91zM768 0h-273v44l146 128q58 51 58 91q0 28 -20.5 45.5t-54.5 17.5q-51 0 -113 -40l-7 48q61 40 125 40q60 0 94 -30t34 -75q0 -33 -18 -60.5t-58 -61.5l-115 -98h193zM233 -8l-47 13l209 342l202 340l47 -13
l-210 -342z" />
    <glyph glyph-name="threequarters" unicode="&#xbe;" horiz-adv-x="810" 
d="M307 409q0 -48 -39.5 -77.5t-102.5 -29.5q-68 0 -121 30l8 47q58 -30 113 -30q38 0 61.5 17.5t23.5 46.5q0 66 -112 66h-25l-7 45h36q101 0 101 61q0 25 -19.5 39t-54.5 14q-58 0 -111 -33l-7 46q60 34 120 34q61 0 95 -25.5t34 -67.5q0 -66 -84 -90q91 -23 91 -93z
M764 80h-58v-83h-49v83h-186v38l165 250h70v-247h58v-41zM657 121v121l1 80h-5l-37 -61l-60 -91l-31 -46l1 -4l49 1h82zM238 -8l-47 13l209 342l202 340l47 -13l-210 -342z" />
    <glyph glyph-name="questiondown" unicode="&#xbf;" horiz-adv-x="498" 
d="M57 157q0 72 43.5 117.5t138.5 94.5l9 121l44 10l12 -166l-28 -12q-84 -41 -117 -76.5t-33 -85.5q0 -52 35.5 -81.5t94.5 -29.5q95 0 186 73l9 -67q-90 -68 -198 -68q-87 0 -141.5 46t-54.5 124zM231 690h78v-98h-78v98z" />
    <glyph glyph-name="Agrave" unicode="&#xc0;" horiz-adv-x="691" 
d="M39 0l272 694h71l270 -686l-68 -15l-88 230h-301l-85 -223h-71zM345 614l-126 -330h253zM373 762h-45l-136 134l86 19z" />
    <glyph glyph-name="Aacute" unicode="&#xc1;" horiz-adv-x="691" 
d="M39 0l272 694h71l270 -686l-68 -15l-88 230h-301l-85 -223h-71zM345 614l-126 -330h253zM498 896l-136 -134h-46l97 153z" />
    <glyph glyph-name="Acircumflex" unicode="&#xc2;" horiz-adv-x="691" 
d="M39 0l272 694h71l270 -686l-68 -15l-88 230h-301l-85 -223h-71zM345 614l-126 -330h253zM479 756h-42l-92 83l-92 -83h-42l103 145h62z" />
    <glyph glyph-name="Atilde" unicode="&#xc3;" horiz-adv-x="691" 
d="M39 0l272 694h71l270 -686l-68 -15l-88 230h-301l-85 -223h-71zM345 614l-126 -330h253zM497 871q-15 -103 -76 -103q-28 0 -75 25q-51 26 -64 26q-23 0 -36 -53l-44 9q15 104 76 104q26 0 75 -26q49 -25 63 -25q24 0 37 52z" />
    <glyph glyph-name="Adieresis" unicode="&#xc4;" horiz-adv-x="691" 
d="M39 0l272 694h71l270 -686l-68 -15l-88 230h-301l-85 -223h-71zM345 614l-126 -330h253zM473 771h-83v89h83v-89zM300 771h-82v89h82v-89z" />
    <glyph glyph-name="Aring" unicode="&#xc5;" horiz-adv-x="691" 
d="M444 732q0 -55 -45 -82l253 -642l-67 -15l-89 230h-302l-85 -223h-70l254 649q-46 28 -46 83q0 41 28.5 70t70.5 29t70 -28.5t28 -70.5zM345 614l-127 -330h254zM404 732q0 26 -16.5 44t-41.5 18t-42 -18t-17 -44t17 -43.5t42 -17.5t41.5 17.5t16.5 43.5z" />
    <glyph glyph-name="AE" unicode="&#xc6;" horiz-adv-x="873" 
d="M10 0l410 690h397v-62h-291v-236h231l9 -62h-240v-268h301v-62h-368v223h-243l-131 -223h-75zM251 283h208v351z" />
    <glyph glyph-name="Ccedilla" unicode="&#xc7;" horiz-adv-x="638" 
d="M584 56q-92 -69 -210 -69q-140 0 -226.5 98.5t-86.5 258.5q0 159 88 259t230 100q109 0 194 -59l-11 -70q-90 67 -184 67q-113 0 -179.5 -81t-66.5 -214q0 -134 66.5 -215t178.5 -81q103 0 197 72zM422 -84l-122 -114h-46l84 134z" />
    <glyph glyph-name="Egrave" unicode="&#xc8;" horiz-adv-x="507" 
d="M462 0h-370v690h360v-63h-291v-235h230l10 -62h-240v-267h301v-63zM302 752h-45l-136 134l86 19z" />
    <glyph glyph-name="Eacute" unicode="&#xc9;" horiz-adv-x="507" 
d="M426 886l-136 -134h-46l97 153zM462 0h-370v690h360v-63h-291v-235h230l10 -62h-240v-267h301v-63z" />
    <glyph glyph-name="Ecircumflex" unicode="&#xca;" horiz-adv-x="507" 
d="M407 752h-42l-92 83l-92 -83h-42l103 145h62zM462 0h-370v690h360v-63h-291v-235h230l10 -62h-240v-267h301v-63z" />
    <glyph glyph-name="Edieresis" unicode="&#xcb;" horiz-adv-x="507" 
d="M401 761h-83v89h83v-89zM228 761h-82v89h82v-89zM462 0h-370v690h360v-63h-291v-235h230l10 -62h-240v-267h301v-63z" />
    <glyph glyph-name="Igrave" unicode="&#xcc;" horiz-adv-x="268" 
d="M168 0h-69v690h69v-690zM163 752h-45l-136 134l86 19z" />
    <glyph glyph-name="Iacute" unicode="&#xcd;" horiz-adv-x="268" 
d="M168 0h-69v690h69v-690zM287 886l-136 -134h-46l97 153z" />
    <glyph glyph-name="Icircumflex" unicode="&#xce;" horiz-adv-x="268" 
d="M168 0h-69v690h69v-690zM268 752h-42l-92 83l-92 -83h-42l103 145h62z" />
    <glyph glyph-name="Idieresis" unicode="&#xcf;" horiz-adv-x="268" 
d="M168 0h-69v690h69v-690zM262 761h-83v89h83v-89zM89 761h-82v89h82v-89z" />
    <glyph glyph-name="Eth" unicode="&#xd0;" horiz-adv-x="715" 
d="M654 346q0 -159 -98 -252.5t-264 -93.5h-185v331h-80l-10 60h90v299h187q170 0 265 -94t95 -250zM583 345q0 136 -78 209.5t-210 73.5h-120v-237h166v-60h-166v-269h121q134 0 210.5 72t76.5 211z" />
    <glyph glyph-name="Ntilde" unicode="&#xd1;" horiz-adv-x="705" 
d="M613 0h-53l-403 581v-581h-65v690h65l391 -563v563h65v-690zM506 856q-15 -103 -76 -103q-28 0 -75 25q-51 26 -64 26q-23 0 -36 -53l-44 9q15 104 76 104q26 0 75 -26q49 -25 63 -25q24 0 37 52z" />
    <glyph glyph-name="Ograve" unicode="&#xd2;" horiz-adv-x="745" 
d="M684 346q0 -159 -87 -259t-226 -100q-138 0 -224 99.5t-86 257.5q0 159 87 259t225 100q139 0 225 -99t86 -258zM613 344q0 133 -66 215t-175 82q-108 0 -174 -81.5t-66 -213.5q0 -133 66 -215t175 -82q108 0 174 81.5t66 213.5zM400 762h-45l-136 134l86 19z" />
    <glyph glyph-name="Oacute" unicode="&#xd3;" horiz-adv-x="745" 
d="M525 896l-136 -134h-46l97 153zM684 346q0 -159 -87 -259t-226 -100q-138 0 -224 99.5t-86 257.5q0 159 87 259t225 100q139 0 225 -99t86 -258zM613 344q0 133 -66 215t-175 82q-108 0 -174 -81.5t-66 -213.5q0 -133 66 -215t175 -82q108 0 174 81.5t66 213.5z" />
    <glyph glyph-name="Ocircumflex" unicode="&#xd4;" horiz-adv-x="745" 
d="M505 762h-42l-92 83l-92 -83h-42l103 145h62zM684 346q0 -159 -87 -259t-226 -100q-138 0 -224 99.5t-86 257.5q0 159 87 259t225 100q139 0 225 -99t86 -258zM613 344q0 133 -66 215t-175 82q-108 0 -174 -81.5t-66 -213.5q0 -133 66 -215t175 -82q108 0 174 81.5
t66 213.5z" />
    <glyph glyph-name="Otilde" unicode="&#xd5;" horiz-adv-x="745" 
d="M684 346q0 -159 -87 -259t-226 -100q-138 0 -224 99.5t-86 257.5q0 159 87 259t225 100q139 0 225 -99t86 -258zM613 344q0 133 -66 215t-175 82q-108 0 -174 -81.5t-66 -213.5q0 -133 66 -215t175 -82q108 0 174 81.5t66 213.5zM523 871q-15 -103 -76 -103q-28 0 -75 25
q-51 26 -64 26q-23 0 -36 -53l-44 9q15 104 76 104q26 0 75 -26q49 -25 63 -25q24 0 37 52z" />
    <glyph glyph-name="Odieresis" unicode="&#xd6;" horiz-adv-x="745" 
d="M500 771h-83v89h83v-89zM327 771h-82v89h82v-89zM684 346q0 -159 -87 -259t-226 -100q-138 0 -224 99.5t-86 257.5q0 159 87 259t225 100q139 0 225 -99t86 -258zM613 344q0 133 -66 215t-175 82q-108 0 -174 -81.5t-66 -213.5q0 -133 66 -215t175 -82q108 0 174 81.5
t66 213.5z" />
    <glyph glyph-name="multiply" unicode="&#xd7;" horiz-adv-x="570" 
d="M451 131l-167 169l-167 -168l-38 38l168 167l-169 167l40 41l168 -169l167 168l38 -38l-168 -167l169 -167z" />
    <glyph glyph-name="Oslash" unicode="&#xd8;" horiz-adv-x="745" 
d="M684 346q0 -159 -87 -259t-226 -100q-116 0 -197 72l-56 -67l-61 13l78 95q-74 98 -74 244q0 159 87 259t225 100q117 0 198 -72l55 67l62 -13l-79 -95q75 -97 75 -244zM372 642q-109 0 -175.5 -82t-66.5 -214q0 -117 49 -194l351 428q-64 62 -158 62zM615 344
q0 115 -50 193l-351 -428q64 -61 159 -61q109 0 175.5 82t66.5 214z" />
    <glyph glyph-name="Ugrave" unicode="&#xd9;" horiz-adv-x="681" 
d="M600 263q0 -126 -70 -200t-191 -74q-120 0 -189 73.5t-69 195.5v432h69v-423q0 -99 48.5 -157.5t141.5 -58.5q92 0 141.5 56.5t49.5 155.5v427h69v-427zM368 747h-45l-136 134l86 19z" />
    <glyph glyph-name="Uacute" unicode="&#xda;" horiz-adv-x="681" 
d="M493 881l-136 -134h-46l97 153zM600 263q0 -126 -70 -200t-191 -74q-120 0 -189 73.5t-69 195.5v432h69v-423q0 -99 48.5 -157.5t141.5 -58.5q92 0 141.5 56.5t49.5 155.5v427h69v-427z" />
    <glyph glyph-name="Ucircumflex" unicode="&#xdb;" horiz-adv-x="681" 
d="M473 747h-42l-92 83l-92 -83h-42l103 145h62zM600 263q0 -126 -70 -200t-191 -74q-120 0 -189 73.5t-69 195.5v432h69v-423q0 -99 48.5 -157.5t141.5 -58.5q92 0 141.5 56.5t49.5 155.5v427h69v-427z" />
    <glyph glyph-name="Udieresis" unicode="&#xdc;" horiz-adv-x="681" 
d="M468 756h-83v89h83v-89zM295 756h-82v89h82v-89zM600 263q0 -126 -70 -200t-191 -74q-120 0 -189 73.5t-69 195.5v432h69v-423q0 -99 48.5 -157.5t141.5 -58.5q92 0 141.5 56.5t49.5 155.5v427h69v-427z" />
    <glyph glyph-name="Yacute" unicode="&#xdd;" horiz-adv-x="628" 
d="M595 690l-248 -404v-286h-69v286l-244 397l71 14l209 -349l203 342h78zM467 881l-136 -134h-46l97 153z" />
    <glyph glyph-name="Thorn" unicode="&#xde;" horiz-adv-x="539" 
d="M492 358q0 -98 -66.5 -151t-176.5 -53h-88v-154h-69v690h69v-138h104q106 0 166.5 -50.5t60.5 -143.5zM422 356q0 67 -41.5 101.5t-119.5 34.5h-100v-278h92q80 0 124.5 36t44.5 106z" />
    <glyph glyph-name="germandbls" unicode="&#xdf;" horiz-adv-x="603" 
d="M564 146q0 -73 -46 -114t-123 -41q-80 0 -146 37l10 62q75 -44 141 -44q45 0 73 25.5t28 70.5q0 53 -49 93t-176 67l-8 50q93 112 93 198q0 49 -24.5 78t-68.5 29q-45 0 -72 -32t-27 -86v-539h-65v417h-72v56h72v61q0 82 44.5 131t119.5 49t117 -43t42 -117
q0 -55 -24 -101.5t-74 -107.5q120 -28 177.5 -75.5t57.5 -123.5z" />
    <glyph glyph-name="agrave" unicode="&#xe0;" horiz-adv-x="489" 
d="M416 0h-50l-11 63q-78 -73 -167 -73q-63 0 -102 34t-39 95q0 83 71.5 125.5t232.5 58.5v31q0 91 -98 91q-76 0 -163 -42l-9 59q94 41 176 41q159 0 159 -146v-337zM351 117v134q-90 -9 -144 -27.5t-74 -42.5t-20 -58q0 -37 23 -57t62 -20q77 0 153 71zM274 550h-45
l-136 134l86 19z" />
    <glyph glyph-name="aacute" unicode="&#xe1;" horiz-adv-x="489" 
d="M416 0h-50l-11 63q-78 -73 -167 -73q-63 0 -102 34t-39 95q0 83 71.5 125.5t232.5 58.5v31q0 91 -98 91q-76 0 -163 -42l-9 59q94 41 176 41q159 0 159 -146v-337zM351 117v134q-90 -9 -144 -27.5t-74 -42.5t-20 -58q0 -37 23 -57t62 -20q77 0 153 71zM398 684l-136 -134
h-46l97 153z" />
    <glyph glyph-name="acircumflex" unicode="&#xe2;" horiz-adv-x="489" 
d="M416 0h-50l-11 63q-78 -73 -167 -73q-63 0 -102 34t-39 95q0 83 71.5 125.5t232.5 58.5v31q0 91 -98 91q-76 0 -163 -42l-9 59q94 41 176 41q159 0 159 -146v-337zM351 117v134q-90 -9 -144 -27.5t-74 -42.5t-20 -58q0 -37 23 -57t62 -20q77 0 153 71zM378 550h-42
l-92 83l-92 -83h-42l103 145h62z" />
    <glyph glyph-name="atilde" unicode="&#xe3;" horiz-adv-x="489" 
d="M416 0h-50l-11 63q-78 -73 -167 -73q-63 0 -102 34t-39 95q0 83 71.5 125.5t232.5 58.5v31q0 91 -98 91q-76 0 -163 -42l-9 59q94 41 176 41q159 0 159 -146v-337zM351 117v134q-90 -9 -144 -27.5t-74 -42.5t-20 -58q0 -37 23 -57t62 -20q77 0 153 71zM396 659
q-15 -103 -76 -103q-28 0 -75 25q-51 26 -64 26q-23 0 -36 -53l-44 9q15 104 76 104q26 0 75 -26q49 -25 63 -25q24 0 37 52z" />
    <glyph glyph-name="adieresis" unicode="&#xe4;" horiz-adv-x="489" 
d="M416 0h-50l-11 63q-78 -73 -167 -73q-63 0 -102 34t-39 95q0 83 71.5 125.5t232.5 58.5v31q0 91 -98 91q-76 0 -163 -42l-9 59q94 41 176 41q159 0 159 -146v-337zM351 117v134q-90 -9 -144 -27.5t-74 -42.5t-20 -58q0 -37 23 -57t62 -20q77 0 153 71zM372 559h-83v89h83
v-89zM199 559h-82v89h82v-89z" />
    <glyph glyph-name="aring" unicode="&#xe5;" horiz-adv-x="489" 
d="M416 0h-50l-11 63q-78 -73 -167 -73q-63 0 -102 34t-39 95q0 83 71.5 125.5t232.5 58.5v31q0 91 -98 91q-76 0 -163 -42l-9 59q94 41 176 41q159 0 159 -146v-337zM351 117v134q-90 -9 -144 -27.5t-74 -42.5t-20 -58q0 -37 23 -57t62 -20q77 0 153 71zM342 644
q0 -42 -28 -69t-70 -27t-70 27t-28 69t28 70.5t70 28.5t70 -28.5t28 -70.5zM302 644q0 26 -16.5 44t-41.5 18t-42 -18t-17 -44t17 -43t42 -17t41.5 17t16.5 43z" />
    <glyph glyph-name="ae" unicode="&#xe6;" horiz-adv-x="790" 
d="M740 246v-14h-328q1 -87 41.5 -136t109.5 -49q85 0 167 70l9 -60q-77 -67 -180 -67q-109 0 -169 85q-92 -85 -194 -85q-66 0 -107.5 34t-41.5 95q0 81 70 124t230 59v34q0 89 -94 89q-76 0 -163 -42l-9 59q92 41 173 41q116 0 143 -85q53 85 154 85q92 0 140.5 -66.5
t48.5 -170.5zM673 284q-5 67 -36.5 106.5t-85.5 39.5q-55 0 -91 -38.5t-45 -107.5h258zM366 121q-19 54 -19 116v14q-130 -14 -182 -45t-52 -82q0 -37 24 -57.5t66 -20.5q82 0 163 75z" />
    <glyph glyph-name="ccedilla" unicode="&#xe7;" horiz-adv-x="465" 
d="M422 43q-69 -53 -160 -53q-93 0 -153.5 66t-60.5 180q0 116 61.5 181.5t156.5 65.5q86 0 152 -48l-11 -66q-68 57 -143 57q-66 0 -107.5 -50t-41.5 -139q0 -88 42.5 -138.5t110.5 -50.5q79 0 145 56zM315 -82l-122 -114h-46l84 134z" />
    <glyph glyph-name="egrave" unicode="&#xe8;" horiz-adv-x="491" 
d="M442 57q-79 -67 -181 -67q-96 0 -154.5 64t-58.5 183q0 112 57 179t146 67q92 0 142 -67t50 -170v-14h-329q2 -88 41 -136.5t110 -48.5q85 0 167 70zM250 430q-53 0 -88.5 -38t-45.5 -108h259q-5 66 -37 106t-88 40zM282 550h-45l-136 134l86 19z" />
    <glyph glyph-name="eacute" unicode="&#xe9;" horiz-adv-x="491" 
d="M442 57q-79 -67 -181 -67q-96 0 -154.5 64t-58.5 183q0 112 57 179t146 67q92 0 142 -67t50 -170v-14h-329q2 -88 41 -136.5t110 -48.5q85 0 167 70zM250 430q-53 0 -88.5 -38t-45.5 -108h259q-5 66 -37 106t-88 40zM406 684l-136 -134h-46l97 153z" />
    <glyph glyph-name="ecircumflex" unicode="&#xea;" horiz-adv-x="491" 
d="M442 57q-79 -67 -181 -67q-96 0 -154.5 64t-58.5 183q0 112 57 179t146 67q92 0 142 -67t50 -170v-14h-329q2 -88 41 -136.5t110 -48.5q85 0 167 70zM250 430q-53 0 -88.5 -38t-45.5 -108h259q-5 66 -37 106t-88 40zM386 550h-42l-92 83l-92 -83h-42l103 145h62z" />
    <glyph glyph-name="edieresis" unicode="&#xeb;" horiz-adv-x="491" 
d="M442 57q-79 -67 -181 -67q-96 0 -154.5 64t-58.5 183q0 112 57 179t146 67q92 0 142 -67t50 -170v-14h-329q2 -88 41 -136.5t110 -48.5q85 0 167 70zM250 430q-53 0 -88.5 -38t-45.5 -108h259q-5 66 -37 106t-88 40zM381 559h-83v89h83v-89zM208 559h-82v89h82v-89z" />
    <glyph glyph-name="igrave" unicode="&#xec;" horiz-adv-x="234" 
d="M149 0h-65v473h65v-473zM145 550h-45l-136 134l86 19z" />
    <glyph glyph-name="iacute" unicode="&#xed;" horiz-adv-x="234" 
d="M270 684l-136 -134h-46l97 153zM149 0h-65v473h65v-473z" />
    <glyph glyph-name="icircumflex" unicode="&#xee;" horiz-adv-x="234" 
d="M250 550h-42l-92 83l-92 -83h-42l103 145h62zM149 0h-65v473h65v-473z" />
    <glyph glyph-name="idieresis" unicode="&#xef;" horiz-adv-x="234" 
d="M245 559h-83v89h83v-89zM72 559h-82v89h82v-89zM149 0h-65v473h65v-473z" />
    <glyph glyph-name="eth" unicode="&#xf0;" horiz-adv-x="530" 
d="M251 516h-61l68 103q-50 28 -108 44l9 55q74 -20 130 -52l37 57l56 -12l-50 -74q142 -111 142 -336q0 -171 -83 -254q-56 -57 -139 -57q-89 0 -146.5 60t-57.5 163q0 98 58.5 166t143.5 68q82 0 152 -56q-20 129 -102 198zM410 295q0 17 -1 25q-66 71 -153 71
q-62 0 -101.5 -50t-39.5 -124q0 -79 38.5 -125t104.5 -46q68 0 110 66.5t42 182.5z" />
    <glyph glyph-name="ntilde" unicode="&#xf1;" 
d="M450 0h-66v326q0 98 -88 98q-69 0 -153 -82v-342h-66v473h51l11 -70q90 80 170 80q69 0 105 -38t36 -107v-338zM413 659q-15 -103 -76 -103q-28 0 -75 25q-51 26 -64 26q-23 0 -36 -53l-44 9q15 104 76 104q26 0 75 -26q49 -25 63 -25q24 0 37 52z" />
    <glyph glyph-name="ograve" unicode="&#xf2;" 
d="M475 236q0 -114 -60.5 -180t-154.5 -66q-93 0 -152.5 66t-59.5 180q0 115 60 181t152 66q95 0 155 -66t60 -181zM407 236q0 87 -40 139t-107 52q-66 0 -105.5 -51t-39.5 -140q0 -86 40 -138t105 -52q67 0 107 51t40 139zM290 550h-45l-136 134l86 19z" />
    <glyph glyph-name="oacute" unicode="&#xf3;" 
d="M414 684l-136 -134h-46l97 153zM475 236q0 -114 -60.5 -180t-154.5 -66q-93 0 -152.5 66t-59.5 180q0 115 60 181t152 66q95 0 155 -66t60 -181zM407 236q0 87 -40 139t-107 52q-66 0 -105.5 -51t-39.5 -140q0 -86 40 -138t105 -52q67 0 107 51t40 139z" />
    <glyph glyph-name="ocircumflex" unicode="&#xf4;" 
d="M394 550h-42l-92 83l-92 -83h-42l103 145h62zM475 236q0 -114 -60.5 -180t-154.5 -66q-93 0 -152.5 66t-59.5 180q0 115 60 181t152 66q95 0 155 -66t60 -181zM407 236q0 87 -40 139t-107 52q-66 0 -105.5 -51t-39.5 -140q0 -86 40 -138t105 -52q67 0 107 51t40 139z" />
    <glyph glyph-name="otilde" unicode="&#xf5;" 
d="M475 236q0 -114 -60.5 -180t-154.5 -66q-93 0 -152.5 66t-59.5 180q0 115 60 181t152 66q95 0 155 -66t60 -181zM407 236q0 87 -40 139t-107 52q-66 0 -105.5 -51t-39.5 -140q0 -86 40 -138t105 -52q67 0 107 51t40 139zM412 659q-15 -103 -76 -103q-28 0 -75 25
q-51 26 -64 26q-23 0 -36 -53l-44 9q15 104 76 104q26 0 75 -26q49 -25 63 -25q24 0 37 52z" />
    <glyph glyph-name="odieresis" unicode="&#xf6;" 
d="M389 559h-83v89h83v-89zM216 559h-82v89h82v-89zM475 236q0 -114 -60.5 -180t-154.5 -66q-93 0 -152.5 66t-59.5 180q0 115 60 181t152 66q95 0 155 -66t60 -181zM407 236q0 87 -40 139t-107 52q-66 0 -105.5 -51t-39.5 -140q0 -86 40 -138t105 -52q67 0 107 51t40 139z
" />
    <glyph glyph-name="divide" unicode="&#xf7;" horiz-adv-x="570" 
d="M323 477h-76v90h76v-90zM512 311h-455v54h455v-54zM323 109h-76v90h76v-90z" />
    <glyph glyph-name="oslash" unicode="&#xf8;" 
d="M475 236q0 -114 -60.5 -180t-154.5 -66q-76 0 -129 42l-34 -43l-56 12l54 69q-47 64 -47 166q0 115 60 181t152 66q76 0 131 -43l36 45l56 -13l-56 -70q48 -66 48 -166zM260 429q-68 0 -108 -52t-40 -141q0 -70 25 -116l217 272q-39 37 -94 37zM410 236q0 69 -26 116
l-217 -272q39 -36 93 -36q69 0 109.5 52t40.5 140z" />
    <glyph glyph-name="ugrave" unicode="&#xf9;" 
d="M446 0h-51l-11 70q-90 -80 -170 -80q-70 0 -105.5 38t-35.5 107v338h66v-326q0 -97 88 -97q70 0 153 81v342h66v-473zM289 548h-45l-136 134l86 19z" />
    <glyph glyph-name="uacute" unicode="&#xfa;" 
d="M412 682l-136 -134h-46l97 153zM446 0h-51l-11 70q-90 -80 -170 -80q-70 0 -105.5 38t-35.5 107v338h66v-326q0 -97 88 -97q70 0 153 81v342h66v-473z" />
    <glyph glyph-name="ucircumflex" unicode="&#xfb;" 
d="M393 548h-42l-92 83l-92 -83h-42l103 145h62zM446 0h-51l-11 70q-90 -80 -170 -80q-70 0 -105.5 38t-35.5 107v338h66v-326q0 -97 88 -97q70 0 153 81v342h66v-473z" />
    <glyph glyph-name="udieresis" unicode="&#xfc;" 
d="M387 557h-83v89h83v-89zM214 557h-82v89h82v-89zM446 0h-51l-11 70q-90 -80 -170 -80q-70 0 -105.5 38t-35.5 107v338h66v-326q0 -97 88 -97q70 0 153 81v342h66v-473z" />
    <glyph glyph-name="yacute" unicode="&#xfd;" horiz-adv-x="480" 
d="M450 473l-201 -535q-24 -66 -57 -92t-85 -26q-8 0 -29 3l-10 59q22 -4 38 -4q31 0 50.5 16t33.5 54l20 49l-179 470l65 12l146 -402l139 396h69zM395 682l-136 -134h-46l97 153z" />
    <glyph glyph-name="thorn" unicode="&#xfe;" horiz-adv-x="531" 
d="M482 250q0 -123 -62 -189.5t-154 -66.5q-67 0 -123 23v-189l-66 -11v889l66 12v-309q67 74 149 74t136 -60t54 -173zM415 247q0 84 -36 130.5t-94 46.5q-72 0 -142 -86v-260q58 -28 120 -28q68 0 110 50.5t42 146.5z" />
    <glyph glyph-name="ydieresis" unicode="&#xff;" horiz-adv-x="480" 
d="M450 473l-201 -535q-24 -66 -57 -92t-85 -26q-8 0 -29 3l-10 59q22 -4 38 -4q31 0 50.5 16t33.5 54l20 49l-179 470l65 12l146 -402l139 396h69zM369 557h-83v89h83v-89zM196 557h-82v89h82v-89z" />
    <glyph glyph-name="Amacron" unicode="&#x100;" horiz-adv-x="691" 
d="M39 0l272 694h71l270 -686l-68 -15l-88 230h-301l-85 -223h-71zM345 614l-126 -330h253zM476 789h-260v56h260v-56z" />
    <glyph glyph-name="amacron" unicode="&#x101;" horiz-adv-x="489" 
d="M416 0h-50l-11 63q-78 -73 -167 -73q-63 0 -102 34t-39 95q0 83 71.5 125.5t232.5 58.5v31q0 91 -98 91q-76 0 -163 -42l-9 59q94 41 176 41q159 0 159 -146v-337zM351 117v134q-90 -9 -144 -27.5t-74 -42.5t-20 -58q0 -37 23 -57t62 -20q77 0 153 71zM375 577h-260v56
h260v-56z" />
    <glyph glyph-name="Abreve" unicode="&#x102;" horiz-adv-x="691" 
d="M39 0l272 694h71l270 -686l-68 -15l-88 230h-301l-85 -223h-71zM345 614l-126 -330h253zM478 877q-9 -50 -42 -81t-91 -31q-57 0 -90 31t-41 81l46 9q17 -63 86 -63q66 0 85 63z" />
    <glyph glyph-name="abreve" unicode="&#x103;" horiz-adv-x="489" 
d="M416 0h-50l-11 63q-78 -73 -167 -73q-63 0 -102 34t-39 95q0 83 71.5 125.5t232.5 58.5v31q0 91 -98 91q-76 0 -163 -42l-9 59q94 41 176 41q159 0 159 -146v-337zM351 117v134q-90 -9 -144 -27.5t-74 -42.5t-20 -58q0 -37 23 -57t62 -20q77 0 153 71zM377 665
q-9 -50 -42 -81t-91 -31q-57 0 -90 31t-41 81l46 9q17 -63 86 -63q66 0 85 63z" />
    <glyph glyph-name="Aogonek" unicode="&#x104;" horiz-adv-x="691" 
d="M39 0l272 694h71l270 -686l-20 -5l-22 -32q-31 -44 -31 -68q0 -34 39 -34q20 0 41 6v-42q-30 -11 -60 -11q-36 0 -55.5 17.5t-19.5 49.5q0 41 50 100l7 10l-85 224h-301l-85 -223h-71zM345 614l-126 -330h253z" />
    <glyph glyph-name="aogonek" unicode="&#x105;" horiz-adv-x="489" 
d="M416 0h-9l-20 -29q-31 -44 -31 -68q0 -34 39 -34q20 0 41 6v-42q-30 -11 -60 -11q-36 0 -55.5 17.5t-19.5 49.5q0 41 50 100l14 18l-10 56q-78 -73 -167 -73q-63 0 -102 34t-39 95q0 83 71.5 125.5t232.5 58.5v31q0 91 -98 91q-76 0 -163 -42l-9 59q94 41 176 41
q159 0 159 -146v-337zM351 117v134q-90 -9 -144 -27.5t-74 -42.5t-20 -58q0 -37 23 -57t62 -20q77 0 153 71z" />
    <glyph glyph-name="Cacute" unicode="&#x106;" horiz-adv-x="638" 
d="M523 896l-136 -134h-46l97 153zM584 56q-92 -69 -210 -69q-140 0 -226.5 98.5t-86.5 258.5q0 159 88 259t230 100q109 0 194 -59l-11 -70q-90 67 -184 67q-113 0 -179.5 -81t-66.5 -214q0 -134 66.5 -215t178.5 -81q103 0 197 72z" />
    <glyph glyph-name="cacute" unicode="&#x107;" horiz-adv-x="465" 
d="M416 684l-136 -134h-46l97 153zM422 43q-69 -53 -160 -53q-93 0 -153.5 66t-60.5 180q0 116 61.5 181.5t156.5 65.5q86 0 152 -48l-11 -66q-68 57 -143 57q-66 0 -107.5 -50t-41.5 -139q0 -88 42.5 -138.5t110.5 -50.5q79 0 145 56z" />
    <glyph glyph-name="Cdotaccent" unicode="&#x10a;" horiz-adv-x="638" 
d="M584 56q-92 -69 -210 -69q-140 0 -226.5 98.5t-86.5 258.5q0 159 88 259t230 100q109 0 194 -59l-11 -70q-90 67 -184 67q-113 0 -179.5 -81t-66.5 -214q0 -134 66.5 -215t178.5 -81q103 0 197 72zM412 769h-84v89h84v-89z" />
    <glyph glyph-name="cdotaccent" unicode="&#x10b;" horiz-adv-x="465" 
d="M422 43q-69 -53 -160 -53q-93 0 -153.5 66t-60.5 180q0 116 61.5 181.5t156.5 65.5q86 0 152 -48l-11 -66q-68 57 -143 57q-66 0 -107.5 -50t-41.5 -139q0 -88 42.5 -138.5t110.5 -50.5q79 0 145 56zM306 557h-84v89h84v-89z" />
    <glyph glyph-name="Ccaron" unicode="&#x10c;" horiz-adv-x="638" 
d="M236 907h42l92 -83l92 83h42l-103 -145h-62zM584 56q-92 -69 -210 -69q-140 0 -226.5 98.5t-86.5 258.5q0 159 88 259t230 100q109 0 194 -59l-11 -70q-90 67 -184 67q-113 0 -179.5 -81t-66.5 -214q0 -134 66.5 -215t178.5 -81q103 0 197 72z" />
    <glyph glyph-name="ccaron" unicode="&#x10d;" horiz-adv-x="465" 
d="M130 695h42l92 -83l92 83h42l-103 -145h-62zM422 43q-69 -53 -160 -53q-93 0 -153.5 66t-60.5 180q0 116 61.5 181.5t156.5 65.5q86 0 152 -48l-11 -66q-68 57 -143 57q-66 0 -107.5 -50t-41.5 -139q0 -88 42.5 -138.5t110.5 -50.5q79 0 145 56z" />
    <glyph glyph-name="Dcaron" unicode="&#x10e;" horiz-adv-x="701" 
d="M201 897h42l92 -83l92 83h42l-103 -145h-62zM639 346q0 -159 -98 -252.5t-264 -93.5h-185v690h188q170 0 264.5 -93.5t94.5 -250.5zM568 345q0 137 -77.5 210t-209.5 73h-120v-566h120q134 0 210.5 72t76.5 211z" />
    <glyph glyph-name="dcaron" unicode="&#x10f;" horiz-adv-x="531" 
d="M575 719q20 -38 20 -70q0 -63 -64 -120l-33 7q36 52 36 95q0 31 -23 77zM454 0h-50l-12 69q-66 -79 -152 -79q-83 0 -137 59.5t-54 173.5q0 124 62 190.5t154 66.5q70 0 123 -24v250l66 12v-718zM388 134v261q-55 28 -121 28q-67 0 -109 -50.5t-42 -146.5
q0 -84 36 -130.5t94 -46.5q72 0 142 85z" />
    <glyph glyph-name="Dcroat" unicode="&#x110;" horiz-adv-x="715" 
d="M654 346q0 -159 -98 -252.5t-264 -93.5h-185v331h-80l-10 60h90v299h187q170 0 265 -94t95 -250zM583 345q0 136 -78 209.5t-210 73.5h-120v-237h166v-60h-166v-269h121q134 0 210.5 72t76.5 211z" />
    <glyph glyph-name="dcroat" unicode="&#x111;" horiz-adv-x="531" 
d="M454 0h-50l-12 69q-66 -79 -152 -79q-83 0 -137 59.5t-54 173.5q0 124 62 190.5t154 66.5q70 0 123 -24v121h-145l-10 55h155v74l66 12v-86h75v-55h-75v-577zM388 134v261q-55 28 -121 28q-67 0 -109 -50.5t-42 -146.5q0 -84 36 -130.5t94 -46.5q72 0 142 85z" />
    <glyph glyph-name="Emacron" unicode="&#x112;" horiz-adv-x="507" 
d="M462 0h-370v690h360v-63h-291v-235h230l10 -62h-240v-267h301v-63zM404 779h-260v56h260v-56z" />
    <glyph glyph-name="emacron" unicode="&#x113;" horiz-adv-x="491" 
d="M442 57q-79 -67 -181 -67q-96 0 -154.5 64t-58.5 183q0 112 57 179t146 67q92 0 142 -67t50 -170v-14h-329q2 -88 41 -136.5t110 -48.5q85 0 167 70zM250 430q-53 0 -88.5 -38t-45.5 -108h259q-5 66 -37 106t-88 40zM383 577h-260v56h260v-56z" />
    <glyph glyph-name="Ebreve" unicode="&#x114;" horiz-adv-x="507" 
d="M462 0h-370v690h360v-63h-291v-235h230l10 -62h-240v-267h301v-63zM406 867q-9 -50 -42 -81t-91 -31q-57 0 -90 31t-41 81l46 9q17 -63 86 -63q66 0 85 63z" />
    <glyph glyph-name="ebreve" unicode="&#x115;" horiz-adv-x="491" 
d="M442 57q-79 -67 -181 -67q-96 0 -154.5 64t-58.5 183q0 112 57 179t146 67q92 0 142 -67t50 -170v-14h-329q2 -88 41 -136.5t110 -48.5q85 0 167 70zM250 430q-53 0 -88.5 -38t-45.5 -108h259q-5 66 -37 106t-88 40zM385 665q-9 -50 -42 -81t-91 -31q-57 0 -90 31t-41 81
l46 9q17 -63 86 -63q66 0 85 63z" />
    <glyph glyph-name="Edotaccent" unicode="&#x116;" horiz-adv-x="507" 
d="M462 0h-370v690h360v-63h-291v-235h230l10 -62h-240v-267h301v-63zM316 759h-84v89h84v-89z" />
    <glyph glyph-name="edotaccent" unicode="&#x117;" horiz-adv-x="491" 
d="M442 57q-79 -67 -181 -67q-96 0 -154.5 64t-58.5 183q0 112 57 179t146 67q92 0 142 -67t50 -170v-14h-329q2 -88 41 -136.5t110 -48.5q85 0 167 70zM250 430q-53 0 -88.5 -38t-45.5 -108h259q-5 66 -37 106t-88 40zM295 557h-84v89h84v-89z" />
    <glyph glyph-name="Eogonek" unicode="&#x118;" horiz-adv-x="505" 
d="M462 0h-27l-20 -29q-31 -44 -31 -68q0 -34 39 -34q20 0 41 6v-42q-30 -11 -60 -11q-36 0 -55.5 17.5t-19.5 49.5q0 41 50 100l8 11h-295v690h360v-63h-291v-235h230l10 -62h-240v-267h301v-63z" />
    <glyph glyph-name="eogonek" unicode="&#x119;" horiz-adv-x="491" 
d="M251 483q92 0 142 -67t50 -170v-14h-329q2 -88 41 -136.5t110 -48.5q85 0 167 70l9 -53l-56 -75q-42 -62 -42 -86q0 -34 39 -34q20 0 40 6v-42q-28 -11 -59 -11q-36 0 -55.5 17.5t-19.5 49.5q0 39 49 99l12 17q-43 -15 -88 -15q-96 0 -154.5 64t-58.5 183q0 112 57 179
t146 67zM250 430q-54 0 -89 -38.5t-44 -107.5h258q-5 66 -37 106t-88 40z" />
    <glyph glyph-name="Ecaron" unicode="&#x11a;" horiz-adv-x="507" 
d="M140 897h42l92 -83l92 83h42l-103 -145h-62zM462 0h-370v690h360v-63h-291v-235h230l10 -62h-240v-267h301v-63z" />
    <glyph glyph-name="ecaron" unicode="&#x11b;" horiz-adv-x="491" 
d="M442 57q-79 -67 -181 -67q-96 0 -154.5 64t-58.5 183q0 112 57 179t146 67q92 0 142 -67t50 -170v-14h-329q2 -88 41 -136.5t110 -48.5q85 0 167 70zM250 430q-53 0 -88.5 -38t-45.5 -108h259q-5 66 -37 106t-88 40zM119 695h42l92 -83l92 83h42l-103 -145h-62z" />
    <glyph glyph-name="Gbreve" unicode="&#x11e;" horiz-adv-x="694" 
d="M612 57q-107 -70 -227 -70q-151 0 -237.5 98t-86.5 259q0 160 87 259.5t231 99.5q118 0 204 -60l-12 -71q-86 69 -193 69q-114 0 -180 -80.5t-66 -215.5t67 -215.5t187 -80.5q86 0 158 44v206h-166l-10 63h244v-305zM502 877q-9 -50 -42 -81t-91 -31q-57 0 -90 31t-41 81
l46 9q17 -63 86 -63q66 0 85 63z" />
    <glyph glyph-name="gbreve" unicode="&#x11f;" horiz-adv-x="502" 
d="M464 -38q0 -66 -64.5 -104t-160.5 -38t-156 32t-60 91q0 70 108 125q-35 22 -35 50q0 34 47 63q-40 20 -63.5 56.5t-23.5 84.5q0 72 51.5 116.5t123.5 44.5q71 0 120 -40l118 38l11 -65l-95 -10q25 -37 25 -84q0 -73 -52 -117t-125 -44q-23 0 -42 4q-30 -17 -30 -34
q0 -14 20 -22t86 -20l35 -7q83 -15 122.5 -42.5t39.5 -77.5zM241 35q-9 2 -21 4t-20.5 4l-16.5 4q-95 -44 -95 -100q0 -36 42 -56.5t113 -20.5t114.5 24t43.5 60q0 28 -25.5 44.5t-88.5 28.5zM345 322q0 48 -32 80t-82 32t-80 -32t-30 -82q0 -47 30.5 -78.5t81.5 -31.5
t81.5 31.5t30.5 80.5zM370 665q-9 -50 -42 -81t-91 -31q-57 0 -90 31t-41 81l46 9q17 -63 86 -63q66 0 85 63z" />
    <glyph glyph-name="Gdotaccent" unicode="&#x120;" horiz-adv-x="694" 
d="M612 57q-107 -70 -227 -70q-151 0 -237.5 98t-86.5 259q0 160 87 259.5t231 99.5q118 0 204 -60l-12 -71q-86 69 -193 69q-114 0 -180 -80.5t-66 -215.5t67 -215.5t187 -80.5q86 0 158 44v206h-166l-10 63h244v-305zM412 769h-84v89h84v-89z" />
    <glyph glyph-name="gdotaccent" unicode="&#x121;" horiz-adv-x="502" 
d="M464 -38q0 -66 -64.5 -104t-160.5 -38t-156 32t-60 91q0 70 108 125q-35 22 -35 50q0 34 47 63q-40 20 -63.5 56.5t-23.5 84.5q0 72 51.5 116.5t123.5 44.5q71 0 120 -40l118 38l11 -65l-95 -10q25 -37 25 -84q0 -73 -52 -117t-125 -44q-24 0 -41 4q-31 -19 -31 -34
q0 -14 20 -22t86 -20l35 -7q83 -15 122.5 -42.5t39.5 -77.5zM241 35q-9 2 -21 4t-20.5 4l-16.5 4q-95 -44 -95 -100q0 -36 42 -56.5t113 -20.5t114.5 24t43.5 60q0 28 -25.5 44.5t-88.5 28.5zM345 322q0 48 -32 80t-82 32t-80 -32t-30 -82q0 -47 30.5 -78.5t81.5 -31.5
t81.5 31.5t30.5 80.5zM280 557h-84v89h84v-89z" />
    <glyph glyph-name="Gcommaaccent" unicode="&#x122;" horiz-adv-x="694" 
d="M318 -90l57 23q45 -37 45 -85q0 -52 -72 -116l-43 8q55 59 55 99q0 36 -42 71zM612 57q-107 -70 -227 -70q-151 0 -237.5 98t-86.5 259q0 160 87 259.5t231 99.5q118 0 204 -60l-12 -71q-86 69 -193 69q-114 0 -180 -80.5t-66 -215.5t67 -215.5t187 -80.5q86 0 158 44
v206h-166l-10 63h244v-305z" />
    <glyph glyph-name="gcommaaccent" unicode="&#x123;" horiz-adv-x="502" 
d="M464 -38q0 -66 -64.5 -104t-160.5 -38t-156 32t-60 91q0 70 108 125q-35 22 -35 50q0 34 47 63q-40 20 -63.5 56.5t-23.5 84.5q0 72 51.5 116.5t123.5 44.5q71 0 120 -40l118 38l11 -65l-95 -10q25 -37 25 -84q0 -73 -52 -117t-125 -44q-23 0 -42 4q-30 -17 -30 -34
q0 -14 20 -22t86 -20l35 -7q83 -15 122.5 -42.5t39.5 -77.5zM241 35q-9 2 -21 4t-20.5 4l-16.5 4q-95 -44 -95 -100q0 -36 42 -56.5t113 -20.5t114.5 24t43.5 60q0 28 -25.5 44.5t-88.5 28.5zM345 322q0 48 -32 80t-82 32t-80 -32t-30 -82q0 -47 30.5 -78.5t81.5 -31.5
t81.5 31.5t30.5 80.5zM284 569l-57 -23q-45 37 -45 85q0 52 72 116l43 -8q-55 -59 -55 -99q0 -36 42 -71z" />
    <glyph glyph-name="Hbar" unicode="&#x126;" horiz-adv-x="734" 
d="M627 0h-69v328h-383v-328h-68v525h-80l-10 58h90v107h68v-107h383v107h69v-107h85v-58h-85v-525zM175 389h383v137h-383v-137z" />
    <glyph glyph-name="hbar" unicode="&#x127;" 
d="M294 577h-151v-171q88 77 166 77q69 0 105 -37.5t36 -106.5v-339h-66v326q0 98 -88 98q-69 0 -153 -82v-342h-66v577h-70l-9 55h79v74l66 12v-86h151v-55z" />
    <glyph glyph-name="Imacron" unicode="&#x12a;" horiz-adv-x="268" 
d="M168 0h-69v690h69v-690zM265 779h-260v56h260v-56z" />
    <glyph glyph-name="imacron" unicode="&#x12b;" horiz-adv-x="234" 
d="M149 0h-65v473h65v-473zM248 577h-260v56h260v-56z" />
    <glyph glyph-name="Ibreve" unicode="&#x12c;" horiz-adv-x="268" 
d="M168 0h-69v690h69v-690zM267 867q-9 -50 -42 -81t-91 -31q-57 0 -90 31t-41 81l46 9q17 -63 86 -63q66 0 85 63z" />
    <glyph glyph-name="ibreve" unicode="&#x12d;" horiz-adv-x="234" 
d="M149 0h-65v473h65v-473zM250 665q-9 -50 -42 -81t-91 -31q-57 0 -90 31t-41 81l46 9q17 -63 86 -63q66 0 85 63z" />
    <glyph glyph-name="Iogonek" unicode="&#x12e;" horiz-adv-x="268" 
d="M168 0h-9l-20 -29q-31 -44 -31 -68q0 -34 39 -34q20 0 41 6v-42q-30 -11 -60 -11q-36 0 -55.5 17.5t-19.5 49.5q0 41 50 100l8 11h-12v690h69v-690z" />
    <glyph glyph-name="iogonek" unicode="&#x12f;" horiz-adv-x="234" 
d="M149 0h-6l-20 -29q-31 -44 -31 -68q0 -34 39 -34q20 0 41 6v-42q-30 -11 -60 -11q-36 0 -55.5 17.5t-19.5 49.5q0 41 50 100l8 11h-11v473h65v-463h1l-1 -2v-8zM164 634q0 -20 -14 -34t-33 -14t-33.5 14t-14.5 34t14.5 34t33.5 14t33 -14t14 -34z" />
    <glyph glyph-name="Idotaccent" unicode="&#x130;" horiz-adv-x="268" 
d="M168 0h-69v690h69v-690zM177 759h-84v89h84v-89z" />
    <glyph glyph-name="dotlessi" unicode="&#x131;" horiz-adv-x="234" 
d="M149 0h-65v473h65v-473z" />
    <glyph glyph-name="Kcommaaccent" unicode="&#x136;" horiz-adv-x="606" 
d="M252 -86l57 23q45 -37 45 -85q0 -52 -72 -116l-43 8q55 59 55 99q0 36 -42 71zM589 9l-78 -16l-350 363v-356h-69v690h69v-314l320 314h89l-332 -322z" />
    <glyph glyph-name="kcommaaccent" unicode="&#x137;" horiz-adv-x="466" 
d="M187 -88l57 23q45 -37 45 -85q0 -52 -72 -116l-43 8q55 59 55 99q0 36 -42 71zM450 6l-72 -13l-235 258v-251h-66v706l66 12v-448l206 203h85l-221 -211z" />
    <glyph glyph-name="Lacute" unicode="&#x139;" horiz-adv-x="466" 
d="M295 884l-136 -134h-46l97 153zM437 0h-345v690h69v-626h266z" />
    <glyph glyph-name="lacute" unicode="&#x13a;" horiz-adv-x="234" 
d="M274 898l-136 -134h-46l97 153zM149 0h-65v706l65 12v-718z" />
    <glyph glyph-name="Lcommaaccent" unicode="&#x13b;" horiz-adv-x="466" 
d="M206 -88l57 23q45 -37 45 -85q0 -52 -72 -116l-43 8q55 59 55 99q0 36 -42 71zM437 0h-345v690h69v-626h266z" />
    <glyph glyph-name="lcommaaccent" unicode="&#x13c;" horiz-adv-x="234" 
d="M66 -88l57 23q45 -37 45 -85q0 -52 -72 -116l-43 8q55 59 55 99q0 36 -42 71zM149 0h-65v706l65 12v-718z" />
    <glyph glyph-name="Lcaron" unicode="&#x13d;" horiz-adv-x="466" 
d="M308 693q20 -38 20 -70q0 -63 -64 -120l-33 7q36 52 36 95q0 31 -23 77zM437 0h-345v690h69v-626h266z" />
    <glyph glyph-name="lcaron" unicode="&#x13e;" horiz-adv-x="234" 
d="M270 719q20 -38 20 -70q0 -63 -64 -120l-33 7q36 52 36 95q0 31 -23 77zM149 0h-65v706l65 12v-718z" />
    <glyph glyph-name="Ldot" unicode="&#x13f;" horiz-adv-x="466" 
d="M398 304h-82v88h82v-88zM437 0h-345v690h69v-626h266z" />
    <glyph glyph-name="ldot" unicode="&#x140;" horiz-adv-x="274" 
d="M149 0h-65v706l65 12v-718zM287 311h-66v88h66v-88z" />
    <glyph glyph-name="Lslash" unicode="&#x141;" horiz-adv-x="481" 
d="M334 403l-159 -88v-252h266l10 -63h-344v277l-80 -45l-10 62l90 49v347h68v-309l159 90v-68z" />
    <glyph glyph-name="lslash" unicode="&#x142;" horiz-adv-x="272" 
d="M168 0h-64v299l-79 -44l-10 61l89 49v341l64 12v-317l85 47v-67l-85 -47v-334z" />
    <glyph glyph-name="Nacute" unicode="&#x143;" horiz-adv-x="705" 
d="M507 881l-136 -134h-46l97 153zM613 0h-53l-403 581v-581h-65v690h65l391 -563v563h65v-690z" />
    <glyph glyph-name="nacute" unicode="&#x144;" 
d="M414 684l-136 -134h-46l97 153zM450 0h-66v326q0 98 -88 98q-69 0 -153 -82v-342h-66v473h51l11 -70q90 80 170 80q69 0 105 -38t36 -107v-338z" />
    <glyph glyph-name="Ncommaaccent" unicode="&#x145;" horiz-adv-x="705" 
d="M303 -86l57 23q45 -37 45 -85q0 -52 -72 -116l-43 8q55 59 55 99q0 36 -42 71zM613 0h-53l-403 581v-581h-65v690h65l391 -563v563h65v-690z" />
    <glyph glyph-name="ncommaaccent" unicode="&#x146;" 
d="M210 -88l57 23q45 -37 45 -85q0 -52 -72 -116l-43 8q55 59 55 99q0 36 -42 71zM450 0h-66v326q0 98 -88 98q-69 0 -153 -82v-342h-66v473h51l11 -70q90 80 170 80q69 0 105 -38t36 -107v-338z" />
    <glyph glyph-name="Ncaron" unicode="&#x147;" horiz-adv-x="705" 
d="M221 892h42l92 -83l92 83h42l-103 -145h-62zM613 0h-53l-403 581v-581h-65v690h65l391 -563v563h65v-690z" />
    <glyph glyph-name="ncaron" unicode="&#x148;" 
d="M128 695h42l92 -83l92 83h42l-103 -145h-62zM450 0h-66v326q0 98 -88 98q-69 0 -153 -82v-342h-66v473h51l11 -70q90 80 170 80q69 0 105 -38t36 -107v-338z" />
    <glyph glyph-name="Omacron" unicode="&#x14c;" horiz-adv-x="745" 
d="M502 789h-260v56h260v-56zM684 346q0 -159 -87 -259t-226 -100q-138 0 -224 99.5t-86 257.5q0 159 87 259t225 100q139 0 225 -99t86 -258zM613 344q0 133 -66 215t-175 82q-108 0 -174 -81.5t-66 -213.5q0 -133 66 -215t175 -82q108 0 174 81.5t66 213.5z" />
    <glyph glyph-name="omacron" unicode="&#x14d;" 
d="M391 577h-260v56h260v-56zM475 236q0 -114 -60.5 -180t-154.5 -66q-93 0 -152.5 66t-59.5 180q0 115 60 181t152 66q95 0 155 -66t60 -181zM407 236q0 87 -40 139t-107 52q-66 0 -105.5 -51t-39.5 -140q0 -86 40 -138t105 -52q67 0 107 51t40 139z" />
    <glyph glyph-name="Obreve" unicode="&#x14e;" horiz-adv-x="745" 
d="M684 346q0 -159 -87 -259t-226 -100q-138 0 -224 99.5t-86 257.5q0 159 87 259t225 100q139 0 225 -99t86 -258zM613 344q0 133 -66 215t-175 82q-108 0 -174 -81.5t-66 -213.5q0 -133 66 -215t175 -82q108 0 174 81.5t66 213.5zM504 877q-9 -50 -42 -81t-91 -31
q-57 0 -90 31t-41 81l46 9q17 -63 86 -63q66 0 85 63z" />
    <glyph glyph-name="obreve" unicode="&#x14f;" 
d="M475 236q0 -114 -60.5 -180t-154.5 -66q-93 0 -152.5 66t-59.5 180q0 115 60 181t152 66q95 0 155 -66t60 -181zM407 236q0 87 -40 139t-107 52q-66 0 -105.5 -51t-39.5 -140q0 -86 40 -138t105 -52q67 0 107 51t40 139zM393 665q-9 -50 -42 -81t-91 -31q-57 0 -90 31
t-41 81l46 9q17 -63 86 -63q66 0 85 63z" />
    <glyph glyph-name="Ohungarumlaut" unicode="&#x150;" horiz-adv-x="745" 
d="M595 899l-134 -133h-40l95 152zM435 899l-134 -133h-41l96 152zM684 346q0 -159 -87 -259t-226 -100q-138 0 -224 99.5t-86 257.5q0 159 87 259t225 100q139 0 225 -99t86 -258zM613 344q0 133 -66 215t-175 82q-108 0 -174 -81.5t-66 -213.5q0 -133 66 -215t175 -82
q108 0 174 81.5t66 213.5z" />
    <glyph glyph-name="ohungarumlaut" unicode="&#x151;" 
d="M484 687l-134 -133h-40l95 152zM324 687l-134 -133h-41l96 152zM475 236q0 -114 -60.5 -180t-154.5 -66q-93 0 -152.5 66t-59.5 180q0 115 60 181t152 66q95 0 155 -66t60 -181zM407 236q0 87 -40 139t-107 52q-66 0 -105.5 -51t-39.5 -140q0 -86 40 -138t105 -52
q67 0 107 51t40 139z" />
    <glyph glyph-name="OE" unicode="&#x152;" horiz-adv-x="877" 
d="M831 0h-414q-168 0 -263 94t-95 250q0 159 98 252.5t264 93.5h400v-62h-288v-236h228l9 -62h-237v-268h298v-62zM464 62v566h-48q-134 0 -210.5 -72t-76.5 -211q0 -136 78 -209.5t210 -73.5h47z" />
    <glyph glyph-name="oe" unicode="&#x153;" horiz-adv-x="851" 
d="M801 246v-14h-328q1 -87 41.5 -136t109.5 -49q85 0 167 70l9 -60q-79 -67 -180 -67q-63 0 -110 30.5t-70 85.5q-25 -55 -71.5 -85.5t-109.5 -30.5q-93 0 -152 66t-59 180t60 180.5t151 66.5q64 0 111 -30.5t71 -85.5q24 55 68 85.5t104 30.5q91 0 139.5 -66.5
t48.5 -170.5zM734 284q-5 67 -36.5 106.5t-85.5 39.5q-55 0 -91 -38.5t-45 -107.5h258zM408 236q0 84 -39.5 137.5t-109.5 53.5q-68 0 -106 -52.5t-38 -138.5q0 -84 38.5 -137t105.5 -53q71 0 110 52t39 138z" />
    <glyph glyph-name="Racute" unicode="&#x154;" horiz-adv-x="567" 
d="M423 886l-136 -134h-46l97 153zM544 8l-72 -15l-220 308h-91v-301h-69v690h175q103 0 162.5 -50.5t59.5 -139.5q0 -77 -44.5 -125.5t-116.5 -64.5zM419 496q0 63 -40 98t-116 35h-102v-269h90q78 0 123 35.5t45 100.5z" />
    <glyph glyph-name="racute" unicode="&#x155;" horiz-adv-x="344" 
d="M331 684l-136 -134h-46l97 153zM320 421q-56 -4 -104 -39t-73 -85v-297h-66v473h49l15 -97q69 104 168 107z" />
    <glyph glyph-name="Rcommaaccent" unicode="&#x156;" horiz-adv-x="567" 
d="M233 -86l57 23q45 -37 45 -85q0 -52 -72 -116l-43 8q55 59 55 99q0 36 -42 71zM544 8l-72 -15l-220 308h-91v-301h-69v690h175q103 0 162.5 -50.5t59.5 -139.5q0 -77 -44.5 -125.5t-116.5 -64.5zM419 496q0 63 -40 98t-116 35h-102v-269h90q78 0 123 35.5t45 100.5z" />
    <glyph glyph-name="rcommaaccent" unicode="&#x157;" horiz-adv-x="344" 
d="M72 -88l57 23q45 -37 45 -85q0 -52 -72 -116l-43 8q55 59 55 99q0 36 -42 71zM320 421q-56 -4 -104 -39t-73 -85v-297h-66v473h49l15 -97q69 104 168 107z" />
    <glyph glyph-name="Rcaron" unicode="&#x158;" horiz-adv-x="567" 
d="M136 897h42l92 -83l92 83h42l-103 -145h-62zM544 8l-72 -15l-220 308h-91v-301h-69v690h175q103 0 162.5 -50.5t59.5 -139.5q0 -77 -44.5 -125.5t-116.5 -64.5zM419 496q0 63 -40 98t-116 35h-102v-269h90q78 0 123 35.5t45 100.5z" />
    <glyph glyph-name="rcaron" unicode="&#x159;" horiz-adv-x="344" 
d="M45 695h42l92 -83l92 83h42l-103 -145h-62zM320 421q-56 -4 -104 -39t-73 -85v-297h-66v473h49l15 -97q69 104 168 107z" />
    <glyph glyph-name="Sacute" unicode="&#x15a;" horiz-adv-x="512" 
d="M416 896l-136 -134h-46l97 153zM458 182q0 -87 -60.5 -138.5t-153.5 -51.5q-101 0 -183 43l10 70q81 -52 176 -52q62 0 102 33.5t40 90.5q0 51 -30 82t-109 66q-102 45 -141 86.5t-39 112.5q0 77 56 125.5t142 48.5q90 0 152 -36l-10 -69q-66 44 -145 44q-59 0 -92.5 -31
t-33.5 -78q0 -46 29 -74.5t110 -64.5q99 -43 139.5 -88t40.5 -119z" />
    <glyph glyph-name="sacute" unicode="&#x15b;" horiz-adv-x="438" 
d="M376 684l-136 -134h-46l97 153zM391 128q0 -64 -47 -100.5t-129 -36.5q-93 0 -170 43l11 64q80 -51 165 -51q50 0 78.5 20t28.5 56q0 35 -25.5 54.5t-96.5 38.5q-81 21 -115.5 51.5t-34.5 87.5q0 56 44 92t117 36q76 0 147 -32l-11 -63q-69 37 -138 37q-47 0 -71.5 -18.5
t-24.5 -48.5q0 -29 23 -46.5t83 -33.5q88 -24 127 -56.5t39 -93.5z" />
    <glyph glyph-name="Scedilla" unicode="&#x15e;" horiz-adv-x="512" 
d="M458 182q0 -87 -60.5 -138.5t-153.5 -51.5q-101 0 -183 43l10 70q81 -52 176 -52q62 0 102 33.5t40 90.5q0 51 -30 82t-109 66q-102 45 -141 86.5t-39 112.5q0 77 56 125.5t142 48.5q90 0 152 -36l-10 -69q-66 44 -145 44q-59 0 -92.5 -31t-33.5 -78q0 -46 29 -74.5
t110 -64.5q99 -43 139.5 -88t40.5 -119zM315 -84l-122 -114h-46l84 134z" />
    <glyph glyph-name="scedilla" unicode="&#x15f;" horiz-adv-x="438" 
d="M391 128q0 -64 -47 -100.5t-129 -36.5q-93 0 -170 43l11 64q80 -51 165 -51q50 0 78.5 20t28.5 56q0 35 -25.5 54.5t-96.5 38.5q-81 21 -115.5 51.5t-34.5 87.5q0 56 44 92t117 36q76 0 147 -32l-11 -63q-69 37 -138 37q-47 0 -71.5 -18.5t-24.5 -48.5q0 -29 23 -46.5
t83 -33.5q88 -24 127 -56.5t39 -93.5zM275 -82l-122 -114h-46l84 134z" />
    <glyph glyph-name="Scaron" unicode="&#x160;" horiz-adv-x="512" 
d="M129 907h42l92 -83l92 83h42l-103 -145h-62zM458 182q0 -87 -60.5 -138.5t-153.5 -51.5q-101 0 -183 43l10 70q81 -52 176 -52q62 0 102 33.5t40 90.5q0 51 -30 82t-109 66q-102 45 -141 86.5t-39 112.5q0 77 56 125.5t142 48.5q90 0 152 -36l-10 -69q-66 44 -145 44
q-59 0 -92.5 -31t-33.5 -78q0 -46 29 -74.5t110 -64.5q99 -43 139.5 -88t40.5 -119z" />
    <glyph glyph-name="scaron" unicode="&#x161;" horiz-adv-x="438" 
d="M90 695h42l92 -83l92 83h42l-103 -145h-62zM391 128q0 -64 -47 -100.5t-129 -36.5q-93 0 -170 43l11 64q80 -51 165 -51q50 0 78.5 20t28.5 56q0 35 -25.5 54.5t-96.5 38.5q-81 21 -115.5 51.5t-34.5 87.5q0 56 44 92t117 36q76 0 147 -32l-11 -63q-69 37 -138 37
q-47 0 -71.5 -18.5t-24.5 -48.5q0 -29 23 -46.5t83 -33.5q88 -24 127 -56.5t39 -93.5z" />
    <glyph glyph-name="Tcommaaccent" unicode="&#x162;" horiz-adv-x="579" 
d="M241 -88l57 23q45 -37 45 -85q0 -52 -72 -116l-43 8q55 59 55 99q0 36 -42 71zM550 627h-226v-627h-69v627h-222v63h508z" />
    <glyph glyph-name="Tcommaaccent" unicode="&#x21a;" horiz-adv-x="579" 
d="M241 -88l57 23q45 -37 45 -85q0 -52 -72 -116l-43 8q55 59 55 99q0 36 -42 71zM550 627h-226v-627h-69v627h-222v63h508z" />
    <glyph glyph-name="tcommaaccent" unicode="&#x163;" horiz-adv-x="330" 
d="M138 -88l57 23q45 -37 45 -85q0 -52 -72 -116l-43 8q55 59 55 99q0 36 -42 71zM289 0q-28 -8 -66 -8q-123 0 -123 116v309h-73v56h73v164l65 11v-175h109l9 -56h-118v-298q0 -36 16 -52.5t54 -16.5q17 0 44 5z" />
    <glyph glyph-name="tcommaaccent" unicode="&#x21b;" horiz-adv-x="330" 
d="M138 -88l57 23q45 -37 45 -85q0 -52 -72 -116l-43 8q55 59 55 99q0 36 -42 71zM289 0q-28 -8 -66 -8q-123 0 -123 116v309h-73v56h73v164l65 11v-175h109l9 -56h-118v-298q0 -36 16 -52.5t54 -16.5q17 0 44 5z" />
    <glyph glyph-name="Tcaron" unicode="&#x164;" horiz-adv-x="579" 
d="M159 897h42l92 -83l92 83h42l-103 -145h-62zM550 627h-226v-627h-69v627h-222v63h508z" />
    <glyph glyph-name="tcaron" unicode="&#x165;" horiz-adv-x="330" 
d="M295 734q20 -38 20 -70q0 -63 -64 -120l-33 7q36 52 36 95q0 31 -23 77zM289 0q-28 -8 -66 -8q-123 0 -123 116v309h-73v56h73v164l65 11v-175h109l9 -56h-118v-298q0 -36 16 -52.5t54 -16.5q17 0 44 5z" />
    <glyph glyph-name="Umacron" unicode="&#x16a;" horiz-adv-x="681" 
d="M600 263q0 -126 -70 -200t-191 -74q-120 0 -189 73.5t-69 195.5v432h69v-423q0 -99 48.5 -157.5t141.5 -58.5q92 0 141.5 56.5t49.5 155.5v427h69v-427zM470 774h-260v56h260v-56z" />
    <glyph glyph-name="umacron" unicode="&#x16b;" 
d="M446 0h-51l-11 70q-90 -80 -170 -80q-70 0 -105.5 38t-35.5 107v338h66v-326q0 -97 88 -97q70 0 153 81v342h66v-473zM390 575h-260v56h260v-56z" />
    <glyph glyph-name="Ubreve" unicode="&#x16c;" horiz-adv-x="681" 
d="M600 263q0 -126 -70 -200t-191 -74q-120 0 -189 73.5t-69 195.5v432h69v-423q0 -99 48.5 -157.5t141.5 -58.5q92 0 141.5 56.5t49.5 155.5v427h69v-427zM472 855q-9 -50 -42 -81t-91 -31q-57 0 -90 31t-41 81l46 9q17 -63 86 -63q66 0 85 63z" />
    <glyph glyph-name="ubreve" unicode="&#x16d;" 
d="M446 0h-51l-11 70q-90 -80 -170 -80q-70 0 -105.5 38t-35.5 107v338h66v-326q0 -97 88 -97q70 0 153 81v342h66v-473zM392 663q-9 -50 -42 -81t-91 -31q-57 0 -90 31t-41 81l46 9q17 -63 86 -63q66 0 85 63z" />
    <glyph glyph-name="Uring" unicode="&#x16e;" horiz-adv-x="681" 
d="M438 829q0 -42 -28 -69t-70 -27t-70 27t-28 69t28 70.5t70 28.5t70 -28.5t28 -70.5zM398 829q0 26 -16.5 44t-41.5 18t-42 -18t-17 -44t17 -43t42 -17t41.5 17t16.5 43zM600 263q0 -126 -70 -200t-191 -74q-120 0 -189 73.5t-69 195.5v432h69v-423q0 -99 48.5 -157.5
t141.5 -58.5q92 0 141.5 56.5t49.5 155.5v427h69v-427z" />
    <glyph glyph-name="uring" unicode="&#x16f;" 
d="M357 642q0 -42 -28 -69t-70 -27t-70 27t-28 69t28 70.5t70 28.5t70 -28.5t28 -70.5zM317 642q0 26 -16.5 44t-41.5 18t-42 -18t-17 -44t17 -43t42 -17t41.5 17t16.5 43zM446 0h-51l-11 70q-90 -80 -170 -80q-70 0 -105.5 38t-35.5 107v338h66v-326q0 -97 88 -97
q70 0 153 81v342h66v-473z" />
    <glyph glyph-name="Uhungarumlaut" unicode="&#x170;" horiz-adv-x="681" 
d="M600 263q0 -126 -70 -200t-191 -74q-120 0 -189 73.5t-69 195.5v432h69v-423q0 -99 48.5 -157.5t141.5 -58.5q92 0 141.5 56.5t49.5 155.5v427h69v-427zM562 884l-134 -133h-40l95 152zM402 884l-134 -133h-41l96 152z" />
    <glyph glyph-name="uhungarumlaut" unicode="&#x171;" 
d="M446 0h-51l-11 70q-90 -80 -170 -80q-70 0 -105.5 38t-35.5 107v338h66v-326q0 -97 88 -97q70 0 153 81v342h66v-473zM482 685l-134 -133h-40l95 152zM322 685l-134 -133h-41l96 152z" />
    <glyph glyph-name="Uogonek" unicode="&#x172;" horiz-adv-x="681" 
d="M600 263q0 -118 -61.5 -190.5t-169.5 -81.5l-13 -20q-31 -44 -31 -68q0 -34 39 -34q20 0 41 6v-42q-30 -11 -60 -11q-36 0 -55.5 17.5t-19.5 49.5q0 41 50 100v1q-112 6 -175.5 78.5t-63.5 189.5v432h69v-423q0 -99 48.5 -157.5t141.5 -58.5q92 0 141.5 56.5t49.5 155.5
v427h69v-427z" />
    <glyph glyph-name="uogonek" unicode="&#x173;" 
d="M446 0h-9l-20 -29q-31 -44 -31 -68q0 -34 39 -34q20 0 41 6v-42q-30 -11 -60 -11q-36 0 -55.5 17.5t-19.5 49.5q0 41 50 100l13 17l-10 64q-90 -80 -170 -80q-70 0 -105.5 38t-35.5 107v338h66v-326q0 -97 88 -97q70 0 153 81v342h66v-473z" />
    <glyph glyph-name="Wcircumflex" unicode="&#x174;" horiz-adv-x="1026" 
d="M647 749h-42l-92 83l-92 -83h-42l103 145h62zM980 690l-208 -692h-60l-200 597l-199 -597h-58l-207 684l68 15l172 -591l190 584h71l192 -584l169 584h70z" />
    <glyph glyph-name="wcircumflex" unicode="&#x175;" horiz-adv-x="728" 
d="M498 545h-42l-92 83l-92 -83h-42l103 145h62zM696 473l-157 -477h-58l-118 388l-117 -388h-57l-157 473l64 12l122 -397l118 391h57l119 -391l117 389h67z" />
    <glyph glyph-name="Ycircumflex" unicode="&#x176;" horiz-adv-x="628" 
d="M595 690l-248 -404v-286h-69v286l-244 397l71 14l209 -349l203 342h78zM447 747h-42l-92 83l-92 -83h-42l103 145h62z" />
    <glyph glyph-name="ycircumflex" unicode="&#x177;" horiz-adv-x="480" 
d="M450 473l-201 -535q-24 -66 -57 -92t-85 -26q-8 0 -29 3l-10 59q22 -4 38 -4q31 0 50.5 16t33.5 54l20 49l-179 470l65 12l146 -402l139 396h69zM375 548h-42l-92 83l-92 -83h-42l103 145h62z" />
    <glyph glyph-name="Ydieresis" unicode="&#x178;" horiz-adv-x="628" 
d="M595 690l-248 -404v-286h-69v286l-244 397l71 14l209 -349l203 342h78zM442 756h-83v89h83v-89zM269 756h-82v89h82v-89z" />
    <glyph glyph-name="Zacute" unicode="&#x179;" horiz-adv-x="598" 
d="M454 886l-136 -134h-46l97 153zM550 0h-498v50l408 580h-379l-9 60h471v-50l-407 -580h405z" />
    <glyph glyph-name="zacute" unicode="&#x17a;" horiz-adv-x="449" 
d="M377 684l-136 -134h-46l97 153zM407 0h-366v51l282 367h-258l-9 55h343v-51l-282 -367h281z" />
    <glyph glyph-name="Zdotaccent" unicode="&#x17b;" horiz-adv-x="598" 
d="M550 0h-498v50l408 580h-379l-9 60h471v-50l-407 -580h405zM344 759h-84v89h84v-89z" />
    <glyph glyph-name="zdotaccent" unicode="&#x17c;" horiz-adv-x="449" 
d="M407 0h-366v51l282 367h-258l-9 55h343v-51l-282 -367h281zM267 557h-84v89h84v-89z" />
    <glyph glyph-name="Zcaron" unicode="&#x17d;" horiz-adv-x="598" 
d="M168 897h42l92 -83l92 83h42l-103 -145h-62zM550 0h-498v50l408 580h-379l-9 60h471v-50l-407 -580h405z" />
    <glyph glyph-name="zcaron" unicode="&#x17e;" horiz-adv-x="449" 
d="M91 695h42l92 -83l92 83h42l-103 -145h-62zM407 0h-366v51l282 367h-258l-9 55h343v-51l-282 -367h281z" />
    <glyph glyph-name="florin" unicode="&#x192;" horiz-adv-x="381" 
d="M311 453v-56h-111l-63 -397h-64l62 397h-68l9 56h68l16 98q11 70 46.5 101.5t102.5 31.5q13 0 43 -3v-60q-24 4 -44 4q-38 0 -57 -19.5t-27 -63.5l-15 -89h102z" />
    <glyph glyph-name="Aringacute" unicode="&#x1fa;" horiz-adv-x="691" 
d="M444 732q0 -55 -45 -82l253 -642l-67 -15l-89 230h-302l-85 -223h-70l254 649q-46 28 -46 83q0 41 28.5 70t70.5 29t70 -28.5t28 -70.5zM345 614l-127 -330h254zM404 732q0 26 -16.5 44t-41.5 18t-42 -18t-17 -44t17 -43.5t42 -17.5t41.5 17.5t16.5 43.5zM492 993
l-136 -134h-46l97 153z" />
    <glyph glyph-name="aringacute" unicode="&#x1fb;" horiz-adv-x="489" 
d="M416 0h-50l-11 63q-78 -73 -167 -73q-63 0 -102 34t-39 95q0 83 71.5 125.5t232.5 58.5v31q0 91 -98 91q-76 0 -163 -42l-9 59q94 41 176 41q159 0 159 -146v-337zM351 117v134q-90 -9 -144 -27.5t-74 -42.5t-20 -58q0 -37 23 -57t62 -20q77 0 153 71zM394 912l-136 -134
h-46l97 153zM342 644q0 -42 -28 -69t-70 -27t-70 27t-28 69t28 70.5t70 28.5t70 -28.5t28 -70.5zM302 644q0 26 -16.5 44t-41.5 18t-42 -18t-17 -44t17 -43t42 -17t41.5 17t16.5 43z" />
    <glyph glyph-name="AEacute" unicode="&#x1fc;" horiz-adv-x="873" 
d="M10 0l410 690h397v-62h-291v-236h231l9 -62h-240v-268h301v-62h-368v223h-243l-131 -223h-75zM251 283h208v351zM674 886l-136 -134h-46l97 153z" />
    <glyph glyph-name="aeacute" unicode="&#x1fd;" horiz-adv-x="790" 
d="M546 684l-136 -134h-46l97 153zM740 246v-14h-328q1 -87 41.5 -136t109.5 -49q85 0 167 70l9 -60q-77 -67 -180 -67q-109 0 -169 85q-92 -85 -194 -85q-66 0 -107.5 34t-41.5 95q0 81 70 124t230 59v34q0 89 -94 89q-76 0 -163 -42l-9 59q92 41 173 41q116 0 143 -85
q53 85 154 85q92 0 140.5 -66.5t48.5 -170.5zM673 284q-5 67 -36.5 106.5t-85.5 39.5q-55 0 -91 -38.5t-45 -107.5h258zM366 121q-19 54 -19 116v14q-130 -14 -182 -45t-52 -82q0 -37 24 -57.5t66 -20.5q82 0 163 75z" />
    <glyph glyph-name="Oslashacute" unicode="&#x1fe;" horiz-adv-x="745" 
d="M684 346q0 -159 -87 -259t-226 -100q-116 0 -197 72l-56 -67l-61 13l78 95q-74 98 -74 244q0 159 87 259t225 100q117 0 198 -72l55 67l62 -13l-79 -95q75 -97 75 -244zM372 642q-109 0 -175.5 -82t-66.5 -214q0 -117 49 -194l351 428q-64 62 -158 62zM615 344
q0 115 -50 193l-351 -428q64 -61 159 -61q109 0 175.5 82t66.5 214zM525 896l-136 -134h-46l97 153z" />
    <glyph glyph-name="oslashacute" unicode="&#x1ff;" 
d="M475 236q0 -114 -60.5 -180t-154.5 -66q-76 0 -129 42l-34 -43l-56 12l54 69q-47 64 -47 166q0 115 60 181t152 66q76 0 131 -43l36 45l56 -13l-56 -70q48 -66 48 -166zM260 429q-68 0 -108 -52t-40 -141q0 -70 25 -116l217 272q-39 37 -94 37zM410 236q0 69 -26 116
l-217 -272q39 -36 93 -36q69 0 109.5 52t40.5 140zM414 684l-136 -134h-46l97 153z" />
    <glyph glyph-name="Scommaaccent" unicode="&#x218;" horiz-adv-x="512" 
d="M211 -90l57 23q45 -37 45 -85q0 -52 -72 -116l-43 8q55 59 55 99q0 36 -42 71zM458 182q0 -87 -60.5 -138.5t-153.5 -51.5q-101 0 -183 43l10 70q81 -52 176 -52q62 0 102 33.5t40 90.5q0 51 -30 82t-109 66q-102 45 -141 86.5t-39 112.5q0 77 56 125.5t142 48.5
q90 0 152 -36l-10 -69q-66 44 -145 44q-59 0 -92.5 -31t-33.5 -78q0 -46 29 -74.5t110 -64.5q99 -43 139.5 -88t40.5 -119z" />
    <glyph glyph-name="scommaaccent" unicode="&#x219;" horiz-adv-x="438" 
d="M171 -88l57 23q45 -37 45 -85q0 -52 -72 -116l-43 8q55 59 55 99q0 36 -42 71zM391 128q0 -64 -47 -100.5t-129 -36.5q-93 0 -170 43l11 64q80 -51 165 -51q50 0 78.5 20t28.5 56q0 35 -25.5 54.5t-96.5 38.5q-81 21 -115.5 51.5t-34.5 87.5q0 56 44 92t117 36
q76 0 147 -32l-11 -63q-69 37 -138 37q-47 0 -71.5 -18.5t-24.5 -48.5q0 -29 23 -46.5t83 -33.5q88 -24 127 -56.5t39 -93.5z" />
    <glyph glyph-name="schwa" unicode="&#x259;" horiz-adv-x="491" 
d="M49 416q79 67 180 67q96 0 155 -64t59 -183q0 -112 -57 -179t-146 -67q-93 0 -142.5 66.5t-49.5 170.5v14h328q-2 88 -41 136.5t-110 48.5q-86 0 -166 -70zM240 43q53 0 88 38t45 108h-258q5 -66 37.5 -106t87.5 -40z" />
    <glyph glyph-name="circumflex" unicode="&#x2c6;" horiz-adv-x="456" 
d="M361 550h-42l-92 83l-92 -83h-42l103 145h62z" />
    <glyph glyph-name="caron" unicode="&#x2c7;" horiz-adv-x="456" 
d="M95 695h42l92 -83l92 83h42l-103 -145h-62z" />
    <glyph glyph-name="breve" unicode="&#x2d8;" horiz-adv-x="456" 
d="M360 665q-9 -50 -42 -81t-91 -31q-57 0 -90 31t-41 81l46 9q17 -63 86 -63q66 0 85 63z" />
    <glyph glyph-name="dotaccent" unicode="&#x2d9;" horiz-adv-x="456" 
d="M270 557h-84v89h84v-89z" />
    <glyph glyph-name="ring" unicode="&#x2da;" horiz-adv-x="456" 
d="M326 644q0 -42 -28 -69t-70 -27t-70 27t-28 69t28 70.5t70 28.5t70 -28.5t28 -70.5zM286 644q0 26 -16.5 44t-41.5 18t-42 -18t-17 -44t17 -43t42 -17t41.5 17t16.5 43z" />
    <glyph glyph-name="ogonek" unicode="&#x2db;" horiz-adv-x="456" 
d="M237 29l32 -19l-27 -39q-31 -44 -31 -68q0 -34 39 -34q20 0 41 6v-42q-30 -11 -60 -11q-36 0 -55.5 17.5t-19.5 49.5q0 41 50 100z" />
    <glyph glyph-name="tilde" unicode="&#x2dc;" horiz-adv-x="456" 
d="M375 659q-15 -103 -76 -103q-28 0 -75 25q-51 26 -64 26q-23 0 -36 -53l-44 9q15 104 76 104q26 0 75 -26q49 -25 63 -25q24 0 37 52z" />
    <glyph glyph-name="hungarumlaut" unicode="&#x2dd;" horiz-adv-x="456" 
d="M393 687l-134 -133h-40l95 152zM233 687l-134 -133h-41l96 152z" />
    <glyph glyph-name="commaaccent" unicode="&#x326;" horiz-adv-x="454" 
d="M160 -88l57 23q45 -37 45 -85q0 -52 -72 -116l-43 8q55 59 55 99q0 36 -42 71z" />
    <glyph glyph-name="uni0384" unicode="&#x384;" horiz-adv-x="456" 
d="M286 699l-66 -149h-39l26 149h79z" />
    <glyph glyph-name="uni0385" unicode="&#x385;" horiz-adv-x="456" 
d="M384 559h-79v89h79v-89zM150 559h-78v89h78v-89zM292 710l-64 -160h-39l28 160h75z" />
    <glyph glyph-name="uni0386" unicode="&#x386;" horiz-adv-x="691" 
d="M39 0l272 694h71l270 -686l-68 -15l-88 230h-301l-85 -223h-71zM345 614l-126 -330h253zM159 690l-55 -169h-39l16 169h78z" />
    <glyph glyph-name="uni0387" unicode="&#x387;" horiz-adv-x="227" 
d="M153 376h-78v97h78v-97z" />
    <glyph glyph-name="uni0388" unicode="&#x388;" horiz-adv-x="505" 
d="M42 690l-55 -169h-39l16 169h78zM462 0h-370v690h360v-63h-291v-235h230l10 -62h-240v-267h301v-63z" />
    <glyph glyph-name="uni0389" unicode="&#x389;" horiz-adv-x="705" 
d="M613 0h-69v330h-383v-330h-69v690h69v-298h383v298h69v-690zM42 690l-55 -169h-39l16 169h78z" />
    <glyph glyph-name="uni038A" unicode="&#x38a;" horiz-adv-x="268" 
d="M168 0h-69v690h69v-690zM46 690l-55 -169h-39l16 169h78z" />
    <glyph glyph-name="uni038C" unicode="&#x38c;" horiz-adv-x="745" 
d="M72 690l-55 -169h-39l16 169h78zM684 346q0 -159 -87 -259t-226 -100q-138 0 -224 99.5t-86 257.5q0 159 87 259t225 100q139 0 225 -99t86 -258zM613 344q0 133 -66 215t-175 82q-108 0 -174 -81.5t-66 -213.5q0 -133 66 -215t175 -82q108 0 174 81.5t66 213.5z" />
    <glyph glyph-name="uni038E" unicode="&#x38e;" horiz-adv-x="628" 
d="M595 690l-248 -404v-286h-69v286l-244 397l71 14l209 -349l203 342h78zM12 690l-55 -169h-39l16 169h78z" />
    <glyph glyph-name="uni038F" unicode="&#x38f;" horiz-adv-x="744" 
d="M76 61h160l-23 21q-71 64 -110 137.5t-39 171.5q0 133 85 222.5t223 89.5q140 0 224 -89t84 -223q0 -98 -39.5 -170.5t-111.5 -138.5l-23 -21h162v-61h-237l-8 58l53 51q64 61 98 126.5t34 156.5q-1 106 -65 177.5t-171 71.5q-108 0 -172 -71t-64 -178q0 -90 33.5 -155
t98.5 -128l53 -51l-8 -58h-237v61zM61 690l-55 -169h-39l16 169h78z" />
    <glyph glyph-name="uni0390" unicode="&#x390;" horiz-adv-x="255" 
d="M270 559h-79v89h79v-89zM36 559h-78v89h78v-89zM178 710l-64 -160h-39l28 160h75zM78 473h66v-375q0 -48 45 -48q18 0 39 7l-7 -56q-22 -8 -52 -8q-91 0 -91 101v379z" />
    <glyph glyph-name="uni0391" unicode="&#x391;" horiz-adv-x="691" 
d="M39 0l272 694h71l270 -686l-68 -15l-88 230h-301l-85 -223h-71zM345 614l-126 -330h253z" />
    <glyph glyph-name="uni0392" unicode="&#x392;" horiz-adv-x="547" 
d="M496 199q0 -97 -65.5 -148t-179.5 -51h-159v690h160q104 0 158.5 -46.5t54.5 -125.5q0 -108 -105 -151q136 -38 136 -168zM397 515q0 55 -37 85t-110 30h-90v-240h88q71 0 110 34.5t39 90.5zM428 195q0 69 -46 103.5t-129 34.5h-93v-273h97q79 0 125 35.5t46 99.5z" />
    <glyph glyph-name="uni0393" unicode="&#x393;" horiz-adv-x="472" 
d="M92 690h340l10 -64h-281v-626h-69v690z" />
    <glyph glyph-name="uni0394" unicode="&#x394;" horiz-adv-x="709" 
d="M47 50l272 644h72l271 -639l-8 -55h-599zM354 613l-232 -553h463z" />
    <glyph glyph-name="uni0395" unicode="&#x395;" horiz-adv-x="507" 
d="M462 0h-370v690h360v-63h-291v-235h230l10 -62h-240v-267h301v-63z" />
    <glyph glyph-name="uni0396" unicode="&#x396;" horiz-adv-x="598" 
d="M550 0h-498v50l408 580h-379l-9 60h471v-50l-407 -580h405z" />
    <glyph glyph-name="uni0397" unicode="&#x397;" horiz-adv-x="705" 
d="M613 0h-69v330h-383v-330h-69v690h69v-298h383v298h69v-690z" />
    <glyph glyph-name="uni0398" unicode="&#x398;" horiz-adv-x="745" 
d="M538 313h-331v63h331v-63zM613 344q0 135 -66 216.5t-175 81.5q-108 0 -174 -82t-66 -214q0 -137 66 -217.5t175 -80.5q108 0 174 82t66 214zM684 346q0 -159 -87 -259t-226 -100q-138 0 -224 99.5t-86 257.5q0 159 87 259t225 100q139 0 225 -99t86 -258z" />
    <glyph glyph-name="uni0399" unicode="&#x399;" horiz-adv-x="268" 
d="M168 0h-69v690h69v-690z" />
    <glyph glyph-name="uni039A" unicode="&#x39a;" horiz-adv-x="606" 
d="M589 9l-78 -16l-350 363v-356h-69v690h69v-314l320 314h89l-332 -322z" />
    <glyph glyph-name="uni039B" unicode="&#x39b;" horiz-adv-x="683" 
d="M39 0l272 694h64l269 -686l-69 -15l-233 613l-230 -606h-73z" />
    <glyph glyph-name="uni039C" unicode="&#x39c;" horiz-adv-x="907" 
d="M831 0h-67l-45 592l-239 -596h-55l-239 596l-45 -592h-64l55 690h85l237 -602l238 602h84z" />
    <glyph glyph-name="uni039D" unicode="&#x39d;" horiz-adv-x="705" 
d="M613 0h-53l-403 581v-581h-65v690h65l391 -563v563h65v-690z" />
    <glyph glyph-name="uni039E" unicode="&#x39e;" horiz-adv-x="552" 
d="M464 330h-372v62h362zM498 628h-444v62h444v-62zM503 0h-454v62h454v-62z" />
    <glyph glyph-name="uni039F" unicode="&#x39f;" horiz-adv-x="745" 
d="M684 346q0 -159 -87 -259t-226 -100q-138 0 -224 99.5t-86 257.5q0 159 87 259t225 100q139 0 225 -99t86 -258zM613 344q0 133 -66 215t-175 82q-108 0 -174 -81.5t-66 -213.5q0 -133 66 -215t175 -82q108 0 174 81.5t66 213.5z" />
    <glyph glyph-name="uni03A0" unicode="&#x3a0;" horiz-adv-x="697" 
d="M607 0h-68v628h-378v-628h-69v690h515v-690z" />
    <glyph glyph-name="uni03A1" unicode="&#x3a1;" horiz-adv-x="531" 
d="M489 496q0 -99 -66.5 -152t-175.5 -53h-86v-291h-69v690h170q107 0 167 -51t60 -143zM419 494q0 135 -161 135h-97v-277h89q80 0 124.5 35.5t44.5 106.5z" />
    <glyph glyph-name="uni03A3" unicode="&#x3a3;" horiz-adv-x="580" 
d="M302 359l-245 281v50h471v-60h-378l234 -268l-251 -302h401l9 -60h-496v50z" />
    <glyph glyph-name="uni03A4" unicode="&#x3a4;" horiz-adv-x="579" 
d="M550 627h-226v-627h-69v627h-222v63h508z" />
    <glyph glyph-name="uni03A5" unicode="&#x3a5;" horiz-adv-x="628" 
d="M595 690l-248 -404v-286h-69v286l-244 397l71 14l209 -349l203 342h78z" />
    <glyph glyph-name="uni03A6" unicode="&#x3a6;" horiz-adv-x="870" 
d="M469 -13h-68v79q-164 4 -255.5 81.5t-91.5 198.5t92 199.5t255 82.5v75h68v-75q164 -4 255.5 -82t91.5 -200q0 -120 -92.5 -198t-254.5 -82v-79zM123 347q0 -97 73 -157.5t206 -63.5v442q-133 -3 -206 -64t-73 -157zM746 347q0 97 -73 157.5t-205 63.5v-442
q132 3 205 63.5t73 157.5z" />
    <glyph glyph-name="uni03A7" unicode="&#x3a7;" horiz-adv-x="635" 
d="M596 9l-69 -15l-211 317l-204 -311h-76l242 359l-218 322l69 14l188 -285l183 280h76l-220 -328z" />
    <glyph glyph-name="uni03A8" unicode="&#x3a8;" horiz-adv-x="729" 
d="M399 0h-69v219q-263 2 -263 242v229h67v-224q0 -97 48 -141.5t148 -45.5v411h69v-411q101 1 148.5 44.5t47.5 140.5v226h67v-226q0 -243 -263 -245v-219z" />
    <glyph glyph-name="uni03A9" unicode="&#x3a9;" horiz-adv-x="744" 
d="M76 61h160l-23 21q-71 64 -110 137.5t-39 171.5q0 133 85 222.5t223 89.5q140 0 224 -89t84 -223q0 -98 -39.5 -170.5t-111.5 -138.5l-23 -21h162v-61h-237l-8 58l53 51q64 61 98 126.5t34 156.5q-1 106 -65 177.5t-171 71.5q-108 0 -172 -71t-64 -178q0 -90 33.5 -155
t98.5 -128l53 -51l-8 -58h-237v61z" />
    <glyph glyph-name="uni03AA" unicode="&#x3aa;" horiz-adv-x="268" 
d="M168 0h-69v690h69v-690zM262 761h-83v89h83v-89zM89 761h-82v89h82v-89z" />
    <glyph glyph-name="uni03AB" unicode="&#x3ab;" horiz-adv-x="628" 
d="M595 690l-248 -404v-286h-69v286l-244 397l71 14l209 -349l203 342h78zM442 756h-83v89h83v-89zM269 756h-82v89h82v-89z" />
    <glyph glyph-name="uni03AC" unicode="&#x3ac;" horiz-adv-x="618" 
d="M237 483q70 0 111 -41.5t78 -145.5l79 177h68l-116 -248l44 -123q11 -30 22.5 -41t32.5 -11q15 0 38 7l-8 -56q-22 -8 -48 -8q-39 0 -60 20t-37 70l-24 74q-44 -91 -84 -129t-103 -38q-79 0 -130.5 67t-51.5 178t53.5 179.5t135.5 68.5zM233 46q42 0 76.5 39t79.5 141
q-37 115 -70.5 158t-83.5 43q-52 0 -86 -54t-34 -135q0 -84 33.5 -138t84.5 -54zM376 699l-66 -149h-39l26 149h79z" />
    <glyph glyph-name="uni03AD" unicode="&#x3ad;" horiz-adv-x="461" 
d="M63 350q0 58 48.5 95.5t133.5 37.5q87 0 167 -44l-11 -57q-80 45 -158 45q-55 0 -84.5 -21.5t-29.5 -56.5q0 -80 132 -80h72l10 -56h-86q-65 0 -100.5 -23t-35.5 -64q0 -81 118 -81q86 0 173 46l11 -55q-88 -46 -186 -46q-89 0 -136 34.5t-47 95.5q0 44 27.5 75t76.5 45
q-95 25 -95 110zM327 699l-66 -149h-39l26 149h79z" />
    <glyph glyph-name="uni03AE" unicode="&#x3ae;" 
d="M341 699l-66 -149h-39l26 149h79zM77 473h51l11 -70q90 80 170 80q69 0 105 -38t36 -107v-509l-66 -12v509q0 98 -88 98q-69 0 -153 -82v-342h-66v473z" />
    <glyph glyph-name="uni03AF" unicode="&#x3af;" horiz-adv-x="255" 
d="M193 699l-66 -149h-39l26 149h79zM78 473h66v-375q0 -48 45 -48q18 0 39 7l-7 -56q-22 -8 -52 -8q-91 0 -91 101v379z" />
    <glyph glyph-name="uni03B0" unicode="&#x3b0;" horiz-adv-x="515" 
d="M413 557h-79v89h79v-89zM179 557h-78v89h78v-89zM321 708l-64 -160h-39l28 160h75zM443 177q0 -85 -49 -136t-137 -51q-89 0 -137.5 50.5t-48.5 134.5v298h66v-288q0 -65 30.5 -100.5t89.5 -35.5t89.5 34.5t30.5 98.5v291h66v-296z" />
    <glyph glyph-name="uni03B1" unicode="&#x3b1;" horiz-adv-x="618" 
d="M237 483q70 0 111 -41.5t78 -145.5l79 177h68l-116 -248l44 -123q11 -30 22.5 -41t32.5 -11q15 0 38 7l-8 -56q-22 -8 -48 -8q-39 0 -60 20t-37 70l-24 74q-44 -91 -84 -129t-103 -38q-79 0 -130.5 67t-51.5 178t53.5 179.5t135.5 68.5zM233 46q42 0 76.5 39t79.5 141
q-37 115 -70.5 158t-83.5 43q-52 0 -86 -54t-34 -135q0 -84 33.5 -138t84.5 -54z" />
    <glyph glyph-name="uni03B2" unicode="&#x3b2;" horiz-adv-x="548" 
d="M297 -10q-80 0 -155 44v-206l-65 -11v680q0 95 56 156t146 61q84 0 134 -50t50 -124q0 -130 -139 -179q85 -17 133.5 -64t48.5 -123q0 -80 -58.5 -132t-150.5 -52zM142 500v-403q80 -51 157 -51q62 0 101.5 36t39.5 89q0 65 -47 103t-144 57l-7 47q85 28 120.5 65
t35.5 92q0 52 -33 87t-88 35q-59 0 -97 -45t-38 -112z" />
    <glyph glyph-name="uni03B3" unicode="&#x3b3;" horiz-adv-x="481" 
d="M207 -183v61q0 122 -32 231.5t-94 231.5l-63 126l70 12l51 -108q85 -178 102 -314q15 143 99 314l52 102h71l-66 -130q-64 -127 -94 -234.5t-30 -230.5v-50z" />
    <glyph glyph-name="uni03B4" unicode="&#x3b4;" horiz-adv-x="533" 
d="M97 658v53h344l-8 -55h-250l155 -167q80 -83 113.5 -143.5t33.5 -128.5q0 -96 -62.5 -161.5t-159.5 -65.5t-156 65.5t-59 159.5q0 176 207 274zM417 215q0 58 -27 108t-97 125q-177 -83 -177 -229q0 -74 41.5 -123.5t106.5 -49.5t109 49t44 120z" />
    <glyph glyph-name="uni03B5" unicode="&#x3b5;" horiz-adv-x="461" 
d="M63 350q0 58 48.5 95.5t133.5 37.5q87 0 167 -44l-11 -57q-80 45 -158 45q-55 0 -84.5 -21.5t-29.5 -56.5q0 -80 132 -80h72l10 -56h-86q-65 0 -100.5 -23t-35.5 -64q0 -81 118 -81q86 0 173 46l11 -55q-88 -46 -186 -46q-89 0 -136 34.5t-47 95.5q0 44 27.5 75t76.5 45
q-95 25 -95 110z" />
    <glyph glyph-name="uni03B6" unicode="&#x3b6;" horiz-adv-x="436" 
d="M412 -43q0 -25 -12.5 -54.5t-48.5 -87.5l-60 9q53 94 53 118q0 17 -22 30t-100 39q-95 31 -133.5 71t-38.5 106q0 49 27 101t97 139l180 228h-265l9 55h326v-54l-199 -260q-63 -83 -85 -124t-22 -82q0 -43 29 -71t99 -51q105 -34 135.5 -55.5t30.5 -56.5z" />
    <glyph glyph-name="uni03B7" unicode="&#x3b7;" 
d="M77 473h51l11 -70q90 80 170 80q69 0 105 -38t36 -107v-509l-66 -12v509q0 98 -88 98q-69 0 -153 -82v-342h-66v473z" />
    <glyph glyph-name="uni03B8" unicode="&#x3b8;" horiz-adv-x="579" 
d="M290 714q107 0 168.5 -96t61.5 -266q0 -168 -62 -265t-168 -97q-108 0 -170 96t-62 265t62.5 266t169.5 97zM290 48q75 0 117.5 73.5t46.5 203.5h-330q4 -129 47.5 -203t118.5 -74zM290 657q-73 0 -117 -72.5t-49 -198.5h330q-5 127 -47.5 199t-116.5 72z" />
    <glyph glyph-name="uni03B9" unicode="&#x3b9;" horiz-adv-x="255" 
d="M78 473h66v-375q0 -48 45 -48q18 0 39 7l-7 -56q-22 -8 -52 -8q-91 0 -91 101v379z" />
    <glyph glyph-name="uni03BA" unicode="&#x3ba;" horiz-adv-x="467" 
d="M426 477l9 -62q-37 -2 -62 -16t-60 -50l-100 -100l235 -243l-75 -12l-230 243v-237h-66v473h66v-218l132 140q45 48 74.5 64t76.5 18z" />
    <glyph glyph-name="uni03BB" unicode="&#x3bb;" horiz-adv-x="484" 
d="M455 6l-65 -12l-143 400l-143 -394h-68l179 474l-42 111q-14 39 -32.5 55.5t-48.5 16.5q-16 0 -38 -5l9 57q14 4 37 4q51 0 81 -22.5t51 -80.5z" />
    <glyph glyph-name="uni03BC" unicode="&#x3bc;" horiz-adv-x="547" 
d="M77 -183v656h66v-329q0 -94 88 -94q72 0 153 81v342h66v-378q0 -45 39 -45q17 0 33 6l-8 -56q-18 -7 -43 -7q-35 0 -57.5 18.5t-26.5 56.5q-84 -77 -161 -77q-59 0 -93 43q9 -51 9 -149v-57z" />
    <glyph glyph-name="uni03BD" unicode="&#x3bd;" horiz-adv-x="479" 
d="M362 473h66v-41q0 -125 -40 -226t-119 -210h-61l-181 471l67 12l152 -417q60 94 88 176t28 193v42z" />
    <glyph glyph-name="uni03BE" unicode="&#x3be;" horiz-adv-x="450" 
d="M47 186q0 64 46.5 111.5t130.5 66.5q-62 17 -95.5 55.5t-33.5 91.5q0 93 97 145h-130l8 55h344v-53h-51q-97 -2 -149.5 -42t-52.5 -101q0 -58 48.5 -91.5t135.5 -33.5h37l7 -56h-39q-114 0 -174.5 -41.5t-60.5 -102.5q0 -44 32 -72.5t111 -53.5q101 -32 130.5 -52
t29.5 -53q0 -25 -13 -55t-49 -89l-59 9q53 97 53 118q0 17 -20 28.5t-96 35.5q-104 34 -145.5 74t-41.5 106z" />
    <glyph glyph-name="uni03BF" unicode="&#x3bf;" 
d="M475 236q0 -114 -60.5 -180t-154.5 -66q-93 0 -152.5 66t-59.5 180q0 115 60 181t152 66q95 0 155 -66t60 -181zM407 236q0 87 -40 139t-107 52q-66 0 -105.5 -51t-39.5 -140q0 -86 40 -138t105 -52q67 0 107 51t40 139z" />
    <glyph glyph-name="uni03C0" unicode="&#x3c0;" horiz-adv-x="583" 
d="M543 417h-95v-319q0 -48 45 -48q17 0 40 7l-8 -56q-22 -8 -51 -8q-92 0 -92 101v323h-198v-417h-66v417h-91l-8 56h524v-56z" />
    <glyph glyph-name="uni03C1" unicode="&#x3c1;" horiz-adv-x="521" 
d="M473 246q0 -121 -62 -186.5t-154 -65.5q-65 0 -124 27v-193l-65 -11v434q0 106 55.5 169t147.5 63q87 0 144.5 -61.5t57.5 -175.5zM405 244q0 85 -37 134t-99 49q-61 0 -98.5 -46.5t-37.5 -127.5v-172q56 -31 121 -31q66 0 108.5 50t42.5 144z" />
    <glyph glyph-name="uni03C2" unicode="&#x3c2;" horiz-adv-x="462" 
d="M48 249q0 104 61.5 169t153.5 65q88 0 155 -48l-11 -66q-67 57 -145 57q-64 0 -105.5 -49.5t-41.5 -126.5q0 -69 32.5 -107t103.5 -65q98 -38 128.5 -61t30.5 -57q0 -27 -13.5 -57.5t-48.5 -87.5l-60 9q55 98 55 122q0 18 -21 32t-95 42q-96 37 -137.5 87t-41.5 142z" />
    <glyph glyph-name="uni03C3" unicode="&#x3c3;" horiz-adv-x="551" 
d="M522 416h-113q66 -92 66 -193q0 -100 -60.5 -166.5t-156.5 -66.5q-92 0 -151 66.5t-59 172.5q0 109 67.5 176.5t184.5 67.5h214zM407 224q0 102 -68 192h-40q-85 0 -134.5 -52t-49.5 -137q0 -80 41 -130.5t101 -50.5q68 0 109 50t41 128z" />
    <glyph glyph-name="uni03C4" unicode="&#x3c4;" horiz-adv-x="453" 
d="M395 11q-49 -19 -97 -19q-122 0 -122 131v294h-153v56h385l9 -56h-176v-292q0 -76 68 -76q35 0 77 16z" />
    <glyph glyph-name="uni03C5" unicode="&#x3c5;" horiz-adv-x="515" 
d="M443 177q0 -85 -49 -136t-137 -51q-89 0 -137.5 50.5t-48.5 134.5v298h66v-288q0 -65 30.5 -100.5t89.5 -35.5t89.5 34.5t30.5 98.5v291h66v-296z" />
    <glyph glyph-name="uni03C6" unicode="&#x3c6;" horiz-adv-x="711" 
d="M668 237q0 -103 -74 -169t-206 -72v-168l-65 -11v179q-133 6 -206 70.5t-73 169.5q0 104 73.5 169t205.5 72v229l65 12v-241q133 -6 206.5 -71t73.5 -169zM111 236q0 -81 55 -130.5t158 -55.5v371q-103 -6 -158 -55.5t-55 -129.5zM600 236q0 80 -55.5 129.5t-157.5 55.5
v-371q103 6 158 56t55 130z" />
    <glyph glyph-name="uni03C7" unicode="&#x3c7;" horiz-adv-x="479" 
d="M448 473l-172 -304l193 -339l-66 -13l-163 298l-159 -292h-70l195 345l-171 300l66 13l141 -259l136 251h70z" />
    <glyph glyph-name="uni03C8" unicode="&#x3c8;" horiz-adv-x="670" 
d="M370 -171l-65 -12v177q-234 3 -234 225v254h65v-253q0 -166 169 -169v655l65 12v-667q168 3 168 169v253h65v-254q0 -109 -60 -166t-173 -59v-165z" />
    <glyph glyph-name="uni03C9" unicode="&#x3c9;" horiz-adv-x="775" 
d="M355 386h65v-98q0 -115 34 -177t95 -62q47 0 75.5 46t28.5 122q0 64 -22.5 121t-73.5 125l65 16q52 -66 75.5 -127.5t23.5 -134.5q0 -100 -46.5 -163.5t-122.5 -63.5q-130 0 -165 155q-35 -155 -164 -155q-76 0 -122.5 63.5t-46.5 163.5q0 73 23.5 134.5t75.5 127.5
l65 -16q-51 -67 -73.5 -124.5t-22.5 -121.5q0 -75 29 -121.5t76 -46.5q61 0 94.5 62t33.5 177v98z" />
    <glyph glyph-name="uni03CA" unicode="&#x3ca;" horiz-adv-x="255" 
d="M242 559h-83v89h83v-89zM69 559h-82v89h82v-89zM78 473h66v-375q0 -48 45 -48q18 0 39 7l-7 -56q-22 -8 -52 -8q-91 0 -91 101v379z" />
    <glyph glyph-name="uni03CB" unicode="&#x3cb;" horiz-adv-x="515" 
d="M385 557h-83v89h83v-89zM212 557h-82v89h82v-89zM443 177q0 -85 -49 -136t-137 -51q-89 0 -137.5 50.5t-48.5 134.5v298h66v-288q0 -65 30.5 -100.5t89.5 -35.5t89.5 34.5t30.5 98.5v291h66v-296z" />
    <glyph glyph-name="uni03CC" unicode="&#x3cc;" 
d="M340 699l-66 -149h-39l26 149h79zM475 236q0 -114 -60.5 -180t-154.5 -66q-93 0 -152.5 66t-59.5 180q0 115 60 181t152 66q95 0 155 -66t60 -181zM407 236q0 87 -40 139t-107 52q-66 0 -105.5 -51t-39.5 -140q0 -86 40 -138t105 -52q67 0 107 51t40 139z" />
    <glyph glyph-name="uni03CD" unicode="&#x3cd;" horiz-adv-x="515" 
d="M336 697l-66 -149h-39l26 149h79zM443 177q0 -85 -49 -136t-137 -51q-89 0 -137.5 50.5t-48.5 134.5v298h66v-288q0 -65 30.5 -100.5t89.5 -35.5t89.5 34.5t30.5 98.5v291h66v-296z" />
    <glyph glyph-name="uni03CE" unicode="&#x3ce;" horiz-adv-x="775" 
d="M355 386h65v-98q0 -115 34 -177t95 -62q47 0 75.5 46t28.5 122q0 64 -22.5 121t-73.5 125l65 16q52 -66 75.5 -127.5t23.5 -134.5q0 -100 -46.5 -163.5t-122.5 -63.5q-130 0 -165 155q-35 -155 -164 -155q-76 0 -122.5 63.5t-46.5 163.5q0 73 23.5 134.5t75.5 127.5
l65 -16q-51 -67 -73.5 -124.5t-22.5 -121.5q0 -75 29 -121.5t76 -46.5q61 0 94.5 62t33.5 177v98zM467 697l-66 -149h-39l26 149h79z" />
    <glyph glyph-name="Wgrave" unicode="&#x1e80;" horiz-adv-x="1026" 
d="M980 690l-208 -692h-60l-200 597l-199 -597h-58l-207 684l68 15l172 -591l190 584h71l192 -584l169 584h70zM542 752h-45l-136 134l86 19z" />
    <glyph glyph-name="wgrave" unicode="&#x1e81;" horiz-adv-x="728" 
d="M696 473l-157 -477h-58l-118 388l-117 -388h-57l-157 473l64 12l122 -397l118 391h57l119 -391l117 389h67zM393 550h-45l-136 134l86 19z" />
    <glyph glyph-name="Wacute" unicode="&#x1e82;" horiz-adv-x="1026" 
d="M666 886l-136 -134h-46l97 153zM980 690l-208 -692h-60l-200 597l-199 -597h-58l-207 684l68 15l172 -591l190 584h71l192 -584l169 584h70z" />
    <glyph glyph-name="wacute" unicode="&#x1e83;" horiz-adv-x="728" 
d="M517 684l-136 -134h-46l97 153zM696 473l-157 -477h-58l-118 388l-117 -388h-57l-157 473l64 12l122 -397l118 391h57l119 -391l117 389h67z" />
    <glyph glyph-name="Wdieresis" unicode="&#x1e84;" horiz-adv-x="1026" 
d="M641 761h-83v89h83v-89zM468 761h-82v89h82v-89zM980 690l-208 -692h-60l-200 597l-199 -597h-58l-207 684l68 15l172 -591l190 584h71l192 -584l169 584h70z" />
    <glyph glyph-name="wdieresis" unicode="&#x1e85;" horiz-adv-x="728" 
d="M492 559h-83v89h83v-89zM319 559h-82v89h82v-89zM696 473l-157 -477h-58l-118 388l-117 -388h-57l-157 473l64 12l122 -397l118 391h57l119 -391l117 389h67z" />
    <glyph glyph-name="Ygrave" unicode="&#x1ef2;" horiz-adv-x="628" 
d="M595 690l-248 -404v-286h-69v286l-244 397l71 14l209 -349l203 342h78zM342 747h-45l-136 134l86 19z" />
    <glyph glyph-name="ygrave" unicode="&#x1ef3;" horiz-adv-x="480" 
d="M450 473l-201 -535q-24 -66 -57 -92t-85 -26q-8 0 -29 3l-10 59q22 -4 38 -4q31 0 50.5 16t33.5 54l20 49l-179 470l65 12l146 -402l139 396h69zM271 548h-45l-136 134l86 19z" />
    <glyph glyph-name="enspace" unicode="&#x2002;" horiz-adv-x="500" 
 />
    <glyph glyph-name="emspace" unicode="&#x2003;" horiz-adv-x="1000" 
 />
    <glyph glyph-name="threeperemspace" unicode="&#x2004;" horiz-adv-x="333" 
 />
    <glyph glyph-name="fourperemspace" unicode="&#x2005;" horiz-adv-x="250" 
 />
    <glyph glyph-name="thinspace" unicode="&#x2009;" horiz-adv-x="133" 
 />
    <glyph glyph-name="hairspace" unicode="&#x200a;" horiz-adv-x="75" 
 />
    <glyph glyph-name="endash" unicode="&#x2013;" horiz-adv-x="456" 
d="M397 251h-339v64h339v-64z" />
    <glyph glyph-name="emdash" unicode="&#x2014;" horiz-adv-x="912" 
d="M853 252h-795v63h795v-63z" />
    <glyph glyph-name="quoteleft" unicode="&#x2018;" horiz-adv-x="219" 
d="M166 687l-35 -214h-80l78 223z" />
    <glyph glyph-name="quoteright" unicode="&#x2019;" horiz-adv-x="219" 
d="M167 690l-77 -223l-37 9l35 214h79z" />
    <glyph glyph-name="quotesinglbase" unicode="&#x201a;" horiz-adv-x="219" 
d="M160 98l-77 -222l-37 8l35 214h79z" />
    <glyph glyph-name="quotedblleft" unicode="&#x201c;" horiz-adv-x="388" 
d="M166 687l-35 -214h-80l78 223zM334 687l-34 -214h-80l78 223z" />
    <glyph glyph-name="quotedblright" unicode="&#x201d;" horiz-adv-x="388" 
d="M167 690l-77 -223l-37 9l35 214h79zM336 690l-77 -223l-37 9l34 214h80z" />
    <glyph glyph-name="quotedblbase" unicode="&#x201e;" horiz-adv-x="387" 
d="M164 98l-77 -222l-37 8l34 214h80zM333 98l-77 -222l-37 8l34 214h80z" />
    <glyph glyph-name="dagger" unicode="&#x2020;" horiz-adv-x="498" 
d="M278 592l-18 -114h-22l-17 114v98h57v-98zM447 414h-45l-116 18v21l116 18h45v-57zM213 432l-118 -18h-44v57h44l118 -18v-21zM276 -1l-18 -115h-18l-18 115v306l16 102h22l16 -102v-306z" />
    <glyph glyph-name="daggerdbl" unicode="&#x2021;" horiz-adv-x="517" 
d="M287 592l-18 -114h-21l-18 114v98h57v-98zM456 414h-45l-116 18v21l116 18h45v-57zM222 432l-117 -18h-45v57h45l117 -18v-21zM285 201l-16 -103h-21l-17 103v104l17 102h21l16 -102v-104zM456 35h-45l-116 17v21l116 18h45v-56zM222 52l-117 -17h-45v56h45l117 -18v-21z
M287 -185h-57v98l18 114h21l18 -114v-98z" />
    <glyph glyph-name="bullet" unicode="&#x2022;" horiz-adv-x="417" 
d="M325 348l-16 -109l-100 -17l-100 17l-17 109l17 109l100 16l100 -16z" />
    <glyph glyph-name="ellipsis" unicode="&#x2026;" horiz-adv-x="693" 
d="M617 0h-79v98h79v-98zM385 0h-78v98h78v-98zM155 0h-78v98h78v-98z" />
    <glyph glyph-name="guilsinglleft" unicode="&#x2039;" horiz-adv-x="313" 
d="M259 473l-144 -236l140 -230l-49 -12l-167 242l164 236h56z" />
    <glyph glyph-name="guilsinglright" unicode="&#x203a;" horiz-adv-x="313" 
d="M273 236l-164 -236h-55l143 236l-139 231l48 11z" />
    <glyph glyph-name="fraction" unicode="&#x2044;" horiz-adv-x="270" 
d="M-47 -8l-47 13l209 342l202 340l47 -13l-210 -342z" />
    <glyph glyph-name="Euro" unicode="&#x20ac;" horiz-adv-x="603" 
d="M32 402v54h99q25 108 93.5 170.5t164.5 62.5q94 0 167 -51l-11 -65q-77 58 -156 58q-72 0 -121.5 -46.5t-70.5 -128.5h250l9 -54h-270q-3 -30 -3 -64t2 -49h267v-53h-260q19 -90 70 -140.5t125 -50.5q84 0 171 63l9 -61q-84 -60 -183 -60q-100 0 -168 66.5t-89 182.5h-90
l-8 53h90q-1 15 -1 48t3 65h-89z" />
    <glyph glyph-name="published" unicode="&#x2117;" horiz-adv-x="806" 
d="M747 345q0 -158 -95 -258t-249 -100q-155 0 -250 99.5t-95 258.5q0 158 95 258t249 100q155 0 250 -99.5t95 -258.5zM713 345q0 149 -86.5 239t-224.5 90q-139 0 -224 -90t-85 -239t86 -239t225 -90t224 90t85 239zM543 425q0 -58 -39.5 -90t-103.5 -32h-46v-153h-53v393
h106q62 0 99 -31.5t37 -86.5zM490 423q0 35 -22.5 54t-62.5 19h-51v-146h48q41 0 64.5 19t23.5 54z" />
    <glyph glyph-name="servicemark" unicode="&#x2120;" horiz-adv-x="801" 
d="M732 345h-47l-20 268l-107 -269h-38l-106 268l-21 -267h-45l26 345h56l110 -283l110 283h55zM164 340q-53 0 -96 24l5 46q48 -29 92 -29q28 0 47 14t19 39q0 23 -14.5 38t-48.5 30q-54 24 -75 45t-21 58q0 39 29.5 64.5t74.5 25.5q46 0 83 -20l-7 -45q-40 24 -78 24
q-26 0 -42 -12.5t-16 -32.5q0 -22 14.5 -35.5t51.5 -29.5q51 -22 72 -45t21 -62q0 -45 -31.5 -71t-79.5 -26z" />
    <glyph glyph-name="trademark" unicode="&#x2122;" horiz-adv-x="801" 
d="M735 345h-47l-20 268l-107 -269h-38l-106 268l-21 -267h-45l26 345h56l111 -283l109 283h55zM303 647h-111v-302h-47v302h-108v43h260z" />
    <glyph glyph-name="minus" unicode="&#x2212;" horiz-adv-x="570" 
d="M512 309h-455v58h455v-58z" />
    <glyph glyph-name="M.alt" horiz-adv-x="884" 
d="M791 0h-66v580l-257 -583h-55l-257 583v-580h-63v690h85l264 -603l265 603h84v-690z" />
    <glyph glyph-name="Q.alt" horiz-adv-x="749" 
d="M698 52l-14 -66l-106 82q-84 -81 -207 -81q-139 0 -225 99.5t-86 257.5q0 159 87 259t226 100t225 -99.5t86 -257.5q0 -136 -68 -232zM613 344q0 133 -66.5 215t-175.5 82t-174.5 -81t-65.5 -214t66.5 -215t175.5 -82q91 0 154 58l-176 133l83 16l131 -103q48 76 48 191z
" />
    <glyph glyph-name="U.alt" horiz-adv-x="693" 
d="M548 0l-12 83q-109 -91 -221 -91q-108 0 -168 56.5t-60 171.5v470h69v-462q0 -174 163 -174q104 0 213 97v539h69v-690h-53z" />
    <glyph glyph-name="W.alt" horiz-adv-x="1015" 
d="M975 690l-254 -692h-61l-155 409l-151 -409h-61l-253 684l70 15l216 -606l147 402l-71 189l71 15l219 -606l210 599h73z" />
    <glyph glyph-name="g.alt" horiz-adv-x="529" 
d="M452 7q0 -90 -50.5 -138.5t-149.5 -48.5q-86 0 -175 36l11 63q81 -42 169 -42q129 0 129 127v67q-66 -72 -146 -72q-83 0 -137 59t-54 170q0 121 64 186.5t166 65.5q76 0 173 -31v-442zM386 141v262q-55 20 -110 20q-73 0 -116.5 -48.5t-43.5 -143.5q0 -82 36 -127.5
t94 -45.5q71 0 140 83z" />
    <glyph glyph-name="uni039C.alt" horiz-adv-x="884" 
d="M791 0h-66v580l-257 -583h-55l-257 583v-580h-63v690h85l264 -603l265 603h84v-690z" />
    <glyph glyph-name="gbreve.alt" horiz-adv-x="529" 
d="M452 7q0 -90 -50.5 -138.5t-149.5 -48.5q-86 0 -175 36l11 63q81 -42 169 -42q129 0 129 127v67q-66 -72 -146 -72q-83 0 -137 59t-54 170q0 121 64 186.5t166 65.5q76 0 173 -31v-442zM386 141v262q-55 20 -110 20q-73 0 -116.5 -48.5t-43.5 -143.5q0 -82 36 -127.5
t94 -45.5q71 0 140 83zM402 665q-9 -50 -42 -81t-91 -31q-57 0 -90 31t-41 81l46 9q17 -63 86 -63q66 0 85 63z" />
    <glyph glyph-name="gcommaaccent.alt" horiz-adv-x="529" 
d="M317 569l-57 -23q-45 37 -45 85q0 52 72 116l43 -8q-55 -59 -55 -99q0 -36 42 -71zM452 7q0 -90 -50.5 -138.5t-149.5 -48.5q-86 0 -175 36l11 63q81 -42 169 -42q129 0 129 127v67q-66 -72 -146 -72q-83 0 -137 59t-54 170q0 121 64 186.5t166 65.5q76 0 173 -31v-442z
M386 141v262q-55 20 -110 20q-73 0 -116.5 -48.5t-43.5 -143.5q0 -82 36 -127.5t94 -45.5q71 0 140 83z" />
    <glyph glyph-name="gdotaccent.alt" horiz-adv-x="529" 
d="M452 7q0 -90 -50.5 -138.5t-149.5 -48.5q-86 0 -175 36l11 63q81 -42 169 -42q129 0 129 127v67q-66 -72 -146 -72q-83 0 -137 59t-54 170q0 121 64 186.5t166 65.5q76 0 173 -31v-442zM386 141v262q-55 20 -110 20q-73 0 -116.5 -48.5t-43.5 -143.5q0 -82 36 -127.5
t94 -45.5q71 0 140 83zM312 557h-84v89h84v-89z" />
    <glyph glyph-name="Uacute.alt" horiz-adv-x="693" 
d="M499 881l-136 -134h-46l97 153zM548 0l-12 83q-109 -91 -221 -91q-108 0 -168 56.5t-60 171.5v470h69v-462q0 -174 163 -174q104 0 213 97v539h69v-690h-53z" />
    <glyph glyph-name="Ubreve.alt" horiz-adv-x="693" 
d="M548 0l-12 83q-109 -91 -221 -91q-108 0 -168 56.5t-60 171.5v470h69v-462q0 -174 163 -174q104 0 213 97v539h69v-690h-53zM478 855q-9 -50 -42 -81t-91 -31q-57 0 -90 31t-41 81l46 9q17 -63 86 -63q66 0 85 63z" />
    <glyph glyph-name="Ucircumflex.alt" horiz-adv-x="693" 
d="M479 747h-42l-92 83l-92 -83h-42l103 145h62zM548 0l-12 83q-109 -91 -221 -91q-108 0 -168 56.5t-60 171.5v470h69v-462q0 -174 163 -174q104 0 213 97v539h69v-690h-53z" />
    <glyph glyph-name="Udieresis.alt" horiz-adv-x="693" 
d="M474 756h-83v89h83v-89zM301 756h-82v89h82v-89zM548 0l-12 83q-109 -91 -221 -91q-108 0 -168 56.5t-60 171.5v470h69v-462q0 -174 163 -174q104 0 213 97v539h69v-690h-53z" />
    <glyph glyph-name="Ugrave.alt" horiz-adv-x="693" 
d="M374 747h-45l-136 134l86 19zM548 0l-12 83q-109 -91 -221 -91q-108 0 -168 56.5t-60 171.5v470h69v-462q0 -174 163 -174q104 0 213 97v539h69v-690h-53z" />
    <glyph glyph-name="Uhungarumlaut.alt" horiz-adv-x="693" 
d="M568 884l-134 -133h-40l95 152zM408 884l-134 -133h-41l96 152zM548 0l-12 83q-109 -91 -221 -91q-108 0 -168 56.5t-60 171.5v470h69v-462q0 -174 163 -174q104 0 213 97v539h69v-690h-53z" />
    <glyph glyph-name="Umacron.alt" horiz-adv-x="693" 
d="M476 774h-260v56h260v-56zM548 0l-12 83q-109 -91 -221 -91q-108 0 -168 56.5t-60 171.5v470h69v-462q0 -174 163 -174q104 0 213 97v539h69v-690h-53z" />
    <glyph glyph-name="Uogonek.alt" horiz-adv-x="693" 
d="M477 -111q0 41 50 100l19 24l-10 70q-109 -91 -221 -91q-108 0 -168 56.5t-60 171.5v470h69v-462q0 -174 163 -174q104 0 213 97v539h69v-690h-18l-20 -29q-31 -44 -31 -68q0 -34 39 -34q20 0 41 6v-42q-30 -11 -60 -11q-36 0 -55.5 17.5t-19.5 49.5z" />
    <glyph glyph-name="Uring.alt" horiz-adv-x="693" 
d="M444 829q0 -42 -28 -69t-70 -27t-70 27t-28 69t28 70.5t70 28.5t70 -28.5t28 -70.5zM404 829q0 26 -16.5 44t-41.5 18t-42 -18t-17 -44t17 -43t42 -17t41.5 17t16.5 43zM548 0l-12 83q-109 -91 -221 -91q-108 0 -168 56.5t-60 171.5v470h69v-462q0 -174 163 -174
q104 0 213 97v539h69v-690h-53z" />
    <glyph glyph-name="Wacute.alt" horiz-adv-x="1015" 
d="M975 690l-254 -692h-61l-155 409l-151 -409h-61l-253 684l70 15l216 -606l147 402l-71 189l71 15l219 -606l210 599h73zM656 886l-136 -134h-46l97 153z" />
    <glyph glyph-name="Wcircumflex.alt" horiz-adv-x="1015" 
d="M975 690l-254 -692h-61l-155 409l-151 -409h-61l-253 684l70 15l216 -606l147 402l-71 189l71 15l219 -606l210 599h73zM636 752h-42l-92 83l-92 -83h-42l103 145h62z" />
    <glyph glyph-name="Wdieresis.alt" horiz-adv-x="1015" 
d="M975 690l-254 -692h-61l-155 409l-151 -409h-61l-253 684l70 15l216 -606l147 402l-71 189l71 15l219 -606l210 599h73zM631 761h-83v89h83v-89zM458 761h-82v89h82v-89z" />
    <glyph glyph-name="Wgrave.alt" horiz-adv-x="1015" 
d="M975 690l-254 -692h-61l-155 409l-151 -409h-61l-253 684l70 15l216 -606l147 402l-71 189l71 15l219 -606l210 599h73zM531 752h-45l-136 134l86 19z" />
    <glyph glyph-name="uni0386.calt" horiz-adv-x="691" 
d="M39 0l272 694h71l270 -686l-68 -15l-88 230h-301l-85 -223h-71zM345 614l-126 -330h253z" />
    <glyph glyph-name="uni0388.calt" horiz-adv-x="507" 
d="M462 0h-370v690h360v-63h-291v-235h230l10 -62h-240v-267h301v-63z" />
    <glyph glyph-name="uni0389.calt" horiz-adv-x="705" 
d="M613 0h-69v330h-383v-330h-69v690h69v-298h383v298h69v-690z" />
    <glyph glyph-name="uni038A.calt" horiz-adv-x="268" 
d="M168 0h-69v690h69v-690z" />
    <glyph glyph-name="uni038C.calt" horiz-adv-x="745" 
d="M684 346q0 -159 -87 -259t-226 -100q-138 0 -224 99.5t-86 257.5q0 159 87 259t225 100q139 0 225 -99t86 -258zM613 344q0 133 -66 215t-175 82q-108 0 -174 -81.5t-66 -213.5q0 -133 66 -215t175 -82q108 0 174 81.5t66 213.5z" />
    <glyph glyph-name="uni038E.calt" horiz-adv-x="628" 
d="M595 690l-248 -404v-286h-69v286l-244 397l71 14l209 -349l203 342h78z" />
    <glyph glyph-name="uni038F.calt" horiz-adv-x="744" 
d="M76 61h160l-23 21q-71 64 -110 137.5t-39 171.5q0 133 85 222.5t223 89.5q140 0 224 -89t84 -223q0 -98 -39.5 -170.5t-111.5 -138.5l-23 -21h162v-61h-237l-8 58l53 51q64 61 98 126.5t34 156.5q-1 106 -65 177.5t-171 71.5q-108 0 -172 -71t-64 -178q0 -90 33.5 -155
t98.5 -128l53 -51l-8 -58h-237v61z" />
    <glyph glyph-name="uni0399.calt" horiz-adv-x="268" 
d="M168 0h-69v690h69v-690zM262 761h-83v89h83v-89zM89 761h-82v89h82v-89z" />
    <glyph glyph-name="uni03A5.calt" horiz-adv-x="628" 
d="M595 690l-248 -404v-286h-69v286l-244 397l71 14l209 -349l203 342h78zM442 756h-83v89h83v-89zM269 756h-82v89h82v-89z" />
    <glyph glyph-name="three.alt" 
d="M463 189q0 -88 -63.5 -145t-166.5 -57q-108 0 -188 53l11 66q87 -59 182 -59q72 0 114.5 39.5t42.5 102.5q0 141 -201 141h-30l-7 48l211 238h-305l-9 60h400v-50l-218 -243q104 -5 165.5 -52.5t61.5 -141.5z" />
    <glyph glyph-name="four.alt" horiz-adv-x="593" 
d="M560 160h-111v-160h-62v160h-346v46l329 476l64 -14l-317 -452h270v187l62 14v-201h111v-56z" />
    <glyph glyph-name="comma.alt" horiz-adv-x="219" 
d="M77 98h72q7 -30 7 -50q0 -92 -91 -184l-36 17q56 83 56 159q0 26 -8 58z" />
    <glyph glyph-name="semicolon.alt" horiz-adv-x="227" 
d="M156 376h-78v97h78v-97zM78 98h72q7 -30 7 -50q0 -93 -91 -184l-36 17q56 83 56 159q0 26 -8 58z" />
    <glyph glyph-name="quotedblleft.alt" horiz-adv-x="384" 
d="M138 473h-71q-9 32 -9 61q0 84 74 165l36 -17q-40 -67 -40 -139q0 -37 10 -70zM305 473h-71q-9 32 -9 61q0 84 74 165l36 -17q-40 -67 -40 -139q0 -37 10 -70z" />
    <glyph glyph-name="quotedblright.alt" horiz-adv-x="384" 
d="M79 690h71q9 -30 9 -61q0 -82 -74 -165l-36 17q40 69 40 140q0 38 -10 69zM246 690h71q9 -30 9 -61q0 -84 -74 -165l-36 17q40 69 40 140q0 38 -10 69z" />
    <glyph glyph-name="quoteleft.alt" horiz-adv-x="217" 
d="M138 473h-71q-9 32 -9 61q0 84 74 165l36 -17q-40 -67 -40 -139q0 -37 10 -70z" />
    <glyph glyph-name="quoteright.alt" horiz-adv-x="217" 
d="M79 690h71q9 -30 9 -61q0 -82 -74 -165l-36 17q40 69 40 140q0 38 -10 69z" />
    <glyph glyph-name="quotedblbase.alt" horiz-adv-x="384" 
d="M72 98h71q9 -30 9 -61q0 -82 -74 -165l-36 17q40 69 40 140q0 38 -10 69zM239 98h71q9 -30 9 -61q0 -84 -74 -165l-36 17q40 69 40 140q0 38 -10 69z" />
    <glyph glyph-name="quotesinglbase.alt" horiz-adv-x="217" 
d="M72 98h71q9 -30 9 -61q0 -82 -74 -165l-36 17q40 69 40 140q0 38 -10 69z" />
    <glyph glyph-name="registered.alt" horiz-adv-x="806" 
d="M747 345q0 -158 -95 -258t-249 -100q-155 0 -250 99.5t-95 258.5q0 158 95 258t249 100q155 0 250 -99.5t95 -258.5zM713 345q0 149 -86.5 239t-224.5 90q-139 0 -224 -90t-85 -239t86 -239t225 -90t224 90t85 239zM509 151l-121 164h-48v-161h-52v394h109q60 0 96 -31
t36 -84q0 -42 -23 -70t-62 -40l122 -161zM340 500v-139h51q39 0 61.5 18.5t22.5 52.5q0 32 -20.5 50t-59.5 18h-55z" />
    <glyph glyph-name="servicemark.alt" horiz-adv-x="801" 
d="M164 340q-53 0 -96 24l5 46q48 -29 92 -29q28 0 47 14t19 39q0 23 -14.5 38t-48.5 30q-54 24 -75 45t-21 58q0 39 29.5 64.5t74.5 25.5q46 0 83 -20l-7 -45q-40 24 -78 24q-26 0 -42 -12.5t-16 -32.5q0 -22 14.5 -35.5t51.5 -29.5q51 -22 72 -45t21 -62q0 -45 -31.5 -71
t-79.5 -26zM720 345h-45v268l-115 -270h-41l-114 270v-268h-44v345h59l120 -290l121 290h59v-345z" />
    <glyph glyph-name="trademark.alt" horiz-adv-x="801" 
d="M726 345h-45v268l-114 -270h-42l-113 270v-268h-45v345h60l120 -290l119 290h60v-345zM303 647h-111v-302h-47v302h-108v43h260z" />
    <glyph glyph-name="NUL" horiz-adv-x="0" 
 />
    <glyph glyph-name="hfjslug" horiz-adv-x="694" 
d="M644 -200h-208l-8 14h-163l-8 -14h-207v303q14 0 23 9.5t9 22.5t-9.5 22.5t-22.5 9.5v554h100l30 79h334l29 -79h101v-921zM400 563v-172h15v78h38v14h-38v66h43v14h-58zM184 563v-172h15v79h47v-79h15v172h-15v-79h-47v79h-15zM460 394q10 -4 21 -4q31 0 31 36v137h-16
v-137q0 -22 -16 -22q-8 0 -20 5v-15zM371 465l-13 3q-4 -18 -8 -30h-1l-16 31q23 21 23 42q0 31 -27 31q-12 0 -20 -9t-8 -22t14 -39q-23 -18 -23 -47q0 -16 8 -26.5t21 -10.5q19 0 29 24h1l12 -24l12 6l-17 32q6 14 13 39zM523 323v-46h8v12l8 8l15 -20h10l-20 26l18 20
h-10l-20 -24h-1v24h-8zM488 292l10 -15h9l-12 17q10 4 10 14q0 15 -17 15h-20v-46h8v15h12zM426 276q10 0 17 7t7 17q0 9 -7 16.5t-17 7.5t-17 -7.5t-7 -16.5q0 -10 7 -17t17 -7zM370 301l-13 22h-9l18 -29v-17h8v17l18 29h-9zM193 323v-46h34v7h-26v13h23v7h-23v12h26v7
h-34zM132 323v-46h8v32l25 -32h7v46h-8v-32l-25 32h-7zM241 323l14 -47h8l11 34h1l11 -34h8l14 47h-8l-10 -35h-1l-11 35h-7l-11 -35h-1l-10 35h-8zM327 479q-12 22 -12 32q0 19 14 19q13 0 13 -19q0 -15 -15 -32zM342 423q-8 -21 -20 -21q-16 0 -16 25q0 19 16 35zM487 299
h-11v17h11q10 0 10 -8q0 -9 -10 -9zM426 283q-16 0 -16 17q0 6 4.5 11.5t11.5 5.5t11.5 -5.5t4.5 -11.5q0 -17 -16 -17z" />
    <glyph glyph-name="A.flat" horiz-adv-x="695" 
d="M39 0l272 694h71l274 -694h-74l-86 223h-301l-85 -223h-71zM345 614l-126 -330h253z" />
    <glyph glyph-name="E.flat" horiz-adv-x="507" 
d="M462 0h-370v690h360v-63h-291v-235h235v-62h-235v-267h301v-63z" />
    <glyph glyph-name="F.flat" horiz-adv-x="477" 
d="M438 627h-277v-246h227v-62h-227v-319h-69v690h346v-63z" />
    <glyph glyph-name="G.flat" horiz-adv-x="694" 
d="M612 57q-107 -70 -227 -70q-151 0 -237.5 98t-86.5 259q0 160 87 259.5t231 99.5q118 0 204 -60l-12 -71q-86 69 -193 69q-114 0 -180 -80.5t-66 -215.5t67 -215.5t187 -80.5q86 0 158 44v206h-171v63h239v-305z" />
    <glyph glyph-name="K.flat" horiz-adv-x="607" 
d="M598 0h-93l-344 356v-356h-69v690h69v-314l320 314h89l-332 -322z" />
    <glyph glyph-name="L.flat" horiz-adv-x="466" 
d="M433 0h-341v690h69v-626h272v-64z" />
    <glyph glyph-name="Q.alt_flat" horiz-adv-x="749" 
d="M691 59v-78l-113 88q-85 -82 -207 -82q-139 0 -225 99.5t-86 257.5q0 159 87 259t226 100t225 -99.5t86 -257.5q0 -136 -68 -232zM613 344q0 133 -66.5 215t-175.5 82t-174.5 -81t-65.5 -214t66.5 -215t175.5 -82q94 0 155 58l-136 103v79l174 -136q47 77 47 191z" />
    <glyph glyph-name="R.flat" horiz-adv-x="568" 
d="M550 0h-83l-215 301h-91v-301h-69v690h175q103 0 162.5 -50.5t59.5 -139.5q0 -77 -44.5 -125.5t-116.5 -64.5zM419 496q0 63 -40 98t-116 35h-102v-269h90q78 0 123 35.5t45 100.5z" />
    <glyph glyph-name="T.flat" horiz-adv-x="579" 
d="M546 627h-222v-627h-69v627h-222v63h513v-63z" />
    <glyph glyph-name="V.flat" horiz-adv-x="684" 
d="M645 690l-272 -694h-62l-272 694h75l229 -605l229 605h73z" />
    <glyph glyph-name="W.flat" horiz-adv-x="1026" 
d="M980 690l-208 -692h-60l-200 597l-199 -597h-58l-210 692h73l170 -584l190 584h71l192 -584l169 584h70z" />
    <glyph glyph-name="W.alt_flat" horiz-adv-x="1017" 
d="M978 690l-255 -692h-61l-154 410l-152 -410h-61l-256 692h77l212 -599l147 403l-74 196h77l217 -599l209 599h74z" />
    <glyph glyph-name="X.flat" horiz-adv-x="635" 
d="M595 0h-78l-202 308l-203 -308h-76l240 357l-222 333h79l183 -281l185 281h76l-222 -330z" />
    <glyph glyph-name="Y.flat" horiz-adv-x="631" 
d="M599 690l-249 -404v-286h-68v286l-250 404h80l205 -342l203 342h79z" />
    <glyph glyph-name="Z.flat" horiz-adv-x="598" 
d="M545 0h-493v50l408 580h-385v60h468v-50l-407 -580h409v-60z" />
    <glyph glyph-name="f.flat" horiz-adv-x="295" 
d="M281 651q-18 4 -40 4q-72 0 -72 -73v-109h102v-56h-102v-417h-65v417h-72v56h72v114q0 64 35 95.5t98 31.5q14 0 34 -2z" />
    <glyph glyph-name="k.flat" horiz-adv-x="466" 
d="M456 0h-85l-228 251v-251h-66v706l66 12v-448l206 203h85l-221 -211z" />
    <glyph glyph-name="t.flat" horiz-adv-x="330" 
d="M289 0q-28 -8 -66 -8q-123 0 -123 116v309h-73v56h73v164l65 11v-175h115v-56h-115v-298q0 -36 16 -52.5t54 -16.5q17 0 44 5z" />
    <glyph glyph-name="v.flat" horiz-adv-x="471" 
d="M442 473l-175 -477h-63l-174 477h71l136 -396l136 396h69z" />
    <glyph glyph-name="w.flat" horiz-adv-x="728" 
d="M697 473l-157 -477h-58l-118 388l-117 -388h-57l-159 477h69l119 -389l118 391h57l119 -391l117 389h67z" />
    <glyph glyph-name="x.flat" horiz-adv-x="470" 
d="M434 0h-73l-127 195l-128 -195h-71l163 242l-156 231h73l120 -183l122 183h70l-157 -229z" />
    <glyph glyph-name="y.flat" horiz-adv-x="480" 
d="M450 473l-201 -535q-25 -66 -58 -92t-84 -26q-8 0 -29 3l-10 59q22 -4 38 -4q31 0 50.5 16t33.5 54l20 49l-182 476h71l143 -396l139 396h69z" />
    <glyph glyph-name="z.flat" horiz-adv-x="449" 
d="M402 0h-361v51l282 367h-263v55h339v-51l-282 -367h285v-55z" />
    <glyph glyph-name="two.flat" horiz-adv-x="535" 
d="M472 0h-422v49l249 265q54 58 75.5 99t21.5 88q0 61 -35.5 94.5t-98.5 33.5q-91 0 -184 -81l-10 66q89 75 198 75q93 0 146 -50t53 -134q0 -61 -26.5 -111t-90.5 -117l-208 -218h332v-59z" />
    <glyph glyph-name="three.flat" 
d="M464 183q0 -86 -64 -141t-166 -55q-107 0 -189 53l11 66q86 -59 182 -59q72 0 114.5 36.5t42.5 98.5q0 68 -48.5 106t-147.5 38h-35v60h42q86 0 131 34.5t45 94.5q0 51 -35 82.5t-101 31.5q-96 0 -181 -65l-9 63q87 62 193 62q98 0 150 -48.5t52 -122.5q0 -118 -129 -160
q142 -41 142 -175z" />
    <glyph glyph-name="three.alt_flat" 
d="M463 189q0 -88 -63.5 -145t-166.5 -57q-108 0 -188 53l11 66q87 -59 182 -59q72 0 114.5 39.5t42.5 102.5q0 141 -201 141h-30l-7 48l211 238h-310v60h396v-50l-218 -243q104 -5 165.5 -52.5t61.5 -141.5z" />
    <glyph glyph-name="four.alt_flat" horiz-adv-x="593" 
d="M560 160h-111v-160h-62v160h-346v46l326 470h72l-322 -460h270v194h62v-194h111v-56z" />
    <glyph glyph-name="five.flat" horiz-adv-x="534" 
d="M480 208q0 -101 -69 -160.5t-172 -59.5q-109 0 -188 49l10 64q88 -55 180 -55q73 0 122.5 42t49.5 117q0 68 -41.5 107t-117.5 39q-67 0 -128 -26l-45 11l24 340h345v-59h-289l-16 -227q58 20 115 20q101 0 160.5 -55t59.5 -147z" />
    <glyph glyph-name="seven.flat" horiz-adv-x="532" 
d="M478 626l-277 -626h-71l273 616h-354v60h429v-50z" />
    <glyph glyph-name="sterling.flat" horiz-adv-x="544" 
d="M61 362h98l47 151q29 91 77.5 133.5t128.5 42.5q37 0 79 -10l-10 -60q-34 9 -75 9q-54 0 -86 -31t-54 -102l-42 -133h189v-59h-207l-76 -244h360v-59h-429v47l79 256h-79v59z" />
    <glyph glyph-name="Euro.flat" horiz-adv-x="603" 
d="M32 402v54h99q25 108 93.5 170.5t164.5 62.5q94 0 167 -51l-11 -65q-77 58 -156 58q-72 0 -121.5 -46.5t-70.5 -128.5h255v-54h-266q-3 -30 -3 -64t2 -49h267v-53h-260q19 -90 70 -140.5t125 -50.5q84 0 171 63l9 -61q-84 -60 -183 -60q-100 0 -168 66.5t-89 182.5h-95
v53h87q-1 15 -1 48t3 65h-89z" />
    <glyph glyph-name="yen.flat" horiz-adv-x="616" 
d="M110 243v51h157l-227 382h74l196 -343l194 343h72l-228 -382h158v-51h-167v-92h167v-52h-167v-99h-62v99h-167v52h167v92h-167z" />
    <glyph glyph-name="numbersign.flat" horiz-adv-x="648" 
d="M523 678l-29 -182h110v-56h-119l-32 -204h126v-56h-135l-28 -182h-53l28 182h-185l-29 -182h-53l29 182h-109v56h118l32 204h-126v56h135l29 182h53l-30 -182h186l29 182h53zM247 440l-32 -204h185l33 204h-186z" />
    <glyph glyph-name="ordfeminine.flat" horiz-adv-x="393" 
d="M313 359h-40l-6 38q-51 -44 -106 -44q-43 0 -69 23.5t-26 63.5q0 54 47.5 84t149.5 39v17q0 56 -63 56q-46 0 -105 -27l-7 46q62 25 116 25q109 0 109 -98v-223zM317 230h-248v47h248v-47zM263 438v85q-82 -8 -114.5 -28t-32.5 -52q0 -22 14 -34.5t39 -12.5q46 0 94 42z
" />
    <glyph glyph-name="ordmasculine.flat" horiz-adv-x="395" 
d="M339 517q0 -74 -38.5 -119t-103.5 -45q-64 0 -103 45.5t-39 118.5q0 72 39 117.5t103 45.5q65 0 103.5 -45t38.5 -118zM329 230h-264v47h264v-47zM286 517q0 51 -22.5 84.5t-66.5 33.5q-43 0 -66 -33.5t-23 -84.5q0 -52 23 -85.5t66 -33.5q44 0 66.5 33.5t22.5 85.5z" />
    <glyph glyph-name="percent.flat" horiz-adv-x="880" 
d="M366 494q0 -87 -43.5 -138.5t-110.5 -51.5t-111 51.5t-44 138.5q0 86 44 138t111 52t110.5 -52t43.5 -138zM254 0h-60l221 344l210 332h60l-221 -344zM823 182q0 -86 -44 -138t-111 -52t-110.5 52t-43.5 138t43.5 138t110.5 52t111 -52t44 -138zM307 494q0 61 -25.5 101
t-70.5 40t-70 -39.5t-25 -101.5t26 -102t71 -40t69.5 39.5t24.5 102.5zM763 182q0 62 -25 102t-70 40q-46 0 -70.5 -39.5t-24.5 -102.5q0 -61 25.5 -101t70.5 -40t69.5 39.5t24.5 101.5z" />
    <glyph glyph-name="ampersand.flat" horiz-adv-x="689" 
d="M682 0h-88l-104 104q-89 -115 -227 -115q-101 0 -160 51t-59 135q0 134 165 210q-38 40 -55.5 75t-17.5 81q0 69 49 114.5t131 45.5q87 0 163 -43l-13 -69q-82 52 -152 52q-51 0 -80 -27t-29 -70q0 -36 16.5 -66t56.5 -71l202 -204q39 78 57 199l63 -13
q-24 -138 -75 -231zM264 48q112 0 183 99l-198 197q-135 -57 -135 -163q0 -58 42 -95.5t108 -37.5z" />
    <glyph glyph-name="exclam.flat" horiz-adv-x="268" 
d="M174 690l-20 -495h-40l-20 495h80zM173 0h-78v98h78v-98z" />
    <glyph glyph-name="exclamdown.flat" horiz-adv-x="268" 
d="M94 0l20 495h40l20 -495h-80zM95 690h78v-98h-78v98z" />
    <glyph glyph-name="guillemotleft.flat" horiz-adv-x="514" 
d="M259 473l-144 -236l144 -237h-56l-164 237l164 236h56zM460 473l-144 -236l144 -237h-56l-164 237l164 236h56z" />
    <glyph glyph-name="guillemotright.flat" horiz-adv-x="514" 
d="M255 0l143 236l-143 237h56l163 -237l-163 -236h-56zM54 0l144 236l-144 237h56l164 -237l-164 -236h-56z" />
    <glyph glyph-name="guilsinglleft.flat" horiz-adv-x="313" 
d="M259 473l-144 -236l144 -237h-56l-164 237l164 236h56z" />
    <glyph glyph-name="guilsinglright.flat" horiz-adv-x="313" 
d="M54 0l144 236l-144 237h56l164 -237l-164 -236h-56z" />
    <glyph glyph-name="parenleft.flat" horiz-adv-x="392" 
d="M140 313q0 -112 47.5 -196.5t146.5 -154.5l-11 -62q-253 162 -253 413q0 252 253 414l11 -62q-99 -70 -146.5 -155t-47.5 -197z" />
    <glyph glyph-name="parenright.flat" horiz-adv-x="392" 
d="M252 313q0 112 -48 197t-147 155l11 62q253 -161 253 -414q0 -252 -253 -413l-11 62q99 70 147 155t48 196z" />
    <glyph glyph-name="bracketleft.flat" horiz-adv-x="407" 
d="M347 -105h-250v795h250v-52h-187v-691h187v-52z" />
    <glyph glyph-name="bracketright.flat" horiz-adv-x="407" 
d="M59 690h250v-795h-250v52h187v691h-187v52z" />
    <glyph glyph-name="braceleft.flat" horiz-adv-x="469" 
d="M409 -105h-91q-143 0 -143 130q0 23 6 68.5t6 70.5q0 103 -106 103h-34v51h35q105 0 105 102q0 24 -6 69.5t-6 68.5q0 132 143 132h91v-52h-89q-82 0 -82 -79q0 -20 6.5 -68t6.5 -70q0 -58 -26 -87.5t-75 -40.5v-2q49 -11 75 -40t26 -88q0 -22 -6.5 -70.5t-6.5 -68.5
q0 -77 81 -77h90v-52z" />
    <glyph glyph-name="braceright.flat" horiz-adv-x="469" 
d="M59 690h92q143 0 143 -130q0 -23 -6 -68.5t-6 -70.5q0 -103 105 -103h35v-51h-35q-105 0 -105 -103q0 -24 6 -69.5t6 -68.5q0 -131 -143 -131h-92v52h90q82 0 82 78q0 20 -6.5 68t-6.5 70q0 106 101 128v2q-49 12 -75 41.5t-26 87.5q0 22 6.5 70.5t6.5 68.5q0 77 -81 77
h-91v52z" />
    <glyph glyph-name="registered.alt_flat" horiz-adv-x="806" 
d="M747 345q0 -158 -95 -258t-249 -100q-155 0 -250 99.5t-95 258.5q0 158 95 258t249 100q155 0 250 -99.5t95 -258.5zM713 345q0 149 -86.5 239t-224.5 90q-139 0 -224 -90t-85 -239t86 -239t225 -90t224 90t85 239zM507 154l-119 161h-48v-161h-52v394h109q60 0 96 -31
t36 -84q0 -42 -23 -70t-62 -40l128 -169h-65zM340 500v-139h51q39 0 61.5 18.5t22.5 52.5q0 32 -20.5 50t-59.5 18h-55z" />
    <glyph glyph-name="registered.flat" horiz-adv-x="566" 
d="M510 467q0 -102 -63.5 -167t-163.5 -65q-101 0 -163.5 65t-62.5 168q0 102 63 167t164 65q100 0 163 -65t63 -168zM484 467q0 94 -56.5 152t-144.5 58t-144 -57.5t-56 -151.5t56 -152t144 -58t144.5 57.5t56.5 151.5zM394 347h-45l-75 107h-28v-107h-36v258h69
q41 0 65 -20t24 -55q0 -55 -54 -71zM331 528q0 43 -53 43h-33v-87h32q54 0 54 44z" />
    <glyph glyph-name="trademark.flat" horiz-adv-x="801" 
d="M735 345h-47l-20 268l-107 -269h-38l-106 268l-21 -267h-45l26 345h56l111 -283l109 283h55zM300 647h-108v-302h-47v302h-108v43h263v-43z" />
    <glyph glyph-name="trademark.alt_flat" horiz-adv-x="801" 
d="M726 345h-45v268l-114 -270h-42l-113 270v-268h-45v345h60l120 -290l119 290h60v-345zM300 647h-108v-302h-47v302h-108v43h263v-43z" />
    <glyph glyph-name="AE.flat" horiz-adv-x="873" 
d="M10 0l410 690h397v-62h-291v-236h235v-62h-235v-268h301v-62h-368v223h-243l-131 -223h-75zM251 283h208v351z" />
    <glyph glyph-name="OE.flat" horiz-adv-x="877" 
d="M831 0h-414q-168 0 -263 94t-95 250q0 159 98 252.5t264 93.5h400v-62h-288v-236h233v-62h-233v-268h298v-62zM464 62v566h-48q-134 0 -210.5 -72t-76.5 -211q0 -136 78 -209.5t210 -73.5h47z" />
    <glyph glyph-name="Eth.flat" horiz-adv-x="715" 
d="M654 346q0 -159 -98 -252.5t-264 -93.5h-185v331h-86v60h86v299h187q170 0 265 -94t95 -250zM583 345q0 136 -78 209.5t-210 73.5h-120v-237h166v-60h-166v-269h121q134 0 210.5 72t76.5 211z" />
    <glyph glyph-name="Dcroat.flat" horiz-adv-x="715" 
d="M654 346q0 -159 -98 -252.5t-264 -93.5h-185v331h-86v60h86v299h187q170 0 265 -94t95 -250zM583 345q0 136 -78 209.5t-210 73.5h-120v-237h166v-60h-166v-269h121q134 0 210.5 72t76.5 211z" />
    <glyph glyph-name="Hbar.flat" horiz-adv-x="734" 
d="M627 0h-69v328h-383v-328h-68v525h-86v58h86v107h68v-107h383v107h69v-107h85v-58h-85v-525zM175 389h383v137h-383v-137z" />
    <glyph glyph-name="Lslash.flat" horiz-adv-x="481" 
d="M334 403l-159 -88v-252h272v-63h-340v277l-86 -48v67l86 47v347h68v-309l159 90v-68z" />
    <glyph glyph-name="Aogonek.flat" horiz-adv-x="695" 
d="M39 0l272 694h71l274 -694h-21l-20 -29q-31 -44 -31 -68q0 -34 39 -34q20 0 41 6v-42q-30 -11 -60 -11q-36 0 -55.5 17.5t-19.5 49.5q0 41 50 100l8 11h-5l-86 223h-301l-85 -223h-71zM345 614l-126 -330h253z" />
    <glyph glyph-name="Eogonek.flat" horiz-adv-x="505" 
d="M462 0h-27l-20 -29q-31 -44 -31 -68q0 -34 39 -34q20 0 41 6v-42q-30 -11 -60 -11q-36 0 -55.5 17.5t-19.5 49.5q0 41 50 100l8 11h-295v690h360v-63h-291v-235h235v-62h-235v-267h301v-63z" />
    <glyph glyph-name="Aring.flat" horiz-adv-x="695" 
d="M444 732q0 -55 -45 -82l257 -650h-73l-87 223h-302l-85 -223h-70l254 649q-46 28 -46 83q0 41 28.5 70t70.5 29t70 -28.5t28 -70.5zM345 614l-127 -330h254zM404 732q0 26 -16.5 44t-41.5 18t-42 -18t-17 -44t17 -43.5t42 -17.5t41.5 17.5t16.5 43.5z" />
    <glyph glyph-name="Aringacute.flat" horiz-adv-x="695" 
d="M444 732q0 -55 -45 -82l257 -650h-73l-87 223h-302l-85 -223h-70l254 649q-46 28 -46 83q0 41 28.5 70t70.5 29t70 -28.5t28 -70.5zM345 614l-127 -330h254zM404 732q0 26 -16.5 44t-41.5 18t-42 -18t-17 -44t17 -43.5t42 -17.5t41.5 17.5t16.5 43.5zM492 993l-136 -134
h-46l97 153z" />
    <glyph glyph-name="Ldot.flat" horiz-adv-x="466" 
d="M398 304h-82v88h82v-88zM433 0h-341v690h69v-626h272v-64z" />
    <glyph glyph-name="Aacute.flat" horiz-adv-x="695" 
d="M39 0l272 694h71l274 -694h-74l-86 223h-301l-85 -223h-71zM345 614l-126 -330h253zM500 896l-136 -134h-46l97 153z" />
    <glyph glyph-name="Agrave.flat" horiz-adv-x="695" 
d="M39 0l272 694h71l274 -694h-74l-86 223h-301l-85 -223h-71zM345 614l-126 -330h253zM375 762h-45l-136 134l86 19z" />
    <glyph glyph-name="Acircumflex.flat" horiz-adv-x="695" 
d="M39 0l272 694h71l274 -694h-74l-86 223h-301l-85 -223h-71zM345 614l-126 -330h253zM480 756h-42l-92 83l-92 -83h-42l103 145h62z" />
    <glyph glyph-name="Abreve.flat" horiz-adv-x="695" 
d="M39 0l272 694h71l274 -694h-74l-86 223h-301l-85 -223h-71zM345 614l-126 -330h253zM479 877q-9 -50 -42 -81t-91 -31q-57 0 -90 31t-41 81l46 9q17 -63 86 -63q66 0 85 63z" />
    <glyph glyph-name="Atilde.flat" horiz-adv-x="695" 
d="M39 0l272 694h71l274 -694h-74l-86 223h-301l-85 -223h-71zM345 614l-126 -330h253zM498 871q-15 -103 -76 -103q-28 0 -75 25q-51 26 -64 26q-23 0 -36 -53l-44 9q15 104 76 104q26 0 75 -26q49 -25 63 -25q24 0 37 52z" />
    <glyph glyph-name="Amacron.flat" horiz-adv-x="695" 
d="M39 0l272 694h71l274 -694h-74l-86 223h-301l-85 -223h-71zM345 614l-126 -330h253zM477 789h-260v56h260v-56z" />
    <glyph glyph-name="Adieresis.flat" horiz-adv-x="695" 
d="M39 0l272 694h71l274 -694h-74l-86 223h-301l-85 -223h-71zM345 614l-126 -330h253zM475 771h-83v89h83v-89zM302 771h-82v89h82v-89z" />
    <glyph glyph-name="Eacute.flat" horiz-adv-x="507" 
d="M426 886l-136 -134h-46l97 153zM462 0h-370v690h360v-63h-291v-235h235v-62h-235v-267h301v-63z" />
    <glyph glyph-name="Egrave.flat" horiz-adv-x="507" 
d="M462 0h-370v690h360v-63h-291v-235h235v-62h-235v-267h301v-63zM302 752h-45l-136 134l86 19z" />
    <glyph glyph-name="Ecircumflex.flat" horiz-adv-x="507" 
d="M407 752h-42l-92 83l-92 -83h-42l103 145h62zM462 0h-370v690h360v-63h-291v-235h235v-62h-235v-267h301v-63z" />
    <glyph glyph-name="Ecaron.flat" horiz-adv-x="507" 
d="M140 897h42l92 -83l92 83h42l-103 -145h-62zM462 0h-370v690h360v-63h-291v-235h235v-62h-235v-267h301v-63z" />
    <glyph glyph-name="Ebreve.flat" horiz-adv-x="507" 
d="M462 0h-370v690h360v-63h-291v-235h235v-62h-235v-267h301v-63zM406 867q-9 -50 -42 -81t-91 -31q-57 0 -90 31t-41 81l46 9q17 -63 86 -63q66 0 85 63z" />
    <glyph glyph-name="Emacron.flat" horiz-adv-x="507" 
d="M462 0h-370v690h360v-63h-291v-235h235v-62h-235v-267h301v-63zM404 779h-260v56h260v-56z" />
    <glyph glyph-name="Edieresis.flat" horiz-adv-x="507" 
d="M401 761h-83v89h83v-89zM228 761h-82v89h82v-89zM462 0h-370v690h360v-63h-291v-235h235v-62h-235v-267h301v-63z" />
    <glyph glyph-name="Edotaccent.flat" horiz-adv-x="507" 
d="M462 0h-370v690h360v-63h-291v-235h235v-62h-235v-267h301v-63zM316 759h-84v89h84v-89z" />
    <glyph glyph-name="Gbreve.flat" horiz-adv-x="694" 
d="M612 57q-107 -70 -227 -70q-151 0 -237.5 98t-86.5 259q0 160 87 259.5t231 99.5q118 0 204 -60l-12 -71q-86 69 -193 69q-114 0 -180 -80.5t-66 -215.5t67 -215.5t187 -80.5q86 0 158 44v206h-171v63h239v-305zM502 877q-9 -50 -42 -81t-91 -31q-57 0 -90 31t-41 81
l46 9q17 -63 86 -63q66 0 85 63z" />
    <glyph glyph-name="Gdotaccent.flat" horiz-adv-x="694" 
d="M612 57q-107 -70 -227 -70q-151 0 -237.5 98t-86.5 259q0 160 87 259.5t231 99.5q118 0 204 -60l-12 -71q-86 69 -193 69q-114 0 -180 -80.5t-66 -215.5t67 -215.5t187 -80.5q86 0 158 44v206h-171v63h239v-305zM412 769h-84v89h84v-89z" />
    <glyph glyph-name="Gcommaaccent.flat" horiz-adv-x="694" 
d="M318 -90l57 23q45 -37 45 -85q0 -52 -72 -116l-43 8q55 59 55 99q0 36 -42 71zM612 57q-107 -70 -227 -70q-151 0 -237.5 98t-86.5 259q0 160 87 259.5t231 99.5q118 0 204 -60l-12 -71q-86 69 -193 69q-114 0 -180 -80.5t-66 -215.5t67 -215.5t187 -80.5q86 0 158 44
v206h-171v63h239v-305z" />
    <glyph glyph-name="Kcommaaccent.flat" horiz-adv-x="607" 
d="M598 0h-93l-344 356v-356h-69v690h69v-314l320 314h89l-332 -322zM252 -86l57 23q45 -37 45 -85q0 -52 -72 -116l-43 8q55 59 55 99q0 36 -42 71z" />
    <glyph glyph-name="Lacute.flat" horiz-adv-x="466" 
d="M295 884l-136 -134h-46l97 153zM433 0h-341v690h69v-626h272v-64z" />
    <glyph glyph-name="Lcaron.flat" horiz-adv-x="466" 
d="M308 693q20 -38 20 -70q0 -63 -64 -120l-33 7q36 52 36 95q0 31 -23 77zM433 0h-341v690h69v-626h272v-64z" />
    <glyph glyph-name="Lcommaaccent.flat" horiz-adv-x="466" 
d="M207 -88l57 23q45 -37 45 -85q0 -52 -72 -116l-43 8q55 59 55 99q0 36 -42 71zM433 0h-341v690h69v-626h272v-64z" />
    <glyph glyph-name="Racute.flat" horiz-adv-x="568" 
d="M423 886l-136 -134h-46l97 153zM550 0h-83l-215 301h-91v-301h-69v690h175q103 0 162.5 -50.5t59.5 -139.5q0 -77 -44.5 -125.5t-116.5 -64.5zM419 496q0 63 -40 98t-116 35h-102v-269h90q78 0 123 35.5t45 100.5z" />
    <glyph glyph-name="Rcaron.flat" horiz-adv-x="568" 
d="M136 897h42l92 -83l92 83h42l-103 -145h-62zM550 0h-83l-215 301h-91v-301h-69v690h175q103 0 162.5 -50.5t59.5 -139.5q0 -77 -44.5 -125.5t-116.5 -64.5zM419 496q0 63 -40 98t-116 35h-102v-269h90q78 0 123 35.5t45 100.5z" />
    <glyph glyph-name="Rcommaaccent.flat" horiz-adv-x="568" 
d="M233 -86l57 23q45 -37 45 -85q0 -52 -72 -116l-43 8q55 59 55 99q0 36 -42 71zM550 0h-83l-215 301h-91v-301h-69v690h175q103 0 162.5 -50.5t59.5 -139.5q0 -77 -44.5 -125.5t-116.5 -64.5zM419 496q0 63 -40 98t-116 35h-102v-269h90q78 0 123 35.5t45 100.5z" />
    <glyph glyph-name="Tcaron.flat" horiz-adv-x="579" 
d="M159 897h42l92 -83l92 83h42l-103 -145h-62zM546 627h-222v-627h-69v627h-222v63h513v-63z" />
    <glyph glyph-name="Tcommaaccent.flat" horiz-adv-x="579" 
d="M241 -88l57 23q45 -37 45 -85q0 -52 -72 -116l-43 8q55 59 55 99q0 36 -42 71zM546 627h-222v-627h-69v627h-222v63h513v-63z" />
    <glyph glyph-name="Wacute.flat" horiz-adv-x="1026" 
d="M666 886l-136 -134h-46l97 153zM980 690l-208 -692h-60l-200 597l-199 -597h-58l-210 692h73l170 -584l190 584h71l192 -584l169 584h70z" />
    <glyph glyph-name="Wgrave.flat" horiz-adv-x="1026" 
d="M980 690l-208 -692h-60l-200 597l-199 -597h-58l-210 692h73l170 -584l190 584h71l192 -584l169 584h70zM542 752h-45l-136 134l86 19z" />
    <glyph glyph-name="Wcircumflex.flat" horiz-adv-x="1026" 
d="M647 749h-42l-92 83l-92 -83h-42l103 145h62zM980 690l-208 -692h-60l-200 597l-199 -597h-58l-210 692h73l170 -584l190 584h71l192 -584l169 584h70z" />
    <glyph glyph-name="Wdieresis.flat" horiz-adv-x="1026" 
d="M641 761h-83v89h83v-89zM468 761h-82v89h82v-89zM980 690l-208 -692h-60l-200 597l-199 -597h-58l-210 692h73l170 -584l190 584h71l192 -584l169 584h70z" />
    <glyph glyph-name="Wacute.alt_flat" horiz-adv-x="1017" 
d="M978 690l-255 -692h-61l-154 410l-152 -410h-61l-256 692h77l212 -599l147 403l-74 196h77l217 -599l209 599h74zM657 886l-136 -134h-46l97 153z" />
    <glyph glyph-name="Wgrave.alt_flat" horiz-adv-x="1017" 
d="M978 690l-255 -692h-61l-154 410l-152 -410h-61l-256 692h77l212 -599l147 403l-74 196h77l217 -599l209 599h74zM532 752h-45l-136 134l86 19z" />
    <glyph glyph-name="Wcircumflex.alt_flat" horiz-adv-x="1017" 
d="M978 690l-255 -692h-61l-154 410l-152 -410h-61l-256 692h77l212 -599l147 403l-74 196h77l217 -599l209 599h74zM637 752h-42l-92 83l-92 -83h-42l103 145h62z" />
    <glyph glyph-name="Wdieresis.alt_flat" horiz-adv-x="1017" 
d="M978 690l-255 -692h-61l-154 410l-152 -410h-61l-256 692h77l212 -599l147 403l-74 196h77l217 -599l209 599h74zM632 761h-83v89h83v-89zM459 761h-82v89h82v-89z" />
    <glyph glyph-name="Yacute.flat" horiz-adv-x="631" 
d="M468 881l-136 -134h-46l97 153zM599 690l-249 -404v-286h-68v286l-250 404h80l205 -342l203 342h79z" />
    <glyph glyph-name="Ygrave.flat" horiz-adv-x="631" 
d="M599 690l-249 -404v-286h-68v286l-250 404h80l205 -342l203 342h79zM343 747h-45l-136 134l86 19z" />
    <glyph glyph-name="Ycircumflex.flat" horiz-adv-x="631" 
d="M448 747h-42l-92 83l-92 -83h-42l103 145h62zM599 690l-249 -404v-286h-68v286l-250 404h80l205 -342l203 342h79z" />
    <glyph glyph-name="Ydieresis.flat" horiz-adv-x="631" 
d="M443 756h-83v89h83v-89zM270 756h-82v89h82v-89zM599 690l-249 -404v-286h-68v286l-250 404h80l205 -342l203 342h79z" />
    <glyph glyph-name="Zacute.flat" horiz-adv-x="598" 
d="M454 886l-136 -134h-46l97 153zM545 0h-493v50l408 580h-385v60h468v-50l-407 -580h409v-60z" />
    <glyph glyph-name="Zcaron.flat" horiz-adv-x="598" 
d="M168 897h42l92 -83l92 83h42l-103 -145h-62zM545 0h-493v50l408 580h-385v60h468v-50l-407 -580h409v-60z" />
    <glyph glyph-name="Zdotaccent.flat" horiz-adv-x="598" 
d="M545 0h-493v50l408 580h-385v60h468v-50l-407 -580h409v-60zM344 759h-84v89h84v-89z" />
    <glyph glyph-name="AEacute.flat" horiz-adv-x="871" 
d="M10 0l410 690h397v-62h-291v-236h235v-62h-235v-268h301v-62h-368v223h-243l-131 -223h-75zM251 283h208v351zM674 886l-136 -134h-46l97 153z" />
    <glyph glyph-name="dcroat.flat" horiz-adv-x="531" 
d="M454 0h-50l-12 69q-66 -79 -152 -79q-83 0 -137 59.5t-54 173.5q0 124 62 190.5t154 66.5q70 0 123 -24v121h-150v55h150v74l66 12v-86h75v-55h-75v-577zM388 134v261q-55 28 -121 28q-67 0 -109 -50.5t-42 -146.5q0 -84 36 -130.5t94 -46.5q72 0 142 85z" />
    <glyph glyph-name="hbar.flat" 
d="M450 0h-66v326q0 98 -88 98q-69 0 -153 -82v-342h-66v577h-74v55h74v74l66 12v-86h151v-55h-151v-171q88 77 166 77q69 0 105 -37.5t36 -106.5v-339z" />
    <glyph glyph-name="lslash.flat" horiz-adv-x="272" 
d="M168 0h-64v299l-85 -48v67l85 47v341l64 12v-317l85 47v-67l-85 -47v-334z" />
    <glyph glyph-name="kcommaaccent.flat" horiz-adv-x="466" 
d="M456 0h-85l-228 251v-251h-66v706l66 12v-448l206 203h85l-221 -211zM188 -88l57 23q45 -37 45 -85q0 -52 -72 -116l-43 8q55 59 55 99q0 36 -42 71z" />
    <glyph glyph-name="tcaron.flat" horiz-adv-x="330" 
d="M295 734q20 -38 20 -70q0 -63 -64 -120l-33 7q36 52 36 95q0 31 -23 77zM289 0q-28 -8 -66 -8q-123 0 -123 116v309h-73v56h73v164l65 11v-175h115v-56h-115v-298q0 -36 16 -52.5t54 -16.5q17 0 44 5z" />
    <glyph glyph-name="tcommaaccent.flat" horiz-adv-x="330" 
d="M138 -88l57 23q45 -37 45 -85q0 -52 -72 -116l-43 8q55 59 55 99q0 36 -42 71zM289 0q-28 -8 -66 -8q-123 0 -123 116v309h-73v56h73v164l65 11v-175h115v-56h-115v-298q0 -36 16 -52.5t54 -16.5q17 0 44 5z" />
    <glyph glyph-name="wacute.flat" horiz-adv-x="728" 
d="M517 684l-136 -134h-46l97 153zM697 473l-157 -477h-58l-118 388l-117 -388h-57l-159 477h69l119 -389l118 391h57l119 -391l117 389h67z" />
    <glyph glyph-name="wgrave.flat" horiz-adv-x="728" 
d="M697 473l-157 -477h-58l-118 388l-117 -388h-57l-159 477h69l119 -389l118 391h57l119 -391l117 389h67zM393 550h-45l-136 134l86 19z" />
    <glyph glyph-name="wcircumflex.flat" horiz-adv-x="728" 
d="M498 545h-42l-92 83l-92 -83h-42l103 145h62zM697 473l-157 -477h-58l-118 388l-117 -388h-57l-159 477h69l119 -389l118 391h57l119 -391l117 389h67z" />
    <glyph glyph-name="wdieresis.flat" horiz-adv-x="728" 
d="M492 559h-83v89h83v-89zM319 559h-82v89h82v-89zM697 473l-157 -477h-58l-118 388l-117 -388h-57l-159 477h69l119 -389l118 391h57l119 -391l117 389h67z" />
    <glyph glyph-name="yacute.flat" horiz-adv-x="480" 
d="M395 682l-136 -134h-46l97 153zM450 473l-201 -535q-25 -66 -58 -92t-84 -26q-8 0 -29 3l-10 59q22 -4 38 -4q31 0 50.5 16t33.5 54l20 49l-182 476h71l143 -396l139 396h69z" />
    <glyph glyph-name="ygrave.flat" horiz-adv-x="480" 
d="M450 473l-201 -535q-25 -66 -58 -92t-84 -26q-8 0 -29 3l-10 59q22 -4 38 -4q31 0 50.5 16t33.5 54l20 49l-182 476h71l143 -396l139 396h69zM271 548h-45l-136 134l86 19z" />
    <glyph glyph-name="ycircumflex.flat" horiz-adv-x="480" 
d="M375 548h-42l-92 83l-92 -83h-42l103 145h62zM450 473l-201 -535q-25 -66 -58 -92t-84 -26q-8 0 -29 3l-10 59q22 -4 38 -4q31 0 50.5 16t33.5 54l20 49l-182 476h71l143 -396l139 396h69z" />
    <glyph glyph-name="ydieresis.flat" horiz-adv-x="480" 
d="M369 557h-83v89h83v-89zM196 557h-82v89h82v-89zM450 473l-201 -535q-25 -66 -58 -92t-84 -26q-8 0 -29 3l-10 59q22 -4 38 -4q31 0 50.5 16t33.5 54l20 49l-182 476h71l143 -396l139 396h69z" />
    <glyph glyph-name="zacute.flat" horiz-adv-x="449" 
d="M377 684l-136 -134h-46l97 153zM402 0h-361v51l282 367h-263v55h339v-51l-282 -367h285v-55z" />
    <glyph glyph-name="zcaron.flat" horiz-adv-x="449" 
d="M91 695h42l92 -83l92 83h42l-103 -145h-62zM402 0h-361v51l282 367h-263v55h339v-51l-282 -367h285v-55z" />
    <glyph glyph-name="zdotaccent.flat" horiz-adv-x="449" 
d="M402 0h-361v51l282 367h-263v55h339v-51l-282 -367h285v-55zM267 557h-84v89h84v-89z" />
    <glyph glyph-name="f_f.flat" horiz-adv-x="590" 
d="M281 651q-18 4 -40 4q-72 0 -72 -73v-109h102v-56h-102v-417h-65v417h-72v56h72v114q0 64 35 95.5t98 31.5q14 0 34 -2zM576 651q-18 4 -40 4q-72 0 -72 -73v-109h102v-56h-102v-417h-65v417h-72v56h72v114q0 64 35 95.5t98 31.5q14 0 34 -2z" />
    <glyph glyph-name="f_f_i.flat" horiz-adv-x="824" 
d="M754 634q0 -20 -14 -34t-33 -14t-33.5 14t-14.5 34t14.5 34t33.5 14t33 -14t14 -34zM739 0h-65v473h65v-473zM281 651q-18 4 -40 4q-72 0 -72 -73v-109h102v-56h-102v-417h-65v417h-72v56h72v114q0 64 35 95.5t98 31.5q14 0 34 -2zM576 651q-18 4 -40 4q-72 0 -72 -73
v-109h102v-56h-102v-417h-65v417h-72v56h72v114q0 64 35 95.5t98 31.5q14 0 34 -2z" />
    <glyph glyph-name="f_f_l.flat" horiz-adv-x="824" 
d="M739 0h-65v706l65 12v-718zM281 651q-18 4 -40 4q-72 0 -72 -73v-109h102v-56h-102v-417h-65v417h-72v56h72v114q0 64 35 95.5t98 31.5q14 0 34 -2zM576 651q-18 4 -40 4q-72 0 -72 -73v-109h102v-56h-102v-417h-65v417h-72v56h72v114q0 64 35 95.5t98 31.5q14 0 34 -2z
" />
    <glyph glyph-name="fi.flat" horiz-adv-x="529" 
d="M459 634q0 -20 -14 -34t-33 -14q-20 0 -34 14t-14 34t14 34t34 14q19 0 33 -14t14 -34zM444 0h-65v473h65v-473zM281 651q-18 4 -40 4q-72 0 -72 -73v-109h102v-56h-102v-417h-65v417h-72v56h72v114q0 64 35 95.5t98 31.5q14 0 34 -2z" />
    <glyph glyph-name="fl.flat" horiz-adv-x="529" 
d="M444 0h-65v706l65 12v-718zM281 651q-18 4 -40 4q-72 0 -72 -73v-109h102v-56h-102v-417h-65v417h-72v56h72v114q0 64 35 95.5t98 31.5q14 0 34 -2z" />
    <glyph glyph-name="one.sup_flat" horiz-adv-x="360" 
d="M316 411h-248v46h99v273l-98 -37l-7 44l120 48h39v-328h95v-46z" />
    <glyph glyph-name="two.sup_flat" horiz-adv-x="360" 
d="M314 411h-269v44l146 128q58 51 58 91q0 28 -20.5 45.5t-54.5 17.5q-51 0 -113 -40l-7 48q61 40 125 40q60 0 94 -30t34 -75q0 -33 -18 -60.5t-58 -61.5l-115 -98h198v-49z" />
    <glyph glyph-name="three.sup_flat" horiz-adv-x="360" 
d="M307 509q0 -48 -39.5 -77.5t-102.5 -29.5q-68 0 -121 30l8 47q58 -30 113 -30q38 0 61.5 17.5t23.5 46.5q0 66 -112 66h-29v45h33q101 0 101 61q0 25 -19.5 39t-54.5 14q-58 0 -111 -33l-7 46q60 34 120 34q61 0 95 -25.5t34 -67.5q0 -66 -84 -90q91 -23 91 -93z" />
    <glyph glyph-name="onehalf.flat" horiz-adv-x="810" 
d="M316 311h-248v46h99v273l-98 -37l-7 44l120 48h39v-328h95v-46zM764 0h-269v44l146 128q58 51 58 91q0 28 -20.5 45.5t-54.5 17.5q-51 0 -113 -40l-7 48q61 40 125 40q60 0 94 -30t34 -75q0 -33 -18 -60.5t-58 -61.5l-115 -98h198v-49zM233 -8l-47 13l209 342l202 340
l47 -13l-210 -342z" />
    <glyph glyph-name="onequarter.flat" horiz-adv-x="810" 
d="M764 80h-58v-83h-49v83h-186v38l165 250h70v-247h58v-41zM657 121v121l1 80h-5l-37 -61l-60 -91l-31 -46l1 -4l49 1h82zM316 311h-248v46h99v273l-98 -37l-7 44l120 48h39v-328h95v-46zM248 -8l-47 13l209 342l202 340l47 -13l-210 -342z" />
    <glyph glyph-name="threequarters.flat" horiz-adv-x="810" 
d="M764 80h-58v-83h-49v83h-186v38l165 250h70v-247h58v-41zM657 121v121l1 80h-5l-37 -61l-60 -91l-31 -46l1 -4l49 1h82zM307 409q0 -48 -39.5 -77.5t-102.5 -29.5q-68 0 -121 30l8 47q58 -30 113 -30q38 0 61.5 17.5t23.5 46.5q0 66 -112 66h-29v45h33q101 0 101 61
q0 25 -19.5 39t-54.5 14q-58 0 -111 -33l-7 46q60 34 120 34q61 0 95 -25.5t34 -67.5q0 -66 -84 -90q91 -23 91 -93zM238 -8l-47 13l209 342l202 340l47 -13l-210 -342z" />
    <glyph glyph-name="i.dot" horiz-adv-x="234" 
d="M164 634q0 -20 -14 -34t-33 -14t-33.5 14t-14.5 34t14.5 34t33.5 14t33 -14t14 -34zM149 0h-65v473h65v-473z" />
    <glyph glyph-name="caron.alt" horiz-adv-x="456" 
d="M253 715q20 -38 20 -70q0 -63 -64 -120l-33 7q36 52 36 95q0 31 -23 77z" />
    <glyph glyph-name="uni0384.cap" horiz-adv-x="456" 
d="M289 690l-55 -169h-39l16 169h78z" />
    </font>
</defs>
</svg>
