<svg style="position: absolute; width: 0; height: 0; overflow: hidden;" version="1.1" xmlns="http://www.w3.org/2000/svg" xmlns:xlink="http://www.w3.org/1999/xlink">
<defs>
<symbol id="icon-Draft_not-selected" viewBox="0 0 32 32">
<title>Draft_not-selected</title>
<path class="path1" fill="#808080" d="M22.533 11.867l-1.333 1.333-2.8-2.8 1.333-1.333c0.267-0.267 0.8-0.267 1.067 0l1.733 1.733c0.267 0.267 0.267 0.667 0 1.067zM9.733 18.267l6.533-6.133 2.933 2.8-6.133 6.4h-3.467l0.133-3.067z"></path>
<path class="path2" fill="#808080" d="M16 26.667c-5.867 0-10.667-4.8-10.667-10.667s4.8-10.667 10.667-10.667 10.667 4.8 10.667 10.667-4.8 10.667-10.667 10.667zM16 2.667c-7.333 0-13.333 6-13.333 13.333s6 13.333 13.333 13.333 13.333-6 13.333-13.333-6-13.333-13.333-13.333z"></path>
</symbol>
</defs>
</svg>
