
<svg xmlns="http://www.w3.org/2000/svg" width="24" height="24" viewBox="0 0 24 24"><style type="text/css">
	.st0{fill:none;}
	.st1{fill:#808080;}
	.st2{display:none;fill:none;}
</style>
<symbol id="icon1" viewBox="-12 -12 24 24"><path class="st0" d="M-12 12h24v-24h-24V12z" style="display: none"/>
<path class="st1" d="M5.6 6.2C5.3 6.7 4.7 7 4 7L-7 7c-1.1 0-2-0.9-2-2V-5c0-1.1 0.9-2 2-2L4-7c0.7 0 1.3 0.3 1.6 0.8L10 0 5.6 6.2zM4-5H-7V5H4l3.5-5L4-5z"/>
</symbol>
<symbol id="icon1" viewBox="-12 -12 24 24" style="display: none">
<path class="st1" d="M-2 8h-6c-1.1 0-2-0.9-2-2l0-12c0-1.1 0.9-2 2-2H8c1.1 0 2 0.9 2 2V4c0 1.1-0.9 2-2 2H0L-2 8z"/>
<path class="st0" d="M-12 12h24v-24h-24V12z"/><rect x="-12" y="-12" class="st2" width="24" height="24"/>
</symbol>
<use xlink:href="#New_Symbol_14" width="24" height="24" x="-12" y="-12" transform="matrix(1 0 0 -1 980 169)"/>
<use xlink:href="#New_Symbol_12" width="24" height="24" x="-12" y="-12" transform="matrix(1 0 0 -1 12 12)"/>
</svg>
