<?xml version="1.0" encoding="utf-8"?>
<!-- Generator: Adobe Illustrator 19.0.0, SVG Export Plug-In . SVG Version: 6.00 Build 0)  -->
<svg version="1.1" id="Layer_1" xmlns="http://www.w3.org/2000/svg" xmlns:xlink="http://www.w3.org/1999/xlink" x="0px" y="0px"
	 viewBox="0 0 65 65" style="enable-background:new 0 0 65 65;" xml:space="preserve">
<style type="text/css">
	.st0{fill-rule:evenodd;clip-rule:evenodd;fill:#BD2036;}
</style>
<path id="XMLID_3188_" class="st0" d="M46,6.6L43.9,11h4.1L46,6.6z M61.6,49.2c-0.5,0-0.8,0.2-1.2,0.5c-0.3,0.3-0.5,0.7-0.5,1.2
	c0,0.3,0.1,0.6,0.2,0.8c0.1,0.3,0.3,0.4,0.6,0.6c0.3,0.1,0.5,0.2,0.8,0.2c0.3,0,0.6-0.1,0.8-0.2c0.3-0.1,0.5-0.3,0.6-0.6
	c0.1-0.2,0.2-0.5,0.2-0.8c0-0.5-0.2-0.9-0.5-1.2C62.4,49.4,62,49.2,61.6,49.2 M62,52l0-0.1c0,0,0-0.1,0-0.2c0-0.2,0-0.3,0-0.4
	l-0.1-0.2c0,0-0.1-0.1-0.2-0.1H61v1l0,0v-2h0.7c0.2,0,0.4-0.1,0.5,0c0.1,0,0.2,0.1,0.2,0.2c0.1,0.1,0.1,0.2,0.1,0.3
	c0,0.1,0,0.2-0.1,0.3c0,0.1-0.1,0.1-0.2,0.2l0.2,0.2c0,0.1,0.1,0.2,0.1,0.3c0,0.3,0,0.4,0,0.5l0.1,0.1H62z M47.7,37.4
	C47.2,38.2,47,39.1,47,40c0,1.4,0.5,2.6,1.5,3.6c1,1,2.2,1.5,3.6,1.5c0.9,0,1.8-0.2,2.6-0.7c0.8-0.5,1.4-1.1,1.9-1.9
	c0.4-0.8,0.7-1.6,0.7-2.6c0-1-0.2-1.8-0.7-2.6c-0.4-0.8-1.1-1.4-1.9-1.8c-0.8-0.5-1.7-0.7-2.6-0.7c-0.9,0-1.7,0.2-2.5,0.7
	C48.8,36,48.1,36.6,47.7,37.4 M0,65h65V0H0V65z M52,4h7v1h-3v11h-1V5h-3V4z M58,24v1h-5v5h5v1h-6V19h6v1h-5v4H58z M58.4,40
	c0,1.8-0.6,3.3-1.8,4.5c-1.2,1.2-2.7,1.8-4.5,1.8c-1.8,0-3.3-0.6-4.5-1.8c-1.2-1.2-1.8-2.7-1.8-4.4c0-1.2,0.3-2.2,0.8-3.2
	c0.6-1,1.3-1.8,2.3-2.3c1-0.6,2-0.8,3.1-0.8c1.8,0,3.3,0.6,4.6,1.8C57.8,36.7,58.4,38.2,58.4,40 M45.9,4h0.3l5.6,12h-1.3l-1.9-4
	h-5.2l-1.9,4h-1.3L45.9,4z M43.9,18.7c1.1,0,2.1,0.2,3,0.7c0.9,0.4,1.6,1.1,2.2,1.8L48.2,22c-0.5-0.7-1.1-1.2-1.9-1.5
	c-0.7-0.3-1.5-0.5-2.4-0.5c-1,0-1.8,0.2-2.7,0.7c-0.8,0.5-1.4,1.1-1.9,1.9c-0.4,0.8-0.7,1.6-0.7,2.6c0,1.5,0.5,2.7,1.5,3.7
	c1,1,2.3,1.5,3.8,1.5c1.7,0,3.1-0.7,4.2-2l0.9,0.7c-0.6,0.8-1.3,1.4-2.2,1.8c-0.9,0.4-1.9,0.6-3,0.6c-2.1,0-3.7-0.7-5-2.1
	c-1-1.2-1.5-2.6-1.5-4.3c0-1.8,0.6-3.2,1.8-4.4C40.5,19.3,42.1,18.7,43.9,18.7 M32,4h7v1h-6v4h6v1h-6v5h6v1h-7V4z M22,4h2.2
	c1.3,0,2.2,0.1,2.7,0.2c0.7,0.2,1.3,0.5,1.7,1.1c0.4,0.5,0.7,1.2,0.7,2c0,0.7-0.2,1.2-0.5,1.7c-0.3,0.5-0.7,0.9-1.3,1.1
	c-0.6,0.3-1.4,0.3-2.4,0.3l4.3,5.5H28l-4.3-5H23v5h-1V4z M24,30v1h-6V19h1v11H24z M7.7,6.9C8.2,5.9,9,5.2,10,4.6
	c1-0.5,2.1-0.8,3.4-0.8c1,0,2,0.2,2.9,0.5c0.9,0.4,1.8,0.9,2.6,1.7L18,6.9c-0.7-0.7-1.4-1.1-2.2-1.5c-0.8-0.3-1.6-0.5-2.3-0.5
	c-0.9,0-1.8,0.2-2.7,0.7c-0.9,0.5-1.5,1.1-2,1.9C8.3,8.3,8,9.1,8,10c0,0.9,0.2,1.8,0.7,2.6c0.5,0.8,1.2,1.5,2,1.9
	c0.9,0.5,1.8,0.7,2.8,0.7c1.2,0,2.3-0.6,3.1-1.3c0.9-0.7,1.4-0.9,1.5-2.9H14v-1h5.6c0,2-0.6,3.5-1.7,4.6c-1.1,1.1-2.6,1.7-4.4,1.7
	c-2.2,0-4-0.7-5.3-2.2c-1-1.2-1.5-2.5-1.5-4C6.8,8.9,7.1,7.9,7.7,6.9 M9,25v6H8V19h2.4c1.4,0,2.3,0.1,2.8,0.2
	c0.7,0.2,1.2,0.5,1.7,1.1c0.4,0.5,0.7,1.2,0.7,2c0,0.8-0.2,1.5-0.6,2c-0.4,0.5-1,0.6-1.8,0.8c-0.5,0.1-1.6,0-3.1,0H9z M21.4,61h-0.2
	l-3.6-9.1L14,61h-0.2l-3.4-12h1.2l2.5,8.7l3.4-8.7h0.2l3.4,8.7l2.5-8.7h1.2L21.4,61z M30.7,19H31l5.6,12h-1.3l-1.9-4h-5.2l-1.9,4
	h-1.3L30.7,19z M36.7,59.4c-1.2,1.2-2.7,1.8-4.5,1.8c-1.8,0-3.3-0.6-4.5-1.8c-1.2-1.2-1.8-2.7-1.8-4.4c0-1.2,0.3-2.2,0.8-3.2
	c0.6-1,1.3-1.8,2.3-2.3c1-0.5,2-0.8,3.1-0.8c1.8,0,3.3,0.6,4.6,1.8c1.2,1.2,1.8,2.7,1.8,4.5C38.5,56.7,37.9,58.2,36.7,59.4 M38,35
	v-1h7v1h-3v11h-1V35H38z M47.1,61l-4.3-6H42v6h-1V49h2.3c1.3,0,2.2,0,2.7,0.1c0.7,0.2,1.3,0.5,1.7,1c0.4,0.5,0.7,1.2,0.7,2
	c0,0.7-0.2,1.2-0.5,1.7c-0.3,0.5-0.7,0.9-1.3,1.1c-0.6,0.3-1.4,0.4-2.4,0.4l4.3,5.6H47.1z M57.4,61L52,55.4V61h-1V49h1v4.5l5-4.5
	h1.6l-5.8,5.4L59,61H57.4z M63.4,51.9c-0.2,0.3-0.4,0.6-0.8,0.8c-0.3,0.2-0.7,0.3-1,0.3c-0.4,0-0.7-0.1-1-0.3
	c-0.3-0.2-0.6-0.4-0.8-0.8c-0.2-0.3-0.3-0.7-0.3-1c0-0.4,0.1-0.7,0.3-1c0.2-0.3,0.4-0.6,0.8-0.8s0.7-0.3,1-0.3c0.4,0,0.7,0.1,1,0.3
	c0.3,0.2,0.6,0.4,0.8,0.8c0.2,0.3,0.3,0.7,0.3,1C63.6,51.3,63.5,51.6,63.4,51.9 M14,23.4c0.2-0.3,0.3-0.7,0.3-1.1
	c0-0.4-0.1-0.8-0.3-1.1c-0.2-0.3-0.5-0.7-0.9-0.8c-0.4-0.1-0.9-0.3-1.8-0.3H9v4.3l2.2,0c0.8,0,1.5-0.1,1.9-0.2
	C13.4,23.9,13.8,23.7,14,23.4 M46.8,53.3c0.2-0.3,0.3-0.7,0.3-1.1c0-0.4-0.1-0.8-0.3-1.1c-0.2-0.3-0.5-0.6-0.9-0.8
	C45.6,50.1,45,50,44.2,50H42v4.2l2.1,0c0.8,0,1.4-0.1,1.8-0.2C46.3,53.8,46.6,53.6,46.8,53.3 M30.9,21.6L28.8,26h4.1L30.9,21.6z
	 M61.6,50.2h-0.4v0.5h0.4c0.2,0,0.3,0,0.3-0.1c0.1-0.1,0.1-0.1,0.1-0.2c0-0.1,0-0.2-0.1-0.2C61.9,50.2,61.8,50.2,61.6,50.2
	 M26.9,9.1c0.4-0.2,0.7-0.4,0.9-0.7c0.2-0.3,0.3-0.7,0.3-1.1c0-0.4-0.1-0.8-0.3-1.1c-0.2-0.3-0.5-0.7-0.9-0.8C26.6,5.2,26,5,25.2,5
	H23v4.3l2.1,0C25.9,9.4,26.5,9.3,26.9,9.1 M34.7,50.5c-0.8-0.5-1.7-0.7-2.6-0.7c-0.9,0-1.7,0.2-2.5,0.7c-0.8,0.5-1.4,1.1-1.9,1.9
	c-0.4,0.8-0.7,1.7-0.7,2.6c0,1.4,0.5,2.6,1.5,3.6c1,1,2.2,1.5,3.6,1.5c0.9,0,1.8-0.2,2.6-0.7c0.8-0.4,1.4-1.1,1.9-1.8
	c0.4-0.8,0.7-1.7,0.7-2.6c0-1-0.2-1.8-0.7-2.6C36.2,51.6,35.5,51,34.7,50.5"/>
</svg>
