<?xml version="1.0" encoding="utf-8"?>
<!-- Generator: Adobe Illustrator 19.0.0, SVG Export Plug-In . SVG Version: 6.00 Build 0)  -->
<svg version="1.1" id="Layer_1" xmlns="http://www.w3.org/2000/svg" xmlns:xlink="http://www.w3.org/1999/xlink" x="0px" y="0px"
	 viewBox="0 0 96 47.8" style="enable-background:new 0 0 96 47.8;" xml:space="preserve">
<style type="text/css">
	.st0{fill:none;}
	.st1{fill:#3C3D41;}
	.st2{fill:#005EBC;}
	.st3{fill:#808080;}
</style>
<g id="XMLID_2_">
	<path id="XMLID_7_" class="st0" d="M0,0h24v24H0V0z"/>
	<path id="XMLID_3_" class="st1" d="M3,12.4h15v-2H3 M3,5.4v2h18v-2 M3,17.4h11v-2H3V17.4z"/>
</g>
<g id="XMLID_8_">
	<path id="XMLID_13_" class="st0" d="M0,23.8h24v24H0V23.8z"/>
	<path id="XMLID_9_" class="st2" d="M3,36.2h15v-2H3 M3,29.2v2h18v-2 M3,41.2h11v-2H3V41.2z"/>
</g>
<g id="XMLID_14_">
	<path id="XMLID_20_" class="st0" d="M24.2,0.1h24v24h-24V0.1z"/>
	<path id="XMLID_15_" class="st1" d="M43.6,16.2V8.8H32.1v7.4H43.6 M43.6,4.7c0.9,0,1.6,0.7,1.6,1.6v9.8c0,0.9-0.7,1.6-1.6,1.6H32.1
		c-0.9,0-1.6-0.7-1.6-1.6V6.4c0-0.9,0.7-1.6,1.6-1.6h0.8V3.1h1.6v1.6H41V3.1h1.6v1.6H43.6 M40.7,11.3l-3.6,3.6l-2.2-2.2l0.9-0.9
		l1.3,1.3l2.8-2.8L40.7,11.3 M28.8,19.5h11.5v1.6H28.8c-0.9,0-1.6-0.7-1.6-1.6V9.6h1.6V19.5z"/>
</g>
<g id="XMLID_21_">
	<path id="XMLID_27_" class="st0" d="M24.2,24.1h24v24h-24V24.1z"/>
	<path id="XMLID_22_" class="st2" d="M43.6,40.2v-7.4H32.1v7.4H43.6 M43.6,28.7c0.9,0,1.6,0.7,1.6,1.6v9.8c0,0.9-0.7,1.6-1.6,1.6
		H32.1c-0.9,0-1.6-0.7-1.6-1.6v-9.7c0-0.9,0.7-1.6,1.6-1.6h0.8v-1.7h1.6v1.6H41v-1.6h1.6v1.6H43.6 M40.7,35.3l-3.6,3.6l-2.2-2.2
		l0.9-0.9l1.3,1.3l2.8-2.8L40.7,35.3 M28.8,43.5h11.5v1.6H28.8c-0.9,0-1.6-0.7-1.6-1.6v-9.9h1.6V43.5z"/>
</g>
<g id="XMLID_28_">
	<rect id="XMLID_36_" x="48" class="st0" width="24" height="24"/>
	<path id="XMLID_33_" class="st3" d="M64.9,8.9l-1,1l-2.1-2.1l1-1c0.2-0.2,0.6-0.2,0.8,0l1.3,1.3C65.1,8.3,65.1,8.6,64.9,8.9
		 M55.3,13.7l4.9-4.6l2.2,2.1L57.8,16h-2.6L55.3,13.7"/>
	<g id="XMLID_29_">
		<path id="XMLID_30_" class="st3" d="M60,20c-4.4,0-8-3.6-8-8s3.6-8,8-8s8,3.6,8,8S64.4,20,60,20 M60,2c-5.5,0-10,4.5-10,10
			s4.5,10,10,10s10-4.5,10-10S65.5,2,60,2"/>
	</g>
</g>
<g id="XMLID_37_">
	<rect id="XMLID_45_" x="48" y="24.2" class="st0" width="24" height="24"/>
	<path id="XMLID_42_" class="st2" d="M64.8,33.7l-1,1l-2.1-2.1l1-1c0.2-0.2,0.6-0.2,0.8,0l1.3,1.3C65,33.2,65,33.5,64.8,33.7
		 M55.2,38.7l4.9-4.7l2.2,2.3l-4.6,4.9h-2.6L55.2,38.7"/>
	<g id="XMLID_38_">
		<path id="XMLID_39_" class="st2" d="M60,44.2c-4.4,0-8-3.6-8-8s3.6-8,8-8s8,3.6,8,8S64.4,44.2,60,44.2 M60,26.2
			c-5.5,0-10,4.5-10,10s4.5,10,10,10s10-4.5,10-10S65.5,26.2,60,26.2"/>
	</g>
</g>
<rect id="XMLID_1_" class="st0" width="24" height="24"/>
<rect id="XMLID_47_" y="23.8" class="st0" width="24" height="24"/>
<rect id="XMLID_48_" x="24.1" y="0.1" class="st0" width="24" height="24"/>
<rect id="XMLID_46_" x="24.2" y="24.1" class="st0" width="24" height="24"/>
<rect id="XMLID_50_" x="48" y="0.4" class="st0" width="24" height="24"/>
<rect id="XMLID_49_" x="48.4" y="24.1" class="st0" width="24" height="24"/>
<g id="XMLID_117_">
	<rect id="XMLID_130_" x="72" y="24.2" class="st0" width="24" height="24"/>
	<path id="XMLID_118_" class="st2" d="M84,26.2h-0.3l0,0l0,0l0,0l0,0l0,0l0,0l0,0l0,0l0,0l0,0l0,0l0,0l0,0l0,0l0,0l0,0l0,0l0,0l0,0
		l0,0l0,0l0,0l0,0l0,0l0,0l0,0l0,0l0,0l0,0l0,0l0,0l0,0l0,0l0,0l0,0l0,0l0,0l0,0l0,0l0,0l0,0l0,0l0,0l0,0l0,0l0,0l0,0l0,0l0,0l0,0
		l0,0l0,0l0,0l0,0l0,0l0,0l0,0l0,0l0,0l0,0l0,0l0,0l0,0l0,0l0,0l0,0l0,0l0,0l0,0l0,0l0,0l0,0l0,0l0,0l0,0l0,0l0,0l0,0l0,0l0,0l0,0
		l0,0l0,0l0,0l0,0l0,0l0,0l0,0l0,0l0,0l0,0l0,0l0,0l0,0l0,0l0,0l0,0l0,0l0,0l0,0l0,0l0,0l0,0l0,0l0,0l0,0l0,0l0,0l0,0l0,0l0,0l0,0
		l0,0l0,0l0,0l0,0l0,0l0,0l0,0l0,0l0,0l0,0l0,0l0,0l0,0l0,0l0,0l0,0l0,0l0,0l0,0l0,0l0,0l0,0l0,0l0,0l0,0l0,0l0,0l0,0l0,0l0,0l0,0
		l0,0l0,0l0,0l0,0l0,0l0,0l0,0l0,0l0,0l0,0l0,0l0,0l0,0l0,0l0,0l0,0l0,0l0,0l0,0l0,0l0,0l0,0l0,0l0,0l0,0l0,0l0,0l0,0l0,0l0,0l0,0
		l0,0l0,0l0,0l0,0l0,0l0,0l0,0l0,0l0,0l0,0l0,0l0,0l0,0l0,0l0,0l0,0l0,0l0,0l0,0l0,0l0,0l0,0l0,0l0,0l0,0l0,0l0,0l0,0l0,0l0,0l0,0
		l0,0l0,0l0,0l0,0l0,0l0,0l0,0l0,0l0,0l0,0l0,0l0,0l0,0l0,0l0,0l0,0l0,0l0,0l0,0l0,0l0,0l0,0l0,0l0,0l0,0l0,0l0,0l0,0l0,0l0,0l0,0
		l0,0l0,0l0,0l0,0l0,0l0,0l0,0l0,0l0,0l0,0l0,0l0,0l0,0l0,0l0,0l0,0l0,0l0,0l0,0l0,0l0,0l0,0l0,0l0,0l0,0l0,0l0,0l0,0l0,0l0,0l0,0
		l0,0l0,0l0,0l0,0l0,0l0,0l0,0l0,0l0,0l0,0l0,0l0,0l0,0l0,0l0,0l0,0l0,0l0,0l0,0l0,0l0,0l0,0l0,0l0,0l0,0l0,0l0,0l0,0l0,0l0,0l0,0
		l0,0l0,0l0,0l0,0l0,0l0,0l0,0l0,0l0,0l0,0l0,0l0,0l0,0l0,0l0,0l0,0l0,0l0,0l0,0l0,0l0,0l0,0l0,0l0,0l0,0l0,0l0,0l0,0l0,0l0,0l0,0
		l0,0h-0.4l0,0h0.3l0,0l0,0l0,0l0,0l0,0h-0.3l0,0l0,0l0,0l0,0l0,0l0,0v0.1l0,0l0,0l0,0l0,0l0.1-0.1h0.1l0,0l0,0
		c-0.5,0-1,0.2-1.4,0.4l0.7,1.9c-0.6-0.2,0.2-0.3,1.2-0.3V26.2L84,26.2L84,26.2z M78.2,27.9C78.1,28,78,28.1,78,28.1l0,0h-0.2h0.1
		c0,0.1,0.1,0,0.1,0.1l0,0c0,0-0.2,0-0.3,0l0,0l0,0l0,0H78l0,0h-0.3l0,0l0,0l0,0l0,0l0,0l0,0l0,0l0,0l0,0l0,0l0,0l0,0l0,0l0,0l0,0
		l0,0l0,0l0,0l0,0l0,0l0,0l0,0l0,0l0,0l0,0l0,0l0,0l0,0l0,0h0.2h0.2l0,0h-0.4l0,0l0,0l0,0l0,0l0,0c-0.1,0,0.3,0,0.3,0l0,0l0,0l0,0
		l0,0l0,0c0,0.1-0.2,0-0.2,0h-0.1h-0.1l0,0l0,0l0,0l0.2,0.1l0,0H78l0,0l0,0l0,0c-1,0.5-1.4,1-1.9,1.7l1.5,1.2
		c0.5-0.6,1.1-1.2,1.7-1.6L78.2,27.9L78.2,27.9z M74.4,32.6L74.4,32.6L74.4,32.6L74.4,32.6L74.4,32.6L74.4,32.6L74.4,32.6L74.4,32.6
		L74.4,32.6C74.4,32.7,74.3,32.7,74.4,32.6C74.3,32.7,74.3,32.7,74.4,32.6C74.4,32.7,74.4,32.7,74.4,32.6L74.4,32.6L74.4,32.6
		L74.4,32.6L74.4,32.6L74.4,32.6L74.4,32.6L74.4,32.6l-0.2,0.1l0,0H74l0,0l0.2,0.5h0.1l0,0h-0.1c-0.1,0-0.2-0.4-0.2-0.4l0,0l0.2,0.4
		h0.1l0,0h-0.1c-0.1,0-0.2-0.4-0.2-0.4l0,0l0.2,0.4h0.1l0,0l0,0l0,0l0,0l0,0h-0.1c-0.1,0-0.2-0.4-0.2-0.4l0,0l0.1,0.4H74
		c0.1,0,0-0.4,0-0.4l0,0l0.1,0.4H74c0.1,0,0-0.3,0-0.3l0,0l0.1,0.3H74c0.1,0,0-0.3,0-0.3l0,0l0,0l0,0l0,0l0,0l0,0l0,0l0.1,0.3H74
		c0.1,0,0-0.3,0-0.3l0,0l0,0l0,0l0,0l0,0l0,0l0,0l0,0l0,0l0,0l0,0c0,0.1,0.1,0.3,0.1,0.3H74c0.1,0,0-0.2,0-0.2l0,0l0,0l0,0l0.1,0.2
		H74c0.1,0,0-0.2,0-0.2l0,0l0,0l0,0l0.1,0.2H74c0.1,0,0-0.2,0-0.2l0,0l0,0l0,0l0,0l0,0l0,0l0,0l0,0l0,0c0,0.1,0.1,0.2,0.1,0.2l0,0
		L74,33.1l0,0l0,0l0,0l0.1,0.1l0,0v-0.1l0,0l0,0l0,0c-0.1,0,0,0.1,0,0.1l0,0v-0.1l0,0l0,0l0,0l0,0l0,0l0,0l0,0l0,0l0,0h0.1l0,0l0,0
		l0,0l0,0l0,0h0.1l0,0l0,0l0,0l0,0l0,0l0,0l0,0l0,0l0,0l0,0l0,0l0,0l0,0l0,0l0,0l0,0l0,0l0,0l0,0l0,0l0,0l0,0l0,0l0,0l0,0
		c-0.3,0.2-0.2,0.1-0.2,0.1l0,0v0.1l0,0l0,0l0,0c-0.1,0,0-0.1,0-0.1l0,0v0.1l0,0l0,0l0,0l0,0l0,0l0,0l0,0l0,0l0,0l0,0l0,0l0,0l0,0
		c-0.1,0.1,0-0.1,0-0.1l0,0v0.2l0,0l0,0l0,0c-0.1,0,0-0.2,0-0.2l0,0v0.2l0,0l0,0l0,0c-0.1,0-0.1-0.2-0.1-0.2l0,0v0.2l0,0l0,0l0,0
		v-0.2l0,0v0.2l0,0l0,0l0,0c0,0.1,0-0.2,0-0.2l0,0v0.3l0,0l0,0l0,0v-0.3l0,0v0.3l0,0l0,0l0,0v-0.3l0,0l0,0l0,0v0.3l0,0l0,0l0,0l0,0
		l0,0l0,0l0,0v-0.3l0,0c0,0,0,0.3,0,0.4l0,0l0,0l0,0l0,0l0,0l0,0l0,0l0,0l0,0l0,0l0,0v-0.4l0,0v0.4l0,0l0,0l0,0v-0.4l0,0v0.4l0,0
		l0,0l0,0v-0.4l0,0v0.4l0,0l0,0l0,0c0,0.1,0-0.4,0-0.4l0,0v0.5l0,0l0,0l0,0v-0.5l0,0v0.5l0,0l0,0l0,0l0,0l0,0l0,0l0,0l0,0l0,0l0,0
		l0,0l0,0l0,0l0,0l0,0l0,0l0,0l0,0l0,0l0,0l0,0v0.4l0,0v-0.4l0,0l0,0l0,0v0.4l0,0v-0.4l0,0l0,0l0,0v0.4l0,0c0,0,0-0.4,0-0.3l0,0l0,0
		l0,0v0.3l0,0l0,0l0,0v-0.3l0,0v0.3l0,0l0,0l0,0v-0.3l0,0v0.3l0,0l0,0l0,0v-0.3l0,0l0,0l0,0l0,0l0,0l0,0l0,0v0.3l0,0l0,0l0,0v-0.2
		l0,0v0.2l0,0l0,0l0,0v-0.2l0,0l0,0l0,0v0.2l0,0v-0.2l0,0v0.2l0,0l0,0l0,0v-0.2l0,0l0,0l0,0l0,0l0,0l0,0l0,0l0,0l0,0l0,0l0,0l0,0
		l0,0l0,0l0,0l0,0l0,0V34l0,0v-0.1l0,0l0,0l0,0V34l0,0l0,0l0,0l0,0l0,0l0,0l0,0l0,0l0,0l0,0l0,0l0,0l0,0l0,0l0,0l0,0l0,0l0,0l0,0
		l0,0l0,0l0,0l0,0l0,0l0,0l0,0l0,0l0,0l0,0l0,0l0,0l0,0l0,0l0,0l0,0l0,0l0,0l0,0l0,0l0,0l0,0l0,0l0,0l0,0l0,0l0,0l0,0l0,0l0,0l0,0
		l0,0l0,0l0,0l0,0l0,0l0,0l0,0l0,0l0,0l0,0l0,0l0,0l0,0l0,0l0,0l0,0l0,0l0,0l0,0l0,0l0,0l0,0l0,0l0,0l0,0l0,0l0,0l0,0l0,0l0,0l0,0
		l0,0l0,0l0,0l0,0l0,0l0,0l0,0l0,0l0,0l0,0l0,0l0,0l0,0l0,0l0,0l0,0l0,0l0,0l0,0l0,0l0,0l0,0l0,0l0,0l0,0l0,0l0,0l0,0l0,0l0,0l0,0
		l0,0l0,0l0,0l0,0l0,0l0,0l0,0l0,0l0,0l0,0l0,0l0,0l0,0l0,0l0,0l0,0l0,0l0,0l0,0l0,0l0,0l0,0l0,0l0,0l0,0l0,0l0,0l0,0l0,0l0,0l0,0
		l0,0l0,0l0,0l0,0l0,0l0,0l0,0l0,0l0,0l0,0l0,0l0,0l0,0l0,0l0,0l0,0l0,0l0,0l0,0l0,0l0,0l0,0l0,0l0,0l0,0l0,0l0,0l0,0l0,0l0,0l0,0
		l0,0l0,0l0,0l0,0v0.4l0,0v-0.3l0,0l0,0l0,0l0,0l0,0v0.3l0,0l0,0v-0.3v0.3h-0.1h-0.1l0,0l0,0l0,0c0,0,0,0.2-0.1,0.4l2,0.1
		c0.1,0,0.3-0.8,0.5-1.6L74.4,32.6L74.4,32.6z M75.9,38l-2,0.5c0.1,0.1,0.1,0.3,0.1,0.4V39l0.1,0.2l0,0v-0.3l0,0l0,0l0,0l0,0l0,0
		l0,0l0,0l0,0l0,0l0,0l0,0l0,0l0,0l0,0l0,0l0,0l0,0l0,0l0,0l0,0l0.1,0.2l0,0l0,0h-0.1v-0.2l0,0l0.1,0.2l0,0l0,0l0,0l0,0l0,0
		c0.2,1,0.6,1.4,0.9,2.1l1.7-1C76.4,39.6,76.1,38.8,75.9,38L75.9,38z M78.3,42.1l-1.4,1.7c0.1,0,0.3,0.4,0.4,0.4h-0.2L77,43.9v0.2
		l0.3,0.2l0,0l0,0l0,0v-0.2V44l0,0l0,0l0,0v0.2v0.2l0,0v-0.2v-0.1l0,0l0,0v0.1v0.1l0,0v-0.1v-0.1l0,0l0,0l0,0v0.1v0.1l0,0v-0.1v0.1
		v0.1l0,0l-0.4-0.1v-0.1l0,0v0.1l0.4,0.1l0,0l-0.4-0.1v-0.1l0,0l0,0l0,0l0,0l0.2,0.2h0.1h0.1l0,0c0.6,0,1.3,0.8,2,1.2l0.9-1.9
		C79.6,43.1,78.9,42.6,78.3,42.1L78.3,42.1z M85,44.2c-0.4,0-0.9,0-1.3,0c-0.4,0-0.8,0-1.1-0.1l-0.3,2c0.2,0,0.7,0.1,0.7,0.1l0,0
		l0,0l0,0l0,0l0,0l0,0l0,0l0,0l0,0l0,0l0,0l0,0l0,0l0,0l0,0l0,0l0,0l0,0l0,0l0,0l0,0l0,0l0,0l0,0l0,0l0,0l0,0l0,0l0,0l0,0l0,0l0,0
		l0,0l0,0l0,0l0,0l0,0l0,0l0,0l0,0l0,0l0,0l0,0l0,0l0,0l0,0l0,0l0,0l0,0l0,0l0,0l0,0l0,0l0,0l0,0l0,0l0,0l0,0l0,0l0,0l0,0l0,0l0,0
		l0,0l0,0l0,0l0,0l0,0l0,0l0,0l0,0l0,0l0,0l0,0l0,0l0,0l0,0l0,0l0,0l0,0l0,0l0,0l0,0l0,0l0,0l0,0l0,0l0,0l0,0l0,0l0,0l0,0l0,0l0,0
		l0,0l0,0l0,0l0,0l0,0l0,0l0,0l0,0l0,0l0,0l0,0l0,0l0,0l0,0l0,0l0,0l0,0l0,0l0,0l0,0l0,0l0,0l0,0l0,0l0,0l0,0l0,0l0,0l0,0l0,0l0,0
		l0,0l0,0l0,0l0,0l0,0l0,0l0,0l0,0l0,0l0,0l0,0l0,0l0,0l0,0l0,0l0,0l0,0l0,0l0,0l0,0l0,0l0,0l0,0l0,0l0,0l0,0l0,0l0,0l0,0l0,0l0,0
		l0,0l0,0l0,0l0,0l0,0l0,0l0,0l0,0l0,0l0,0l0,0l0,0l0,0l0,0l0,0l0,0l0,0l0,0l0,0l0,0l0,0l0,0l0,0l0,0l0,0l0,0l0,0l0,0l0,0l0,0l0,0
		l0,0l0,0l0,0l0,0l0,0l0,0l0,0l0,0l0,0l0,0l0,0l0,0l0,0l0,0l0,0l0,0l0,0l0,0l0,0l0,0l0,0l0,0l0,0l0,0l0,0l0,0l0,0l0,0l0,0l0,0l0,0
		l0,0l0,0l0,0l0,0l0,0h1c0.4,0,1,0,1-0.1l0,0l0,0v0.1l0,0v-0.1l0,0l0,0h0.2l0,0l0,0l0,0l0,0l0,0l0,0l0,0l0,0l0,0l0,0l0,0l0,0l0,0
		l0,0l0,0l0,0l0,0l0,0l0,0l0,0l0,0l0,0l0,0l0,0l0,0l0,0L85,44.2L85,44.2z M89.2,42c-0.6,0.6-1.2,1-2,1.4l0.9,1.8
		c0.1-0.1,0.3,0,0.4-0.1l0,0v0.1h0.2l0.2-0.3V45l-0.4,0.1l0,0l0.4-0.1v-0.1l0,0V45l-0.3,0.2l0,0l0,0l0,0v-0.1V45l0,0l0,0l0,0l0,0
		l0,0l0,0l0,0l0,0l0,0l0,0l0,0l0,0l0,0l0,0l0,0l0,0l0,0l0,0l0,0l0,0l0,0l0,0v0.2v0.2l0,0l0,0l0,0l0,0l0,0v-0.2v0.1v0.1l0,0l0,0l0,0
		l0,0l0,0l0,0l0,0l0,0l0,0l0,0l0,0l0.2-0.2v-0.1c0,0,0,0,0-0.1v0.2l-0.2,0.2l0,0l0.2-0.2v-0.1V45l0,0l0,0l0,0l0,0l0,0l-0.1,0.4l0,0
		l0,0l0,0l0,0l0,0l0.1-0.2V45V45l0,0l0,0l0,0l0,0l0,0l0,0l0,0l0,0l0,0l0,0l0,0l0,0l0,0l0,0l0,0l0,0l0,0c0.2-0.1,0.5-0.3,0.7-0.5l0,0
		l0,0l0,0l0,0l0,0l0,0l0,0l0,0l0,0l0,0l0,0l0,0l0,0l0,0l0,0l0,0l0,0l0,0l0,0l0,0l0,0l0,0h0.1h0.1v0.1l-0.1,0.1h0.1l0.1-0.1v0.1
		l-0.1,0.1l0,0l0.1-0.1l0,0l0,0v0.1l-0.1,0.1l0,0l0.1-0.1l0,0l0,0l0,0l0,0l0,0l0,0l0,0l0,0l0,0V45l0,0v-0.2v0.1V45l0,0v-0.1v-0.1
		l0,0v0.1V45l0,0l0,0l0,0l0,0l0,0v-0.1V45v0.1l0,0l0,0l0,0l0,0l0,0V45v-0.1l0,0l0,0l0,0V45v0.1l0,0V45v-0.1l0,0l0,0l0,0l0,0l0,0l0,0
		l0,0l0,0l0,0l0,0l0,0l0,0l0,0l0,0l0,0l0,0l0,0l0,0l0,0l0,0l0,0l0,0l0,0l0,0l0,0l0,0l0,0l0,0l0,0l0,0l0,0l0,0l0,0l0,0l0,0l0,0l0,0
		l0,0l0,0l0,0l0,0l0,0l0,0l0,0l0,0l0,0l0,0l0,0l0,0l0,0l0,0l0,0l0,0l0,0l0,0l0,0l0,0l0,0l0,0l0,0l0,0l0,0l0,0l0,0l0,0l0,0l0,0l0,0
		l0,0l0,0l0,0l0,0l0,0l0,0l0,0l0,0l0,0l0,0l0,0l0,0l0,0l0,0l0,0l0,0l0,0l0,0l0,0l0,0l0,0l0,0l0,0l0,0l0,0l0,0l0,0l0,0l0,0l0,0l0,0
		l0,0l0,0l0,0l0,0l0,0l0,0l0,0l0,0l0,0l0,0l0,0l0,0l0,0v-0.2v-0.2l0,0l0,0l0,0v0.2l-0.2,0.1l-0.2,0.1v-0.2l0.4-0.2l0,0l-0.4,0.2v0.1
		l0,0v-0.2l0.4-0.2l0,0l-0.4,0.2v-0.1l0.5-0.1l0,0l-0.5,0.2v0.1l0,0l0,0l0,0l0,0l0.3-0.3h0.1h0.1l0,0l0,0l0,0l0,0l0,0l0,0l0,0
		l0.5,0.1v0.1l0,0l0,0l0,0l0,0h-0.2h-0.1H90l0,0L89.2,42L89.2,42z M91.5,37.8c-0.2,0.8-0.5,1.6-0.8,2.3l1.9,1
		c0.1-0.1,0.4-0.3,0.4-0.4l0,0l-0.2-0.5h-0.1l0,0l0,0l0,0h0.2l0.2,0.4v-0.2l-0.3-0.2H93l0.2,0.4l0,0l0,0l0,0l0,0l0,0l0,0l0,0
		c0,0-0.2,0-0.1,0h0.1h0.1l0,0h-0.1h-0.1l0,0l0,0h0.1h0.1l0,0l0,0h-0.1h-0.1l0,0l0,0h0.1h0.1l0,0l0,0l0,0h-0.1h-0.1l0,0l0,0h0.1h0.1
		l0,0l0,0l0,0l0,0h-0.1h0.1h0.1l0,0l0,0l0,0l0,0l0,0l0,0l0,0l-0.1-0.2h-0.1l0,0l0,0l0,0l0,0c0.3,0,0.3-1.2,0.4-1.9L93,38.4l0,0l0,0
		h0.2l0.1-0.1l0.1-0.1h-0.2L93,38.4l0,0l0,0l0,0l0,0l0,0l0,0l0,0l0,0l0,0l0,0l0,0l0,0l0,0l0,0l0,0v-0.1h0.2L91.5,37.8L91.5,37.8z
		 M93,32.6l-1.9,0.7c0.3,0.7,0.7,1.5,0.7,2.3l2.2-0.2v-0.1h-0.2h-0.1l0,0c-0.1-1-0.2-1-0.5-2l0,0l0,0l0,0l0,0h-0.1L93,33.2l0,0
		l0.1,0.1l0,0C93,33.2,93,33,93,33l0,0l0,0l0,0l0.1,0.2l0,0V33l0,0l0,0l0,0h0.1l0,0l0,0l0,0l0,0l0,0h0.1l0,0l0,0l0,0h-0.1h-0.1l0,0
		l0,0l0,0l0,0h0.1l0,0l0,0l0,0h-0.1H93l0,0l0,0l0,0l0.1,0.3l0,0V33l0,0l0,0l0,0l0.1,0.3l0,0V33l0,0l0.1,0.3l0,0l0,0l0,0l0,0H93l0,0
		h0.1l0,0l0,0C93.1,32.2,93,32.7,93,32.6L93,32.6z M89.2,27.9l-1.1,1.7c0.7,0.4,1.3,1,1.8,1.6l1.5-1.3l0,0l0,0l0,0l0,0l0,0l0,0l0,0
		l0,0l0,0l0,0l0,0l0,0l0,0l0,0l0,0l0,0l0,0l0,0l0,0l0,0l0,0l0,0l0,0l0,0l0,0l0,0l0,0l0,0l0,0l0,0l0,0l0,0l0,0l0,0l0,0v-0.2v-0.2
		h-0.1l-0.1,0.4v-0.2c0,0,0.3-0.2,0.2-0.2h-0.1l-0.1,0.4l0,0l0.1-0.4h0.1l0,0l0,0v0.2l-0.1,0.1l-0.1,0.1l0,0l0,0l0,0h0.1l0.1-0.2
		v-0.2l0,0l0,0l0,0l-0.2,0.2v0.1h0.1l0,0l0,0l0,0l0.2-0.4l0,0v0.2v0.1l0,0l0,0v-0.2l0,0v-0.2l0,0l0,0l0,0v0.2v0.1l0,0l0,0l0,0l0,0
		l0,0l0,0l0,0l0,0l0,0l0,0l0,0l0,0l0,0l0,0l0,0l0,0l0,0l0,0l0,0l0,0l0,0l0,0l0,0l0,0l0,0l0,0l0,0l0,0l0,0l0,0l0,0l0,0l0,0l0,0l0,0
		l0,0l0,0l0,0l0,0l0,0l0,0l0,0v-0.1v-0.1l0,0v0.1l0,0l0,0l0,0l0,0l0,0l0,0l0,0l0,0v-0.1v-0.1l0,0v0.1l0,0l0,0l0,0l0,0l0,0v-0.1l0,0
		c0,0,0,0.1,0,0l0,0l0,0l0,0l0,0l0,0v-0.1l0,0l0,0l0,0l0,0l0,0l0,0l0,0l0,0l0,0l0,0l0,0l0,0l0,0C90.4,28.7,89.8,28.3,89.2,27.9
		L89.2,27.9z M84,26.2v2c0,0,1.4,0.1,2.1,0.3l0.5-1.9c-0.2-0.1-0.4-0.2-0.6-0.3l0,0c0,0,0-0.1-0.1-0.1l0,0l0,0l0,0l0,0l0,0H86l0,0
		h-0.2l0,0H86l0,0l0,0v0.1v0.1v-0.1l-0.2-0.1l0,0l0,0l0,0l0,0l0,0l0,0l0,0l0,0l0,0l0,0l0,0l0,0l0,0l0,0l0,0h0.3l0,0h-0.3l0,0l0,0
		l0,0l0,0l0,0l0,0l0,0l0,0l0,0l0,0l0,0l0,0l0,0l0,0l0,0l0,0l0,0l0,0l0,0l0,0l0,0l0,0l0,0l0,0l0,0l0,0l0,0l0,0l0,0l0,0l0,0l0,0l0,0
		l0,0l0,0l0,0l0,0l0,0l0,0l0,0l0,0l0,0l0,0l0,0l0,0l0,0l0,0l0,0l0,0l0,0l0,0l0,0l0,0l0,0l0,0l0,0l0,0l0,0l0,0l0,0l0,0l0,0l0,0l0,0
		l0,0l0,0l0,0l0,0l0,0l0,0l0,0l0,0l0,0l0,0l0,0l0,0l0,0l0,0l0,0l0,0l0,0l0,0l0,0l0,0l0,0l0,0l0,0l0,0l0,0l0,0l0,0l0,0l0,0l0,0l0,0
		l0,0l0,0l0,0l0,0l0,0l0,0l0,0l0,0l0,0l0,0l0,0l0,0l0,0l0,0l0,0l0,0l0,0l0,0l0,0l0,0l0,0l0,0l0,0l0,0l0,0l0,0l0,0l0,0l0,0l0,0l0,0
		l0,0l0,0l0,0l0,0l0,0l0,0l0,0l0,0l0,0l0,0l0,0l0,0l0,0l0,0l0,0l0,0l0,0l0,0l0,0l0,0l0,0l0,0l0,0l0,0l0,0l0,0l0,0l0,0l0,0l0,0l0,0
		l0,0l0,0l0,0l0,0l0,0l0,0l0,0l0,0l0,0l0,0l0,0l0,0l0,0l0,0l0,0l0,0l0,0l0,0l0,0l0,0l0,0l0,0l0,0l0,0l0,0l0,0l0,0l0,0l0,0l0,0l0,0
		l0,0l0,0l0,0l0,0l0,0l0,0l0,0l0,0l0,0l0,0l0,0l0,0l0,0l0,0l0,0l0,0l0,0l0,0l0,0l0,0l0,0l0,0l0,0l0,0l0,0l0,0l0,0l0,0l0,0l0,0l0,0
		l0,0l0,0l0,0l0,0l0,0l0,0l0,0l0,0l0,0l0,0l0,0l0,0l0,0l0,0l0,0l0,0l0,0l0,0l0,0l0,0l0,0l0,0l0,0l0,0l0,0l0,0l0,0l0,0l0,0l0,0l0,0
		l0,0l0,0l0,0l0,0l0,0l0,0l0,0l0,0l0,0l0,0l0,0l0,0l0,0l0,0l0,0l0,0l0,0l0,0l0,0l0,0l0,0l0,0l0,0l0,0l0,0l0,0l0,0l0,0l0,0l0,0l0,0
		l0,0l0,0l0,0l0,0l0,0l0,0l0,0l0,0l0,0l0,0l0,0l0,0l0,0l0,0l0,0l0,0l0,0l0,0l0,0l0,0l0,0l0,0l0,0l0,0l0,0l0,0l0,0l0,0l0,0l0,0l0,0
		l0,0l0,0l0,0l0,0l0,0l0,0l0,0l0,0l0,0l0,0l0,0l0,0l0,0l0,0l0,0l0,0l0,0l0,0l0,0l0,0l0,0l0,0l0,0l0,0l0,0l0,0l0,0l0,0l0,0l0,0l0,0
		l0,0l0,0l0,0l0,0l0,0l0,0l0,0l0,0l0,0l0,0l0,0l0,0l0,0l0,0l0,0l0,0l0,0l0,0l0,0l0,0l0,0l0,0l0,0l0,0l0,0l0,0l0,0l0,0l0,0l0,0l0,0
		l0,0l0,0l0,0l0,0l0,0l0,0l0,0l0,0l0,0l0,0l0,0l0,0l0,0l0,0l0,0l0,0l0,0l0,0l0,0l0,0l0,0l0,0l0,0l0,0l0,0
		C84.1,26.2,84.1,26.2,84,26.2C84.1,26.2,84.1,26.2,84,26.2C84.1,26.2,84.1,26.2,84,26.2C84.1,26.2,84.1,26.2,84,26.2
		C84.1,26.2,84.1,26.2,84,26.2C84.1,26.2,84.1,26.2,84,26.2C84.1,26.2,84.1,26.2,84,26.2C84.1,26.2,84.1,26.2,84,26.2L84,26.2
		C84.1,26.2,84.1,26.2,84,26.2C84.1,26.2,84.1,26.2,84,26.2C84.1,26.2,84.1,26.2,84,26.2C84.1,26.2,84.1,26.2,84,26.2L84,26.2
		L84,26.2L84,26.2L84,26.2L84,26.2L84,26.2L84,26.2L84,26.2L84,26.2L84,26.2L84,26.2L84,26.2L84,26.2L84,26.2L84,26.2L84,26.2
		L84,26.2L84,26.2L84,26.2L84,26.2L84,26.2L84,26.2L84,26.2L84,26.2L84,26.2C83.9,26.2,83.9,26.2,84,26.2
		C83.9,26.2,83.9,26.2,84,26.2C83.9,26.2,83.9,26.2,84,26.2C83.9,26.2,83.9,26.2,84,26.2C83.9,26.2,83.9,26.2,84,26.2
		C83.9,26.2,83.9,26.2,84,26.2C83.9,26.2,83.9,26.2,84,26.2C83.9,26.2,83.9,26.2,84,26.2C83.9,26.2,83.9,26.2,84,26.2
		C83.9,26.2,83.9,26.2,84,26.2C83.9,26.2,83.9,26.2,84,26.2C83.9,26.2,83.9,26.2,84,26.2L84,26.2L84,26.2L84,26.2L84,26.2L84,26.2
		L84,26.2L84,26.2L84,26.2L84,26.2L84,26.2L84,26.2L84,26.2L84,26.2L84,26.2L84,26.2L84,26.2L84,26.2L84,26.2L84,26.2L84,26.2
		L84,26.2L84,26.2L84,26.2L84,26.2L84,26.2L84,26.2L84,26.2L84,26.2L84,26.2L84,26.2L84,26.2L84,26.2L84,26.2L84,26.2L84,26.2
		L84,26.2L84,26.2L84,26.2L84,26.2L84,26.2L84,26.2L84,26.2L84,26.2L84,26.2L84,26.2L84,26.2L84,26.2C83.7,26.2,84,26.2,84,26.2
		L84,26.2z"/>
</g>
<g id="XMLID_131_">
	<rect id="XMLID_144_" x="72" y="0.1" class="st0" width="24" height="24"/>
	<path id="XMLID_132_" class="st3" d="M84,2.1h-0.3l0,0l0,0l0,0l0,0l0,0l0,0l0,0l0,0l0,0l0,0l0,0l0,0l0,0l0,0l0,0l0,0l0,0l0,0l0,0
		l0,0l0,0l0,0l0,0l0,0l0,0l0,0l0,0l0,0l0,0l0,0l0,0l0,0l0,0l0,0l0,0l0,0l0,0l0,0l0,0l0,0l0,0l0,0l0,0l0,0l0,0l0,0l0,0l0,0l0,0l0,0
		l0,0l0,0l0,0l0,0l0,0l0,0l0,0l0,0l0,0l0,0l0,0l0,0l0,0l0,0l0,0l0,0l0,0l0,0l0,0l0,0l0,0l0,0l0,0l0,0l0,0l0,0l0,0l0,0l0,0l0,0l0,0
		l0,0l0,0l0,0l0,0l0,0l0,0l0,0l0,0l0,0l0,0l0,0l0,0l0,0l0,0l0,0l0,0l0,0l0,0l0,0l0,0l0,0l0,0l0,0l0,0l0,0l0,0l0,0l0,0l0,0l0,0l0,0
		l0,0l0,0l0,0l0,0l0,0l0,0l0,0l0,0l0,0l0,0l0,0l0,0l0,0l0,0l0,0l0,0l0,0l0,0l0,0l0,0l0,0l0,0l0,0l0,0l0,0l0,0l0,0l0,0l0,0l0,0l0,0
		l0,0l0,0l0,0l0,0l0,0l0,0l0,0l0,0l0,0l0,0l0,0l0,0l0,0l0,0l0,0l0,0l0,0l0,0l0,0l0,0l0,0l0,0l0,0l0,0l0,0l0,0l0,0l0,0l0,0l0,0l0,0
		l0,0l0,0l0,0l0,0l0,0l0,0l0,0l0,0l0,0l0,0l0,0l0,0l0,0l0,0l0,0l0,0l0,0l0,0l0,0l0,0l0,0l0,0l0,0l0,0l0,0l0,0l0,0l0,0l0,0l0,0l0,0
		l0,0l0,0l0,0l0,0l0,0l0,0l0,0l0,0l0,0l0,0l0,0l0,0l0,0l0,0l0,0l0,0l0,0l0,0l0,0l0,0l0,0l0,0l0,0l0,0l0,0l0,0l0,0l0,0l0,0l0,0l0,0
		l0,0l0,0l0,0l0,0l0,0l0,0l0,0l0,0l0,0l0,0l0,0l0,0l0,0l0,0l0,0l0,0l0,0l0,0l0,0l0,0l0,0l0,0l0,0l0,0l0,0l0,0l0,0l0,0l0,0l0,0l0,0
		l0,0l0,0l0,0l0,0l0,0l0,0l0,0l0,0l0,0l0,0l0,0l0,0l0,0l0,0l0,0l0,0l0,0l0,0l0,0l0,0l0,0h-0.5l0,0l0,0l0,0h0.5l0,0h-0.5l0,0l0,0l0,0
		h0.4l0,0l0,0l0,0l0,0l0,0l0,0l0,0l0,0l0,0h-0.4l0,0l0,0l0,0l0,0l0,0l0,0l0,0l0,0l0,0l0,0l0,0l0,0l0,0l0,0v0.1l0,0l0,0l0,0v0.1l0,0
		l0,0l0,0v0.1l0,0l0,0l0,0v0.1l0,0l0,0l0,0l0,0V2.4L82,2.1h0.1l0,0L82,2.2l0,0l0,0l0,0l0,0v0.1l0,0l0,0l0,0v0.1l0,0l0,0l0,0v0.1l0,0
		l0,0l0,0l0,0l0,0l0,0l0,0l0,0l0,0l0,0l0,0l0,0l0,0l0,0l0,0l0,0l0,0l0,0h0.1l0,0H82l0,0h0.1l0,0H82l0,0h0.1v0.1l0,0l0,0H82l0,0l0,0
		l0,0l0,0l0,0l0,0l0,0l0,0l0,0l0,0l0,0l0,0l0,0l0,0l0,0l0,0l0,0l0,0l0,0l0,0l0,0l0,0l0,0l0,0l0,0l0,0l0,0l0,0l0,0l0,0l0,0l0,0l0,0
		l0,0l0,0l0,0l0,0l0,0l0,0l0,0l0,0l0,0l0,0l0,0l0,0l0,0l0,0l0,0l0,0l0,0l0,0l0,0l0,0l0,0l0,0l0,0l0,0l0,0l0,0l0,0l0,0l0,0l0,0l0,0
		l0,0l0,0l0,0l0,0l0,0l0,0l0,0l0,0l0,0l0,0l0,0l0,0l0,0l0,0l0.4,0.1V2.2c-0.4,0-0.9-0.1-0.9-0.1l0,0l0,0l0,0L82,2.2l0,0l-0.5-0.1
		l0,0l0,0l0,0l0,0l0,0H81v0.1v0.1l0,0l0,0l0,0l0.2-0.1l0,0l0.2-0.1l0,0c0,0-0.4,0.1-0.4,0.1v0.1l0,0l0,0l0,0l0,0
		c0,0.1-0.2,0.1-0.5,0.2l0.8,1.9C82.1,4.2,83,4.1,84,4.1V2.1L84,2.1L84,2.1z M78.1,3.8c-0.5,0.4-1,0.8-1.4,1.2l0,0l0,0l0,0l0,0v0.1
		v0.1h0.2C76.8,5.1,77,5,77,5l0,0l-0.3,0.1l0,0H77l0,0l0,0c0-0.1,0,0,0,0l0,0l0,0h-0.2h-0.1l0,0l0,0l0,0l0,0l0,0l0,0l0,0h0.2
		c-0.1,0,0.1,0,0.1,0l0,0h-0.4l0,0l0,0l0,0l0,0l0,0l0,0l0,0l0,0l0,0l0,0l0,0l0,0l0,0l0,0l0,0l0,0l0,0l0,0l0,0l0,0l0,0l0,0l0,0l0,0
		l0,0l0,0l0,0l0,0l0,0l0,0l0,0l0,0l0,0l0,0l0,0l0,0l0,0l0,0l0,0l0,0l0,0l0,0l0,0l0,0l0,0l0,0l0,0l0,0l0,0l0,0l0,0V5V4.9l0,0V5l0,0
		l0,0l0,0l0,0V4.9V4.8l0,0v0.1l0,0l0,0l0,0C76.4,5.1,76,5.2,76,5.2l0,0h0.2l0.1-0.1L76.4,5l0,0c0,0.1-0.4,0.2-0.4,0.2l0,0l0,0V5.1
		c0,0.1,0.4,0,0.4,0l0,0L76,5.2c0,0,0,0,0,0.1l0,0l0,0l0,0l0,0l0,0l0,0l0.2-0.2h-0.1L76,5.3l0,0l0,0l0,0h0.2h0.1l0,0V5.2V5.1l0,0
		v0.1v0.1l0,0V5.2V5.1h-0.1L76,5.4V5.3c0-0.1,0.3-0.2,0.3-0.2l0,0L76,5.3v0.1l0,0l0,0h0.1H76h-0.1l0,0c0.1,0,0.2-0.3,0.2-0.3h0.1
		l0,0l0,0l0,0l0,0L76,5.3v0.1l0,0l0,0l0,0l0,0l0,0l0,0h0.1l0,0H76l0,0h0.1l0,0l0,0l0,0l0,0l0,0l0,0l0,0l0,0l0,0l0,0l0,0l0,0l0,0l0,0
		l0,0l0,0l0,0l0,0l0,0l0,0l0,0l0,0l0,0l0,0l0,0l0,0l0,0l0,0l0,0l0,0l0,0l0,0v0.2v0.2l0,0V5.3v0.2c-0.1,0.4,0,0.6,0,0.6l0,0L76,5.9
		V5.8V5.7l0,0l0,0v0.2c0,0,0,0.2,0,0.2l0,0V5.9V5.8c0,0,0-0.1,0,0l0,0l0,0l0,0l0,0l0,0l0,0l0,0l0,0l0,0l0,0l0,0l0,0l0,0l0,0l0,0l0,0
		l0,0l0,0l0,0l0,0l0,0l0,0l0,0l0,0l0,0l0,0l0,0l0,0l0,0l0,0l0,0l0,0l0,0l0,0l0,0l0,0l0,0l0,0l0,0l0,0l0,0l0,0l0,0l0,0l0,0l0,0l0,0
		l0,0l0,0l0,0l0,0l0,0l0,0l0,0l0,0l0,0l0,0l0,0l0,0l0,0l0,0l0,0l0,0l0,0l0,0l0,0l0,0l0,0l1.4,1.3c0.5-0.6,1.1-1.2,1.8-1.6L78.1,3.8
		L78.1,3.8z M74.4,8.5c-0.3,0.8-0.5,1.7-0.6,2.7h0.1H74l0,0h-0.1H74v0.1l0,0l0,0l0,0l0,0l0,0l0,0l0,0l0,0l0,0l0,0l0,0l0,0l0,0l0,0
		l0,0l0,0l0,0l0,0l0,0l0,0l0,0l0,0l0,0l0,0l0,0l0,0l0,0l0,0l0,0l0,0l0,0l0,0l0,0l0,0l0,0l0,0l0,0l0,0l0,0l0,0l0,0l0,0l0,0l0,0l0,0
		l0,0l0,0l1.9,0.1c0-0.7,0.1-1.5,0.4-2.2L74.4,8.5L74.4,8.5z M75.9,13.9l-2.1,0.5c0.1,0.4,0.2,0.9,0.2,1.3v0.2l0.4,0.2h-0.2L74,15.7
		l0,0l0.2,0.4h-0.1L74,15.8l0,0l0.2,0.3h-0.1L74,15.8l0,0l0,0l0,0l0.2,0.3h-0.1L74,15.8l0,0l0,0l0,0l0,0l0,0l0,0l0,0h0.2h0.1h0.1
		l0,0l0,0l0,0l0,0l0,0l0,0l0,0l0,0l0,0l0,0l0,0l0,0l0,0l0,0l0,0l0,0l0,0h-0.2H74l0,0l0,0l0,0l0,0l0,0l0,0l0,0l0.2,0.2h-0.1L74,15.8
		l0,0l0,0l0,0l0,0l0,0l0,0l0,0l0,0l0,0l0,0l0,0l0.2,0.1h-0.1L74,15.8l0,0l0,0l0,0l0,0l0,0l0,0l0,0l0,0l0,0l0.3,0.1h0.1h0.1l0,0l0,0
		l0,0l0,0l0,0H75l0,0l0,0l0,0h-0.2h-0.1h-0.1l0,0l0,0l0,0l0,0l0,0l0,0l0,0c0.1,0.3,0.3,0.7,0.5,1l0,0l0,0l0,0l0,0l0,0l0,0l0,0l0,0
		l0,0l0,0l0,0l0,0l1.7-1C76.4,15.4,76.1,14.7,75.9,13.9L75.9,13.9z M78.3,18l-1.4,1.5l0.1,0.1l0,0l0,0l0,0l0,0l0,0l0,0l0,0l0,0l0,0
		l0,0l0,0l0,0l0,0l0,0l0,0l0,0l0,0l0,0l0,0l0,0l0,0l0,0l0,0l0,0l0,0l0,0l0,0l0,0l0,0l0,0l0,0l0,0l0,0v0.2V20l0,0v-0.2v-0.1v-0.1
		h-0.1h-0.1l0,0l0,0v0.2L77,20l0,0l-0.2-0.2v-0.1l0,0l0,0l0,0v0.4l0,0v-0.2v-0.1l0,0l0,0l0,0l0,0l0,0h0.1H77l0,0l0,0
		c0.4,0.3,0.9,0.7,1.3,0.9l0,0l0,0l0,0l0,0l0,0l0,0l0,0l0,0v0.2v0.2h0.2l0.2-0.4v0.2l-0.3,0.2l0,0l0.3-0.2V21l-0.3,0.1l0,0l0,0l0,0
		l0.3-0.2V21l-0.3,0.1l0,0l0,0l0,0l0,0l0,0l0,0l0,0v-0.2v-0.1l0,0v0.1V21l0,0l0,0l0,0v-0.2v0.1V21l0,0v-0.1v-0.1l0,0l0,0v0.1V21l0,0
		l0,0l0,0v-0.1v-0.1l0,0v0.1V21l0,0l0,0l0,0l0,0l0,0l0,0l0,0l0.2-0.1v-0.1l0,0l0,0l0,0l0,0c0.4,0.2,0.7,0.3,0.9,0.3l0.8-1.8
		C79.6,19,78.9,18.5,78.3,18L78.3,18z M85,20.1c-0.4,0-0.9,0-1.3,0c-0.4,0-0.8,0-1.1-0.1l-0.3,2l0.1,0.1l0,0l0,0h-0.2H82l0,0h0.5
		l0,0l0,0l0,0l0,0l0,0l0,0l0,0l0,0l0,0l0,0l0,0l0,0l0,0l0,0l0,0l0,0l0,0l0,0l0,0l0,0l0,0l0,0l0,0l0,0l0,0l0,0l0,0l0,0l0,0l0,0l0,0
		l0,0l0,0l0,0l0,0l0,0l0,0l0,0l0,0l0,0h0.4l0,0l0,0l0,0h-0.3l0,0l0,0l0,0h0.3l0,0l0,0l0,0l0,0l0,0l0,0l0,0c0,0,0.2,0,0.3,0l0,0l0,0
		l0,0l0,0l0,0l0,0l0,0l0,0l0,0l0,0l0,0l0,0l0,0l0,0l0,0l0,0l0,0l0,0l0,0l0,0l0,0l0,0l0,0l0,0l0,0l0,0l0,0l0,0l0,0l0,0l0,0l0,0l0,0
		l0,0l0,0l0,0l0,0l0,0l0,0l0,0l0,0l0,0l0,0l0,0l0,0l0,0l0,0l0,0l0,0l0,0l0,0l0,0l0,0l0,0l0,0l0,0l0,0l0,0l0,0l0,0l0,0l0,0l0,0l0,0
		l0,0l0,0l0,0l0,0l0,0l0,0l0,0l0,0l0,0l0,0l0,0l0,0l0,0l0,0l0,0l0,0l0,0l0,0l0,0l0,0l0,0l0,0l0,0l0,0l0,0l0,0l0,0l0,0l0,0l0,0l0,0
		l0,0l0,0l0,0l0,0l0,0l0,0l0,0l0,0l0,0l0,0l0,0l0,0l0,0l0,0l0,0l0,0l0,0l0,0l0,0l0,0l0,0l0,0l0,0l0,0l0,0l0,0l0,0l0,0l0,0l0,0l0,0
		l0,0l0,0l0,0l0,0l0,0l0,0l0,0l0,0l0,0l0,0l0,0l0,0l0,0l0,0l0,0l0,0l0,0l0,0l0,0l0,0l0,0l0,0l0,0l0,0l0,0l0,0l0,0l0,0l0,0l0,0l0,0
		l0,0l0,0l0,0l0,0l0,0l0,0l0,0l0,0l0,0l0,0l0,0l0,0l0,0l0,0l0,0l0,0l0,0l0,0l0,0l0,0l0,0l0,0l0,0l0,0l0,0l0,0l0,0l0,0l0,0l0,0l0,0
		l0,0l0,0l0,0l0,0l0,0l0,0l0,0l0,0l0,0l0,0l0,0l0,0l0,0l0,0l0,0l0,0l0,0l0,0l0,0l0,0l0,0l0,0l0,0l0,0l0,0l0,0l0,0l0,0l0,0l0,0l0,0
		l0,0l0,0l0,0l0,0l0,0l0,0l0,0l0,0l0,0l0,0l0,0l0,0l0,0l0,0l0,0l0,0l0,0l0,0l0,0l0,0l0,0l0,0l0,0l0,0l0,0l0,0l0,0l0,0l0,0l0,0l0,0
		l0,0l0,0l0,0l0,0l0,0l0,0l0,0l0,0l0,0l0,0l0,0l0,0l0,0l0,0l0,0l0,0l0,0l0,0l0,0l0,0l0,0l0,0l0,0l0,0l0,0l0,0l0,0l0,0l0,0l0,0l0,0
		l0,0l0,0l0,0l0,0l0,0l0,0l0,0l0,0l0,0l0,0l0,0l0,0l0,0l0,0l0,0l0,0l0,0l0,0l0,0l0,0l0,0l0,0l0,0l0,0l0,0l0,0l0,0l0,0l0,0l0,0l0,0
		l0,0l0,0l0,0l0,0l0,0l0,0l0,0l0,0l0,0l0,0l0,0l0,0l0,0l0,0l0,0l0,0l0,0l0,0l0,0l0,0l0,0l0,0l0,0l0,0l0,0l0,0l0,0l0,0l0,0l0,0l0,0
		l0,0l0,0l0,0l0,0l0,0l0,0l0,0l0,0l0,0l0,0l0,0l0,0l0,0l0,0l0,0l0,0l0,0l0,0l0,0l0,0l0,0l0,0l0,0l0,0l0,0l0,0l0,0l0,0l0,0l0,0l0,0
		l0,0l0,0l0,0l0,0l0,0l0,0l0,0l0,0l0,0l0,0l0,0l0,0l0,0l0,0l0,0l0,0l0,0l0,0l0,0l0,0l0,0l0,0l0,0l0,0l0,0l0,0l0,0l0,0l0,0l0,0l0,0
		l0,0l0,0l0,0l0,0l0,0l0,0l0,0l0,0l0,0l0,0l0,0l0,0l0,0l0,0l0,0l0,0l0,0l0,0l0,0l0,0l0,0l0,0l0,0l0,0l0,0l0,0l0,0l0,0l0,0l0,0l0,0
		l0,0l0,0l0,0l0,0l0,0l0,0l0,0l0,0l0,0l0,0l0,0l0,0l0,0l0,0l0,0l0,0l0,0l0,0l0,0l0,0l0,0l0,0l0,0l0,0l0,0l0,0h-0.3l0,0h0.3L85,20.1
		L85,20.1z M89.2,17.9c-0.6,0.6-1.2,1-2,1.4l0.9,1.8c0.2-0.1,0.5-0.3,0.7-0.4l0,0l0,0l0,0l0,0l0,0l0,0l0,0l0,0l0,0l0,0l0,0l0,0l0,0
		l0,0l0,0l0,0l0,0l0,0l0,0l0,0l0,0l0,0l0,0l0,0l0,0l0,0l0,0l0,0l0,0l0,0l0,0l0,0l0,0l0,0l0,0l0,0l0,0l0,0l0,0l0,0l0,0l0,0l0,0l0,0
		l0,0l0,0l0,0l0,0l0,0l0,0l0,0l0,0l0,0l0,0l0,0c0.4-0.3,0.9-0.6,1.3-1L89.2,17.9L89.2,17.9z M91.5,13.8c-0.2,0.8-0.5,1.5-0.8,2.2
		l1.7,1c0-0.1,0.1-0.1,0.1-0.2l0,0c0,0,0-0.1,0.1-0.1l0,0l0,0l0,0l0,0l0,0l0,0l0,0l0,0l0,0l0,0l0,0l0,0l0,0l0,0l0,0l0,0l0,0l0,0l0,0
		l0,0l0,0l0,0l0,0l0,0l0,0l0,0l0,0l0,0l0,0c0,0,0,0,0-0.1l0,0l0,0l0,0l0,0l0,0l0,0l0,0l0,0l0,0l0,0l0,0l0,0l0,0l0,0l0,0
		c0.3-0.6,0.5-1.3,0.6-1.9L91.5,13.8L91.5,13.8z M92.8,8.3L91,9.1c0.3,0.7,0.5,1.5,0.6,2.3l2.2-0.2c0-0.2,0.2-0.3,0.2-0.5v0.2
		l-0.2,0.2H94l0,0l0,0v-0.4l0,0l0,0l0,0l0,0l0,0l0,0l0,0l0,0l0,0l0,0l0,0l0,0l0,0l0,0l0,0l0,0l0,0l0,0l0,0l0,0l0,0l0,0l0,0l0,0l0,0
		l0,0l0,0l0,0l0,0l0,0l0,0l0,0l0,0l0,0l0,0l0,0l0,0l0,0l-0.2-0.4h0.1l0.1,0.4l0,0l0,0l0,0l-0.2-0.4h0.1l0.1,0.4l0,0l0,0l0,0
		l-0.2-0.4h-0.1h-0.1l0,0l0,0h0.2l0.2,0.4l0,0l-0.2-0.4h-0.1h-0.1l0,0l0,0l0,0l0,0h0.2l0.2,0.3l0,0l-0.2-0.2l0,0l-0.1-0.1h-0.1l0,0
		l0,0l0,0l0,0l0,0l0,0l0.4,0.1v0.1l0,0l0,0l0,0l0,0h-0.2l0,0h-0.1h-0.1l0,0l0,0l0,0l0,0l0,0l0,0l0,0l0,0l0,0l0,0l0,0l0,0l0,0l0,0
		l0,0l0,0l0,0l0,0l0,0l0,0l0,0l0,0l0,0l0,0l0,0l0,0l0,0l0,0l0,0l0,0l0,0l0,0l0,0l0,0l0,0l0,0l0,0l0,0l0,0l0,0l0,0l0,0l0,0h-0.2h-0.2
		v0.1l0.5,0.1h-0.2l-0.2-0.3l0,0l0.2,0.3h0.1h0.1l0,0l0,0h-0.2l-0.2-0.3l0,0l0.2,0.3h0.1h0.1h-0.2l-0.2-0.3l0,0l0,0l0,0l0,0l0,0l0,0
		l0,0l0,0l0,0l0,0l0,0l0,0l0,0l0,0l0,0l0.2,0.4h-0.1l-0.1-0.4l0,0l0,0l0,0l0,0l0,0l0,0l0,0l0,0l0,0l0,0l0,0l0,0l0,0l0,0l0,0l0,0l0,0
		l0,0l0,0l0,0l0,0l0,0l0,0l0,0l0,0l0,0l0,0l0,0l0,0l0,0l0,0l0,0l0,0l0,0l0,0l0,0l0,0l0,0l0,0l0,0l0.2-0.4h-0.1l-0.1,0.4l0,0l0,0l0,0
		l0,0l0,0l0,0l0,0l0,0l0,0l0.2-0.4h-0.1l-0.1,0.4l0,0l0.2-0.4h0.1l0,0l0,0l0,0l0,0l0,0l0,0l-0.3,0.1v0.1l0,0l0,0
		C93,9,92.9,8.7,92.8,8.3L92.8,8.3z M89.2,3.8l-1.1,1.7c0.7,0.4,1.3,1,1.8,1.6l1.5-1.3c-0.3-0.4-0.7-0.7-1-1.1l0,0l0,0l0,0l0,0l0,0
		l0,0l0,0l0,0l0,0l0,0l0,0l0,0l0,0l0,0l0,0l0,0l0,0l0,0l0,0l0,0V4.5V4.3h-0.1l-0.2,0.5V4.6l0.3-0.2l0,0l-0.3,0.2v0.1
		c0,0,0.1,0.1,0.1,0l0.1-0.2l0.1-0.2l0,0l-0.3,0.2V4.4l0.2-0.1l0,0l-0.2,0.2V4.2l0.2-0.1l0,0v0.2V4.2V4.1l0,0v0.2v0.1l0,0l0,0V4.2V4
		l0,0l0,0v0.2v0.1l0,0l0,0V4.1V3.9l0,0l0,0v0.2v0.1l0,0l0,0l0,0l0,0l0,0l0,0l0,0l0,0l0,0l0,0l0,0l0,0l0,0l0,0l0,0l0,0l0,0l0,0l0,0
		l0,0l0,0l0,0l0,0l0,0l0,0l0,0l0,0l0,0l0,0l0,0l0,0l0,0l0,0l0,0l0,0l0,0l0,0l0,0V4.1V4l0,0v0.1v0.1l0,0V4.1V4l0,0l0,0l0,0v0.1v0.1
		l0,0l0,0l0,0l0,0V4.1l0,0v0.1v0.1l0,0V4.2V4.1l0,0l0,0l0,0l0.1,0.1l0,0l0,0l0,0l0,0l0,0V4l0,0l0,0l0,0l0,0l0,0v0.1l0,0l0,0l0,0
		C89.7,4,89.4,3.9,89.2,3.8L89.2,3.8z M84,2.1v2c0,0,1.4,0.1,2.1,0.3l0.5-1.9c-0.8-0.2-1.6-0.4-2.4-0.4l0,0H84L84,2.1L84,2.1L84,2.1
		C84,2.1,84.1,2.1,84,2.1C84.1,2.1,84.1,2.1,84,2.1C84.1,2.1,84.1,2.1,84,2.1C84.1,2.1,84.1,2.1,84,2.1C84.1,2.1,84.1,2.1,84,2.1
		C84.1,2.1,84.1,2.1,84,2.1C84.1,2.1,84.1,2.1,84,2.1C84.1,2.1,84.1,2.1,84,2.1C84.1,2.1,84,2.1,84,2.1L84,2.1L84,2.1L84,2.1L84,2.1
		L84,2.1L84,2.1L84,2.1L84,2.1L84,2.1L84,2.1L84,2.1L84,2.1L84,2.1L84,2.1L84,2.1L84,2.1L84,2.1L84,2.1L84,2.1L84,2.1
		C83.9,2.1,83.9,2.1,84,2.1C83.9,2.1,83.9,2.1,84,2.1C83.9,2.1,83.9,2.1,84,2.1C83.9,2.1,83.9,2.1,84,2.1C83.9,2.1,83.9,2.1,84,2.1
		C83.9,2.1,83.9,2.1,84,2.1C83.9,2.1,83.9,2.1,84,2.1C83.9,2.1,83.9,2.1,84,2.1C83.9,2.1,83.9,2.1,84,2.1C83.9,2.1,83.9,2.1,84,2.1
		C83.9,2.1,83.9,2.1,84,2.1C83.9,2.1,83.9,2.1,84,2.1L84,2.1L84,2.1L84,2.1L84,2.1L84,2.1L84,2.1L84,2.1L84,2.1L84,2.1L84,2.1
		L84,2.1L84,2.1L84,2.1L84,2.1L84,2.1L84,2.1L84,2.1L84,2.1L84,2.1L84,2.1L84,2.1L84,2.1L84,2.1L84,2.1L84,2.1L84,2.1L84,2.1L84,2.1
		L84,2.1L84,2.1L84,2.1L84,2.1L84,2.1L84,2.1L84,2.1L84,2.1L84,2.1L84,2.1L84,2.1L84,2.1L84,2.1L84,2.1L84,2.1L84,2.1L84,2.1
		C83.7,2.1,84,2.1,84,2.1L84,2.1z"/>
</g>
</svg>
